<?xml version="1.0" encoding="UTF-8" standalone="no"?>
<svg
   xmlns:dc="http://purl.org/dc/elements/1.1/"
   xmlns:cc="http://creativecommons.org/ns#"
   xmlns:rdf="http://www.w3.org/1999/02/22-rdf-syntax-ns#"
   xmlns:svg="http://www.w3.org/2000/svg"
   xmlns="http://www.w3.org/2000/svg"
   xmlns:xlink="http://www.w3.org/1999/xlink"
   xmlns:sodipodi="http://sodipodi.sourceforge.net/DTD/sodipodi-0.dtd"
   xmlns:inkscape="http://www.inkscape.org/namespaces/inkscape"
   version="1.1"
   stroke-linecap="round"
   stroke-linejoin="round"
   stroke-width="0"
   fill-rule="evenodd"
   clip-rule="evenodd"
   id="BVbtwDY_HCJXS4DV3AxL_bottom"
   viewBox="144780 -114300 15240 24384"
   width="15.24mm"
   height="24.384mm"
   class="w-100 h-100"
   inkscape:version="0.91 r13725"
   sodipodi:docname="bottom.svg">
  <metadata
     id="metadata6644">
    <rdf:RDF>
      <cc:Work
         rdf:about="">
        <dc:format>image/svg+xml</dc:format>
        <dc:type
           rdf:resource="http://purl.org/dc/dcmitype/StillImage" />
      </cc:Work>
    </rdf:RDF>
  </metadata>
  <sodipodi:namedview
     pagecolor="#ffffff"
     bordercolor="#666666"
     borderopacity="1"
     objecttolerance="10"
     gridtolerance="10"
     guidetolerance="10"
     inkscape:pageopacity="0"
     inkscape:pageshadow="2"
     inkscape:window-width="1855"
     inkscape:window-height="1056"
     id="namedview6642"
     showgrid="false"
     inkscape:zoom="10.636574"
     inkscape:cx="27"
     inkscape:cy="43.200001"
     inkscape:window-x="65"
     inkscape:window-y="24"
     inkscape:window-maximized="1"
     inkscape:current-layer="layer4" />
  <defs
     id="defs6506">
    <style
       id="style6508">.BVbtwDY_HCJXS4DV3AxL_fr4 {color: #666666;}
.BVbtwDY_HCJXS4DV3AxL_cu {color: #cccccc;}
.BVbtwDY_HCJXS4DV3AxL_cf {color: #cc9933;}
.BVbtwDY_HCJXS4DV3AxL_sm {color: #4b0082; opacity: 0.75;}
.BVbtwDY_HCJXS4DV3AxL_ss {color: #ffffff;}
.BVbtwDY_HCJXS4DV3AxL_sp {color: #999999;}
.BVbtwDY_HCJXS4DV3AxL_out {color: #000000;}</style>
    <circle
       cx="0"
       cy="0"
       r="850"
       id="l6S8EsBV8NrUww9Z4oVQ_pad-10" />
    <rect
       x="-2550"
       y="-1250"
       width="5100"
       height="2500"
       id="l6S8EsBV8NrUww9Z4oVQ_pad-12" />
    <circle
       cx="0"
       cy="0"
       r="5100"
       id="l6S8EsBV8NrUww9Z4oVQ_pad-13" />
    <circle
       cx="0"
       cy="0"
       r="400"
       id="l6S8EsBV8NrUww9Z4oVQ_pad-14" />
    <circle
       cx="0"
       cy="0"
       r="7.85"
       id="EgbubYCeWvsXBx5IvUOB_pad-1" />
    <circle
       cx="0"
       cy="0"
       r="19.7"
       id="EgbubYCeWvsXBx5IvUOB_pad-2" />
    <g
       id="BVbtwDY_HCJXS4DV3AxL_bottom_silkscreen">
      <path
         d="M 154533.6 -113556.142 154555.371 -113592.428 154620.685 -113628.714 154664.228 -113628.714 154729.542 -113592.428 154773.085 -113519.857 154794.857 -113447.285 154816.628 -113302.142 154816.628 -113193.285 154794.857 -113048.142 154773.085 -112975.571 154729.542 -112903 154664.228 -112866.714 154620.685 -112866.714 154555.371 -112903 154533.6 -112939.285 M 154076.4 -113556.142 154098.171 -113592.428 154163.485 -113628.714 154207.028 -113628.714 154272.342 -113592.428 154315.885 -113519.857 154337.657 -113447.285 154359.428 -113302.142 154359.428 -113193.285 154337.657 -113048.142 154315.885 -112975.571 154272.342 -112903 154207.028 -112866.714 154163.485 -112866.714 154098.171 -112903 154076.4 -112939.285 M 153379.714 -113229.571 153314.4 -113265.857 153292.628 -113302.142 153270.857 -113374.714 153270.857 -113483.571 153292.628 -113556.142 153314.4 -113592.428 153357.942 -113628.714 153532.114 -113628.714 153532.114 -112866.714 153379.714 -112866.714 153336.171 -112903 153314.4 -112939.285 153292.628 -113011.857 153292.628 -113084.428 153314.4 -113157 153336.171 -113193.285 153379.714 -113229.571 153532.114 -113229.571 M 152987.828 -113265.857 152987.828 -113628.714 M 153140.228 -112866.714 152987.828 -113265.857 152835.428 -112866.714 M 152683.028 -113338.428 152334.685 -113338.428 M 152116.971 -113628.714 152116.971 -112866.714 151855.714 -113628.714 151855.714 -112866.714 M 151376.742 -113556.142 151398.514 -113592.428 151463.828 -113628.714 151507.371 -113628.714 151572.685 -113592.428 151616.228 -113519.857 151638 -113447.285 151659.771 -113302.142 151659.771 -113193.285 151638 -113048.142 151616.228 -112975.571 151572.685 -112903 151507.371 -112866.714 151463.828 -112866.714 151398.514 -112903 151376.742 -112939.285 M 151180.8 -113338.428 150832.457 -113338.428 M 150636.514 -113592.428 150571.2 -113628.714 150462.342 -113628.714 150418.8 -113592.428 150397.028 -113556.142 150375.257 -113483.571 150375.257 -113411 150397.028 -113338.428 150418.8 -113302.142 150462.342 -113265.857 150549.428 -113229.571 150592.971 -113193.285 150614.742 -113157 150636.514 -113084.428 150636.514 -113011.857 150614.742 -112939.285 150592.971 -112903 150549.428 -112866.714 150440.571 -112866.714 150375.257 -112903 M 150201.085 -113411 149983.371 -113411 M 150244.628 -113628.714 150092.228 -112866.714 149939.828 -113628.714"
         fill="none"
         stroke-width="81.28"
         id="path6517" />
      <path
         d="M 154501.547 -111203.619 154138.69 -111203.619 M 154320.119 -112219.619 154320.119 -111203.619 M 153836.309 -112219.619 153896.785 -112171.238 153927.023 -112122.857 153957.261 -112026.095 153957.261 -111735.809 153927.023 -111639.047 153896.785 -111590.666 153836.309 -111542.285 153745.595 -111542.285 153685.119 -111590.666 153654.88 -111639.047 153624.642 -111735.809 153624.642 -112026.095 153654.88 -112122.857 153685.119 -112171.238 153745.595 -112219.619 153836.309 -112219.619 M 153080.357 -111542.285 153080.357 -112219.619 M 153352.5 -111542.285 153352.5 -112074.476 153322.261 -112171.238 153261.785 -112219.619 153171.071 -112219.619 153110.595 -112171.238 153080.357 -112122.857 M 152505.833 -112171.238 152566.309 -112219.619 152687.261 -112219.619 152747.738 -112171.238 152777.976 -112122.857 152808.214 -112026.095 152808.214 -111735.809 152777.976 -111639.047 152747.738 -111590.666 152687.261 -111542.285 152566.309 -111542.285 152505.833 -111590.666 M 152233.69 -112219.619 152233.69 -111203.619 M 151961.547 -112219.619 151961.547 -111687.428 151991.785 -111590.666 152052.261 -111542.285 152142.976 -111542.285 152203.452 -111590.666 152233.69 -111639.047 M 151235.833 -111542.285 151084.642 -112219.619 150933.452 -111542.285 M 150358.928 -112219.619 150721.785 -112219.619 M 150540.357 -112219.619 150540.357 -111203.619 150600.833 -111348.761 150661.309 -111445.523 150721.785 -111493.904"
         fill="none"
         stroke-width="101.6"
         id="path6519" />
      <path
         d="M 146494.5 -106999.314 145774.833 -106999.314 145690.166 -107021.085 145647.833 -107042.857 145605.5 -107086.4 145605.5 -107151.714 145647.833 -107195.257 M 145944.166 -106999.314 145901.833 -107042.857 145901.833 -107129.942 145944.166 -107173.485 145986.5 -107195.257 146071.166 -107217.028 146325.166 -107217.028 146409.833 -107195.257 146452.166 -107173.485 146494.5 -107129.942 146494.5 -107042.857 146452.166 -106999.314 M 145901.833 -106781.6 146494.5 -106781.6 M 146790.833 -106781.6 146748.5 -106803.371 146706.166 -106781.6 146748.5 -106759.828 146790.833 -106781.6 146706.166 -106781.6 M 146494.5 -106629.2 146494.5 -106455.028 M 146790.833 -106563.885 146028.833 -106563.885 145944.166 -106542.114 145901.833 -106498.571 145901.833 -106455.028 M 145901.833 -106302.628 146790.833 -106302.628 M 145901.833 -106106.685 146367.5 -106106.685 146452.166 -106128.457 146494.5 -106172 146494.5 -106237.314 146452.166 -106280.857 146409.833 -106302.628 M 146494.5 -105693.028 145901.833 -105693.028 M 146494.5 -105888.971 146028.833 -105888.971 145944.166 -105867.2 145901.833 -105823.657 145901.833 -105758.342 145944.166 -105714.8 145986.5 -105693.028 M 145901.833 -105475.314 146790.833 -105475.314 M 146452.166 -105475.314 146494.5 -105431.771 146494.5 -105344.685 146452.166 -105301.142 146409.833 -105279.371 146325.166 -105257.599 146071.166 -105257.599 145986.5 -105279.371 145944.166 -105301.142 145901.833 -105344.685 145901.833 -105431.771 145944.166 -105475.314 M 145986.5 -105061.657 145944.166 -105039.885 145901.833 -105061.657 145944.166 -105083.428 145986.5 -105061.657 145901.833 -105061.657 M 145944.166 -104647.999 145901.833 -104691.542 145901.833 -104778.628 145944.166 -104822.171 145986.5 -104843.942 146071.166 -104865.714 146325.166 -104865.714 146409.833 -104843.942 146452.166 -104822.171 146494.5 -104778.628 146494.5 -104691.542 146452.166 -104647.999 M 145901.833 -104386.742 145944.166 -104430.285 145986.5 -104452.057 146071.166 -104473.828 146325.166 -104473.828 146409.833 -104452.057 146452.166 -104430.285 146494.5 -104386.742 146494.5 -104321.428 146452.166 -104277.885 146409.833 -104256.114 146325.166 -104234.342 146071.166 -104234.342 145986.5 -104256.114 145944.166 -104277.885 145901.833 -104321.428 145901.833 -104386.742 M 145901.833 -104038.399 146494.5 -104038.399 M 146409.833 -104038.399 146452.166 -104016.628 146494.5 -103973.085 146494.5 -103907.771 146452.166 -103864.228 146367.5 -103842.457 145901.833 -103842.457 M 146367.5 -103842.457 146452.166 -103820.685 146494.5 -103777.142 146494.5 -103711.828 146452.166 -103668.285 146367.5 -103646.514 145901.833 -103646.514 M 146833.166 -103102.228 145690.166 -103494.114 M 146494.5 -103015.142 146494.5 -102840.971 M 146790.833 -102949.828 146028.833 -102949.828 145944.166 -102928.057 145901.833 -102884.514 145901.833 -102840.971 M 146494.5 -102732.114 145901.833 -102623.257 M 146494.5 -102514.399 145901.833 -102623.257 145690.166 -102666.799 145647.833 -102688.571 145605.5 -102732.114 M 145944.166 -102166.057 145901.833 -102209.599 145901.833 -102296.685 145944.166 -102340.228 146028.833 -102361.999 146367.5 -102361.999 146452.166 -102340.228 146494.5 -102296.685 146494.5 -102209.599 146452.166 -102166.057 146367.5 -102144.285 146282.833 -102144.285 146198.166 -102361.999 M 145901.833 -101948.342 146790.833 -101948.342 M 145901.833 -101752.399 146367.5 -101752.399 146452.166 -101774.171 146494.5 -101817.714 146494.5 -101883.028 146452.166 -101926.571 146409.833 -101948.342 M 145901.833 -101469.371 145944.166 -101512.914 146028.833 -101534.685 146790.833 -101534.685 M 145944.166 -101121.028 145901.833 -101164.571 145901.833 -101251.657 145944.166 -101295.199 146028.833 -101316.971 146367.5 -101316.971 146452.166 -101295.199 146494.5 -101251.657 146494.5 -101164.571 146452.166 -101121.028 146367.5 -101099.257 146282.833 -101099.257 146198.166 -101316.971 M 146833.166 -100576.742 145690.166 -100968.628 M 146494.5 -100489.657 146494.5 -100315.485 M 146790.833 -100424.342 146028.833 -100424.342 145944.166 -100402.571 145901.833 -100359.028 145901.833 -100315.485 M 145901.833 -100097.771 145944.166 -100141.314 145986.5 -100163.085 146071.166 -100184.857 146325.166 -100184.857 146409.833 -100163.085 146452.166 -100141.314 146494.5 -100097.771 146494.5 -100032.457 146452.166 -99988.914 146409.833 -99967.142 146325.166 -99945.371 146071.166 -99945.371 145986.5 -99967.142 145944.166 -99988.914 145901.833 -100032.457 145901.833 -100097.771 M 146494.5 -99553.485 145901.833 -99553.485 M 146494.5 -99749.428 146028.833 -99749.428 145944.166 -99727.657 145901.833 -99684.114 145901.833 -99618.799 145944.166 -99575.257 145986.5 -99553.485 M 145944.166 -99139.828 145901.833 -99183.371 145901.833 -99270.457 145944.166 -99313.999 145986.5 -99335.771 146071.166 -99357.542 146325.166 -99357.542 146409.833 -99335.771 146452.166 -99313.999 146494.5 -99270.457 146494.5 -99183.371 146452.166 -99139.828 M 145901.833 -98943.885 146790.833 -98943.885 M 145901.833 -98747.942 146367.5 -98747.942 146452.166 -98769.714 146494.5 -98813.257 146494.5 -98878.571 146452.166 -98922.114 146409.833 -98943.885 M 146240.5 -98530.228 146240.5 -98181.885 M 145944.166 -97768.228 145901.833 -97811.771 145901.833 -97898.857 145944.166 -97942.399 145986.5 -97964.171 146071.166 -97985.942 146325.166 -97985.942 146409.833 -97964.171 146452.166 -97942.399 146494.5 -97898.857 146494.5 -97811.771 146452.166 -97768.228 M 145901.833 -97572.285 146494.5 -97572.285 M 146790.833 -97572.285 146748.5 -97594.057 146706.166 -97572.285 146748.5 -97550.514 146790.833 -97572.285 146706.166 -97572.285 M 145901.833 -97354.571 146494.5 -97354.571 M 146325.166 -97354.571 146409.833 -97332.799 146452.166 -97311.028 146494.5 -97267.485 146494.5 -97223.942 M 145944.166 -96875.599 145901.833 -96919.142 145901.833 -97006.228 145944.166 -97049.771 145986.5 -97071.542 146071.166 -97093.314 146325.166 -97093.314 146409.833 -97071.542 146452.166 -97049.771 146494.5 -97006.228 146494.5 -96919.142 146452.166 -96875.599 M 146494.5 -96483.714 145901.833 -96483.714 M 146494.5 -96679.657 146028.833 -96679.657 145944.166 -96657.885 145901.833 -96614.342 145901.833 -96549.028 145944.166 -96505.485 145986.5 -96483.714 M 145901.833 -96265.999 146494.5 -96265.999 M 146790.833 -96265.999 146748.5 -96287.771 146706.166 -96265.999 146748.5 -96244.228 146790.833 -96265.999 146706.166 -96265.999 M 146494.5 -96113.599 146494.5 -95939.428 M 146790.833 -96048.285 146028.833 -96048.285 145944.166 -96026.514 145901.833 -95982.971 145901.833 -95939.428"
         fill="none"
         stroke-width="81.28"
         id="path6521" />
      <path
         d="M 157939.619 -95344.342 157939.619 -95692.685 M 158955.619 -95518.514 157939.619 -95518.514 M 158955.619 -95982.971 158907.238 -95924.914 158858.857 -95895.885 158762.095 -95866.857 158471.809 -95866.857 158375.047 -95895.885 158326.666 -95924.914 158278.285 -95982.971 158278.285 -96070.057 158326.666 -96128.114 158375.047 -96157.142 158471.809 -96186.171 158762.095 -96186.171 158858.857 -96157.142 158907.238 -96128.114 158955.619 -96070.057 158955.619 -95982.971 M 158955.619 -96447.428 157939.619 -96447.428 M 158326.666 -96447.428 158278.285 -96505.485 158278.285 -96621.6 158326.666 -96679.657 158375.047 -96708.685 158471.809 -96737.714 158762.095 -96737.714 158858.857 -96708.685 158907.238 -96679.657 158955.619 -96621.6 158955.619 -96505.485 158907.238 -96447.428 M 158955.619 -96998.971 158278.285 -96998.971 M 157939.619 -96998.971 157988 -96969.942 158036.38 -96998.971 157988 -97028 157939.619 -96998.971 158036.38 -96998.971 M 158278.285 -97289.257 158955.619 -97289.257 M 158375.047 -97289.257 158326.666 -97318.285 158278.285 -97376.342 158278.285 -97463.428 158326.666 -97521.485 158423.428 -97550.514 158955.619 -97550.514 M 158471.809 -98421.371 158955.619 -98421.371 M 157939.619 -98218.171 158471.809 -98421.371 157939.619 -98624.571 M 158907.238 -99060 158955.619 -99001.942 158955.619 -98885.828 158907.238 -98827.771 158810.476 -98798.742 158423.428 -98798.742 158326.666 -98827.771 158278.285 -98885.828 158278.285 -99001.942 158326.666 -99060 158423.428 -99089.028 158520.19 -99089.028 158616.952 -98798.742 M 158955.619 -99350.285 157939.619 -99350.285 M 158955.619 -99611.542 158423.428 -99611.542 158326.666 -99582.514 158278.285 -99524.457 158278.285 -99437.371 158326.666 -99379.314 158375.047 -99350.285 M 158955.619 -99988.914 158907.238 -99930.857 158810.476 -99901.828 157939.619 -99901.828 M 158907.238 -100453.371 158955.619 -100395.314 158955.619 -100279.2 158907.238 -100221.142 158810.476 -100192.114 158423.428 -100192.114 158326.666 -100221.142 158278.285 -100279.2 158278.285 -100395.314 158326.666 -100453.371 158423.428 -100482.4 158520.19 -100482.4 158616.952 -100192.114 M 158036.38 -102108 157988 -102137.028 157939.619 -102195.085 157939.619 -102340.228 157988 -102398.285 158036.38 -102427.314 158133.142 -102456.342 158229.904 -102456.342 158375.047 -102427.314 158955.619 -102078.971 158955.619 -102456.342 M 157939.619 -102833.714 157939.619 -102891.771 157988 -102949.828 158036.38 -102978.857 158133.142 -103007.885 158326.666 -103036.914 158568.571 -103036.914 158762.095 -103007.885 158858.857 -102978.857 158907.238 -102949.828 158955.619 -102891.771 158955.619 -102833.714 158907.238 -102775.657 158858.857 -102746.628 158762.095 -102717.6 158568.571 -102688.571 158326.666 -102688.571 158133.142 -102717.6 158036.38 -102746.628 157988 -102775.657 157939.619 -102833.714 M 158036.38 -103269.142 157988 -103298.171 157939.619 -103356.228 157939.619 -103501.371 157988 -103559.428 158036.38 -103588.457 158133.142 -103617.485 158229.904 -103617.485 158375.047 -103588.457 158955.619 -103240.114 158955.619 -103617.485 M 157939.619 -103994.857 157939.619 -104052.914 157988 -104110.971 158036.38 -104140 158133.142 -104169.028 158326.666 -104198.057 158568.571 -104198.057 158762.095 -104169.028 158858.857 -104140 158907.238 -104110.971 158955.619 -104052.914 158955.619 -103994.857 158907.238 -103936.8 158858.857 -103907.771 158762.095 -103878.742 158568.571 -103849.714 158326.666 -103849.714 158133.142 -103878.742 158036.38 -103907.771 157988 -103936.8 157939.619 -103994.857 M 157891.238 -104894.742 159197.523 -104372.228 M 157939.619 -105214.057 157939.619 -105272.114 157988 -105330.171 158036.38 -105359.2 158133.142 -105388.228 158326.666 -105417.257 158568.571 -105417.257 158762.095 -105388.228 158858.857 -105359.2 158907.238 -105330.171 158955.619 -105272.114 158955.619 -105214.057 158907.238 -105156 158858.857 -105126.971 158762.095 -105097.942 158568.571 -105068.914 158326.666 -105068.914 158133.142 -105097.942 158036.38 -105126.971 157988 -105156 157939.619 -105214.057 M 158955.619 -105997.828 158955.619 -105649.485 M 158955.619 -105823.657 157939.619 -105823.657 158084.761 -105765.6 158181.523 -105707.542 158229.904 -105649.485 M 157891.238 -106694.514 159197.523 -106172 M 158036.38 -106868.685 157988 -106897.714 157939.619 -106955.771 157939.619 -107100.914 157988 -107158.971 158036.38 -107188 158133.142 -107217.028 158229.904 -107217.028 158375.047 -107188 158955.619 -106839.657 158955.619 -107217.028 M 158375.047 -107565.371 158326.666 -107507.314 158278.285 -107478.285 158181.523 -107449.257 158133.142 -107449.257 158036.38 -107478.285 157988 -107507.314 157939.619 -107565.371 157939.619 -107681.485 157988 -107739.542 158036.38 -107768.571 158133.142 -107797.6 158181.523 -107797.6 158278.285 -107768.571 158326.666 -107739.542 158375.047 -107681.485 158375.047 -107565.371 158423.428 -107507.314 158471.809 -107478.285 158568.571 -107449.257 158762.095 -107449.257 158858.857 -107478.285 158907.238 -107507.314 158955.619 -107565.371 158955.619 -107681.485 158907.238 -107739.542 158858.857 -107768.571 158762.095 -107797.6 158568.571 -107797.6 158471.809 -107768.571 158423.428 -107739.542 158375.047 -107681.485"
         fill="none"
         stroke-width="101.6"
         id="path6523" />
      <path
         d="M 149550 -95050 148200 -96200 M 149550 -108150 148200 -107000 M 156800 -106500 156800 -104600 M 156800 -96700 156800 -98600 M 156800 -96700 155150 -95050 M 155150 -108150 156800 -106500 M 147703.542 -99098.306 A 2545.5835118 2545.5835118 0 0 0 148200 -96200 M 147702.393 -104104.098 A 2545.5842394 2545.5842394 0 0 1 148200 -107000"
         fill="none"
         stroke-width="100"
         id="path6525" />
    </g>
    <g
       id="BVbtwDY_HCJXS4DV3AxL_bottom_soldermask">
      <path
         d="M 155001 -110501 149799 -110501 149799 -107899 155001 -107899 155001 -110501 155001 -110501"
         id="path6528" />
      <path
         d="M 153902.49 -96646.95 154451.62 -96874.407 154839.913 -97035.243 155677.887 -97595.159 155683.574 -97598.959 156401.041 -98316.426 156401.043 -98316.429 156964.757 -99160.087 156964.757 -99160.088 157353.05 -100097.51 157551 -101092.669 157551 -102107.331 157353.05 -103102.49 157125.593 -103651.62 156964.757 -104039.913 156404.841 -104877.887 156401.041 -104883.574 155683.574 -105601.041 155683.571 -105601.043 154839.913 -106164.757 154451.62 -106325.593 153902.49 -106553.05 152907.331 -106751 151892.669 -106751 150897.51 -106553.05 150348.38 -106325.593 149960.087 -106164.757 149116.429 -105601.043 149116.426 -105601.041 148398.959 -104883.574 148395.159 -104877.887 147835.243 -104039.913 147674.407 -103651.62 147446.95 -103102.49 147249 -102107.331 147249 -101092.669 147446.95 -100097.51 147835.243 -99160.088 147835.243 -99160.087 148398.957 -98316.429 148398.959 -98316.426 149116.426 -97598.959 149122.113 -97595.159 149960.087 -97035.243 150348.38 -96874.407 150897.51 -96646.95 151892.669 -96449 152907.331 -96449 153902.49 -96646.95 153902.49 -96646.95"
         id="path6530" />
      <path
         d="M 155001 -95301 149799 -95301 149799 -92699 155001 -92699 155001 -95301 155001 -95301"
         id="path6532" />
      <path
         d="M 158352.443 -92745.224 158418.627 -92751.742 158531.853 -92786.089 158588.467 -92803.262 158727.087 -92877.357 158744.991 -92886.927 158780.729 -92916.257 158882.186 -92999.519 158965.448 -93100.976 158994.778 -93136.714 158994.779 -93136.716 159078.443 -93293.238 159078.443 -93293.239 159129.963 -93463.078 159147.359 -93639.705 159129.963 -93816.332 159095.616 -93929.558 159078.443 -93986.172 159004.348 -94124.792 158994.778 -94142.696 158965.448 -94178.434 158882.186 -94279.891 158780.729 -94363.153 158744.991 -94392.483 158744.989 -94392.484 158588.467 -94476.148 158531.853 -94493.321 158418.627 -94527.668 158352.442 -94534.187 158286.26 -94540.705 158197.74 -94540.705 158131.557 -94534.186 158065.373 -94527.668 157952.147 -94493.321 157895.533 -94476.148 157739.011 -94392.484 157739.009 -94392.483 157703.271 -94363.153 157601.814 -94279.891 157518.552 -94178.434 157489.222 -94142.696 157479.652 -94124.792 157405.557 -93986.172 157388.384 -93929.558 157354.037 -93816.332 157336.641 -93639.705 157354.037 -93463.078 157405.557 -93293.239 157405.557 -93293.238 157489.221 -93136.716 157489.222 -93136.714 157518.552 -93100.976 157601.814 -92999.519 157703.271 -92916.257 157739.009 -92886.927 157756.913 -92877.357 157895.533 -92803.262 157952.147 -92786.089 158065.373 -92751.742 158131.558 -92745.223 158197.74 -92738.705 158286.26 -92738.705 158352.443 -92745.224 158352.443 -92745.224"
         id="path6534" />
      <path
         d="M 146668.443 -92745.224 146734.627 -92751.742 146847.853 -92786.089 146904.467 -92803.262 147043.087 -92877.357 147060.991 -92886.927 147096.729 -92916.257 147198.186 -92999.519 147281.448 -93100.976 147310.778 -93136.714 147310.779 -93136.716 147394.443 -93293.238 147394.443 -93293.239 147445.963 -93463.078 147463.359 -93639.705 147445.963 -93816.332 147411.616 -93929.558 147394.443 -93986.172 147320.348 -94124.792 147310.778 -94142.696 147281.448 -94178.434 147198.186 -94279.891 147096.729 -94363.153 147060.991 -94392.483 147060.989 -94392.484 146904.467 -94476.148 146847.853 -94493.321 146734.627 -94527.668 146668.442 -94534.187 146602.26 -94540.705 146513.74 -94540.705 146447.557 -94534.186 146381.373 -94527.668 146268.147 -94493.321 146211.533 -94476.148 146055.011 -94392.484 146055.009 -94392.483 146019.271 -94363.153 145917.814 -94279.891 145834.552 -94178.434 145805.222 -94142.696 145795.652 -94124.792 145721.557 -93986.172 145704.384 -93929.558 145670.037 -93816.332 145652.641 -93639.705 145670.037 -93463.078 145721.557 -93293.239 145721.557 -93293.238 145805.221 -93136.716 145805.222 -93136.714 145834.552 -93100.976 145917.814 -92999.519 146019.271 -92916.257 146055.009 -92886.927 146072.913 -92877.357 146211.533 -92803.262 146268.147 -92786.089 146381.373 -92751.742 146447.558 -92745.223 146513.74 -92738.705 146602.26 -92738.705 146668.443 -92745.224 146668.443 -92745.224"
         id="path6536" />
      <path
         d="M 157082.443 -90545.519 157148.627 -90552.037 157261.853 -90586.384 157318.467 -90603.557 157457.087 -90677.652 157474.991 -90687.222 157510.729 -90716.552 157612.186 -90799.814 157695.448 -90901.271 157724.778 -90937.009 157724.779 -90937.011 157808.443 -91093.533 157808.443 -91093.534 157859.963 -91263.373 157877.359 -91440 157859.963 -91616.627 157825.616 -91729.853 157808.443 -91786.467 157734.348 -91925.087 157724.778 -91942.991 157695.448 -91978.729 157612.186 -92080.186 157510.729 -92163.448 157474.991 -92192.778 157474.989 -92192.779 157318.467 -92276.443 157261.853 -92293.616 157148.627 -92327.963 157082.443 -92334.481 157016.26 -92341 156927.74 -92341 156861.557 -92334.481 156795.373 -92327.963 156682.147 -92293.616 156625.533 -92276.443 156469.011 -92192.779 156469.009 -92192.778 156433.271 -92163.448 156331.814 -92080.186 156248.552 -91978.729 156219.222 -91942.991 156209.652 -91925.087 156135.557 -91786.467 156118.384 -91729.853 156084.037 -91616.627 156066.641 -91440 156084.037 -91263.373 156135.557 -91093.534 156135.557 -91093.533 156219.221 -90937.011 156219.222 -90937.009 156248.552 -90901.271 156331.814 -90799.814 156433.271 -90716.552 156469.009 -90687.222 156486.913 -90677.652 156625.533 -90603.557 156682.147 -90586.384 156795.373 -90552.037 156861.558 -90545.518 156927.74 -90539 157016.26 -90539 157082.443 -90545.519 157082.443 -90545.519"
         id="path6538" />
      <path
         d="M 147938.443 -90545.519 148004.627 -90552.037 148117.853 -90586.384 148174.467 -90603.557 148313.087 -90677.652 148330.991 -90687.222 148366.729 -90716.552 148468.186 -90799.814 148551.448 -90901.271 148580.778 -90937.009 148580.779 -90937.011 148664.443 -91093.533 148664.443 -91093.534 148715.963 -91263.373 148733.359 -91440 148715.963 -91616.627 148681.616 -91729.853 148664.443 -91786.467 148590.348 -91925.087 148580.778 -91942.991 148551.448 -91978.729 148468.186 -92080.186 148366.729 -92163.448 148330.991 -92192.778 148330.989 -92192.779 148174.467 -92276.443 148117.853 -92293.616 148004.627 -92327.963 147938.443 -92334.481 147872.26 -92341 147783.74 -92341 147717.557 -92334.481 147651.373 -92327.963 147538.147 -92293.616 147481.533 -92276.443 147325.011 -92192.779 147325.009 -92192.778 147289.271 -92163.448 147187.814 -92080.186 147104.552 -91978.729 147075.222 -91942.991 147065.652 -91925.087 146991.557 -91786.467 146974.384 -91729.853 146940.037 -91616.627 146922.641 -91440 146940.037 -91263.373 146991.557 -91093.534 146991.557 -91093.533 147075.221 -90937.011 147075.222 -90937.009 147104.552 -90901.271 147187.814 -90799.814 147289.271 -90716.552 147325.009 -90687.222 147342.913 -90677.652 147481.533 -90603.557 147538.147 -90586.384 147651.373 -90552.037 147717.557 -90545.519 147783.74 -90539 147872.26 -90539 147938.443 -90545.519 147938.443 -90545.519"
         id="path6540" />
    </g>
    <g
       id="BVbtwDY_HCJXS4DV3AxL_bottom_copper">
      <use
         xlink:href="#l6S8EsBV8NrUww9Z4oVQ_pad-10"
         x="158242"
         y="-93639.705"
         id="use6543" />
      <path
         d="M 158242 -93639.705 158242 -93639.705"
         fill="none"
         stroke-width="1700"
         id="path6545" />
      <use
         xlink:href="#l6S8EsBV8NrUww9Z4oVQ_pad-10"
         x="156972"
         y="-91440"
         id="use6547" />
      <path
         d="M 156972 -91440 156972 -91440"
         fill="none"
         stroke-width="1700"
         id="path6549" />
      <use
         xlink:href="#l6S8EsBV8NrUww9Z4oVQ_pad-10"
         x="146558"
         y="-93639.705"
         id="use6551" />
      <path
         d="M 146558 -93639.705 146558 -93639.705"
         fill="none"
         stroke-width="1700"
         id="path6553" />
      <use
         xlink:href="#l6S8EsBV8NrUww9Z4oVQ_pad-10"
         x="147828"
         y="-91440"
         id="use6555" />
      <path
         d="M 147828 -91440 147828 -91440"
         fill="none"
         stroke-width="1700"
         id="path6557" />
      <use
         xlink:href="#l6S8EsBV8NrUww9Z4oVQ_pad-12"
         x="152400"
         y="-109200"
         id="use6559" />
      <use
         xlink:href="#l6S8EsBV8NrUww9Z4oVQ_pad-12"
         x="152400"
         y="-94000"
         id="use6561" />
      <use
         xlink:href="#l6S8EsBV8NrUww9Z4oVQ_pad-13"
         x="152400"
         y="-101600"
         id="use6563" />
      <use
         xlink:href="#l6S8EsBV8NrUww9Z4oVQ_pad-14"
         x="156083"
         y="-96012"
         id="use6565" />
      <use
         xlink:href="#l6S8EsBV8NrUww9Z4oVQ_pad-14"
         x="156464"
         y="-108204"
         id="use6567" />
      <use
         xlink:href="#l6S8EsBV8NrUww9Z4oVQ_pad-14"
         x="156972"
         y="-106172"
         id="use6569" />
      <use
         xlink:href="#l6S8EsBV8NrUww9Z4oVQ_pad-14"
         x="147828"
         y="-106172"
         id="use6571" />
      <use
         xlink:href="#l6S8EsBV8NrUww9Z4oVQ_pad-14"
         x="146558"
         y="-99695"
         id="use6573" />
      <path
         d="M 155468 -94000 152400 -94000 M 156083 -94615 155468 -94000 M 156083 -96012 156083 -94615 M 155200 -109200 152400 -109200 M 155468 -109200 155200 -109200 M 156464 -108204 155468 -109200 M 151093 -101600 152400 -101600 M 153670 -101600 152400 -101600"
         fill="none"
         stroke-width="250"
         id="path6575" />
      <path
         d="M 148227.999 -105772.001 147828 -106172 M 152400 -101600 148227.999 -105772.001"
         fill="none"
         stroke-width="381"
         id="path6577" />
      <path
         d="M 147828 -91440 156972 -91440 M 146558 -99695 146558 -93639.705 M 147574 -91440 147828 -91440 M 146558 -92456 147574 -91440 M 146558 -93639.705 146558 -92456 M 157226 -91440 156972 -91440 M 158242 -92456 157226 -91440 M 158242 -93639.705 158242 -92456"
         fill="none"
         stroke-width="250"
         id="path6579" />
      <path
         d="M 149392.191 -92292.191 149251.843 -92502.235 149202.56 -92750 149202.56 -95250 149251.843 -95497.765 149392.191 -95707.809 149602.235 -95848.157 149850 -95897.44 151229.083 -95897.44 149237.2 -96681.843 149066.567 -96795.857 148468.354 -97488.749 152400 -101420.395 156331.646 -97488.749 155950.259 -97047 156288.874 -97047 156669.28 -96889.431 156960.431 -96598.28 157118 -96217.874 157118 -95806.126 156960.431 -95425.72 156843 -95308.289 156843 -94689.846 156857.888 -94614.999 156843 -94540.152 156843 -94540.148 156798.904 -94318.463 156711.487 -94187.634 156673.329 -94130.526 156673.327 -94130.524 156630.929 -94067.071 156567.475 -94024.672 156058.33 -93515.529 156015.929 -93452.071 155764.537 -93284.096 155597.44 -93250.858 155597.44 -92750 155548.157 -92502.235 155407.809 -92292.191 155269.836 -92200 155693.822 -92200 155901.375 -92510.625 156392.582 -92838.839 156825.744 -92925 156933.557 -92925 156843.161 -93060.287 156727.908 -93639.705 156843.161 -94219.123 157171.375 -94710.33 157662.582 -95038.544 158095.744 -95124.705 158388.256 -95124.705 158821.418 -95038.544 159310.001 -94712.083 159310 -106512.391 156896.484 -111339.425 154645.91 -113590 150154.091 -113590 147903.518 -111339.428 145490 -106512.393 145490 -105711.251 148468.354 -105711.251 149066.567 -106404.143 151132.245 -107302.56 149850 -107302.56 149602.235 -107351.843 149392.191 -107492.191 149251.843 -107702.235 149202.56 -107950 149202.56 -110450 149251.843 -110697.765 149392.191 -110907.809 149602.235 -111048.157 149850 -111097.44 154950 -111097.44 155197.765 -111048.157 155407.809 -110907.809 155548.157 -110697.765 155597.44 -110450 155597.44 -109949.142 155764.537 -109915.904 156015.929 -109747.929 156058.331 -109684.47 156503.802 -109239 156669.874 -109239 157050.28 -109081.431 157341.431 -108790.28 157499 -108409.874 157499 -107998.126 157341.431 -107617.72 157050.28 -107326.569 156669.874 -107169 156258.126 -107169 155877.72 -107326.569 155586.569 -107617.72 155549.262 -107707.788 155548.157 -107702.235 155407.809 -107492.191 155197.765 -107351.843 154950 -107302.56 153570.917 -107302.56 155562.8 -106518.157 155733.433 -106404.143 156331.646 -105711.251 152400 -101779.605 148468.354 -105711.251 145490 -105711.251 145490 -94712.084 145798.001 -94917.883 145798 -98991.289 145680.569 -99108.72 145523 -99489.126 145523 -99900.874 145680.569 -100281.28 145971.72 -100572.431 146352.126 -100730 146679.386 -100730 146645.865 -102639.949 147481.843 -104762.8 147595.857 -104933.433 148288.749 -105531.646 152220.395 -101600 152579.605 -101600 156511.251 -105531.646 157204.143 -104933.433 158114.099 -102841.224 158154.135 -100560.051 157318.157 -98437.2 157204.143 -98266.567 156511.251 -97668.354 152579.605 -101600 152220.395 -101600 148288.749 -97668.354 147595.857 -98266.567 147318 -98905.427 147318 -94917.883 147628.625 -94710.33 147956.839 -94219.123 148072.092 -93639.705 147956.839 -93060.287 147866.443 -92925 147974.256 -92925 148407.418 -92838.839 148898.625 -92510.625 149106.178 -92200 149530.164 -92200 149392.191 -92292.191 149392.191 -92292.191"
         id="path6581" />
      <path
         d="M 149392.191 -92292.191 149251.843 -92502.235 149202.56 -92750 149202.56 -95250 149251.843 -95497.765 149392.191 -95707.809 149602.235 -95848.157 149850 -95897.44 151229.083 -95897.44 149237.2 -96681.843 149066.567 -96795.857 148468.354 -97488.749 152400 -101420.395 156331.646 -97488.749 155950.259 -97047 156288.874 -97047 156669.28 -96889.431 156960.431 -96598.28 157118 -96217.874 157118 -95806.126 156960.431 -95425.72 156843 -95308.289 156843 -94689.846 156857.888 -94614.999 156843 -94540.152 156843 -94540.148 156798.904 -94318.463 156711.487 -94187.634 156673.329 -94130.526 156673.327 -94130.524 156630.929 -94067.071 156567.475 -94024.672 156058.33 -93515.529 156015.929 -93452.071 155764.537 -93284.096 155597.44 -93250.858 155597.44 -92750 155548.157 -92502.235 155407.809 -92292.191 155269.836 -92200 155693.822 -92200 155901.375 -92510.625 156392.582 -92838.839 156825.744 -92925 156933.557 -92925 156843.161 -93060.287 156727.908 -93639.705 156843.161 -94219.123 157171.375 -94710.33 157662.582 -95038.544 158095.744 -95124.705 158388.256 -95124.705 158821.418 -95038.544 159310.001 -94712.083 159310 -106512.391 156896.484 -111339.425 154645.91 -113590 150154.091 -113590 147903.518 -111339.428 145490 -106512.393 145490 -105711.251 148468.354 -105711.251 149066.567 -106404.143 151132.245 -107302.56 149850 -107302.56 149602.235 -107351.843 149392.191 -107492.191 149251.843 -107702.235 149202.56 -107950 149202.56 -110450 149251.843 -110697.765 149392.191 -110907.809 149602.235 -111048.157 149850 -111097.44 154950 -111097.44 155197.765 -111048.157 155407.809 -110907.809 155548.157 -110697.765 155597.44 -110450 155597.44 -109949.142 155764.537 -109915.904 156015.929 -109747.929 156058.331 -109684.47 156503.802 -109239 156669.874 -109239 157050.28 -109081.431 157341.431 -108790.28 157499 -108409.874 157499 -107998.126 157341.431 -107617.72 157050.28 -107326.569 156669.874 -107169 156258.126 -107169 155877.72 -107326.569 155586.569 -107617.72 155549.262 -107707.788 155548.157 -107702.235 155407.809 -107492.191 155197.765 -107351.843 154950 -107302.56 153570.917 -107302.56 155562.8 -106518.157 155733.433 -106404.143 156331.646 -105711.251 152400 -101779.605 148468.354 -105711.251 145490 -105711.251 145490 -94712.084 145798.001 -94917.883 145798 -98991.289 145680.569 -99108.72 145523 -99489.126 145523 -99900.874 145680.569 -100281.28 145971.72 -100572.431 146352.126 -100730 146679.386 -100730 146645.865 -102639.949 147481.843 -104762.8 147595.857 -104933.433 148288.749 -105531.646 152220.395 -101600 152579.605 -101600 156511.251 -105531.646 157204.143 -104933.433 158114.099 -102841.224 158154.135 -100560.051 157318.157 -98437.2 157204.143 -98266.567 156511.251 -97668.354 152579.605 -101600 152220.395 -101600 148288.749 -97668.354 147595.857 -98266.567 147318 -98905.427 147318 -94917.883 147628.625 -94710.33 147956.839 -94219.123 148072.092 -93639.705 147956.839 -93060.287 147866.443 -92925 147974.256 -92925 148407.418 -92838.839 148898.625 -92510.625 149106.178 -92200 149530.164 -92200 149392.191 -92292.191"
         fill="none"
         stroke-width="254"
         id="path6583" />
    </g>
    <g
       id="BVbtwDY_HCJXS4DV3AxL_bottom_drill1"
       transform="scale(25.4,25.4)">
      <use
         xlink:href="#EgbubYCeWvsXBx5IvUOB_pad-1"
         x="5770"
         y="-3925"
         id="use6586" />
      <use
         xlink:href="#EgbubYCeWvsXBx5IvUOB_pad-1"
         x="5820"
         y="-4180"
         id="use6588" />
      <use
         xlink:href="#EgbubYCeWvsXBx5IvUOB_pad-1"
         x="6145"
         y="-3780"
         id="use6590" />
      <use
         xlink:href="#EgbubYCeWvsXBx5IvUOB_pad-1"
         x="6160"
         y="-4260"
         id="use6592" />
      <use
         xlink:href="#EgbubYCeWvsXBx5IvUOB_pad-1"
         x="6180"
         y="-4180"
         id="use6594" />
      <use
         xlink:href="#EgbubYCeWvsXBx5IvUOB_pad-2"
         x="5770"
         y="-3686.6"
         id="use6596" />
      <use
         xlink:href="#EgbubYCeWvsXBx5IvUOB_pad-2"
         x="5820"
         y="-3600"
         id="use6598" />
      <use
         xlink:href="#EgbubYCeWvsXBx5IvUOB_pad-2"
         x="6180"
         y="-3600"
         id="use6600" />
      <use
         xlink:href="#EgbubYCeWvsXBx5IvUOB_pad-2"
         x="6230"
         y="-3686.6"
         id="use6602" />
    </g>
    <clipPath
       id="BVbtwDY_HCJXS4DV3AxL_bottom_outline">
      <path
         d="M 144780 -92456 146304 -89916 158496 -89916 160020 -92456 160020 -106680 157480 -111760 154940 -114300 149860 -114300 147320 -111760 144780 -106680 144780 -92456"
         fill="none"
         stroke-width="150"
         id="path6605" />
    </clipPath>
    <mask
       id="BVbtwDY_HCJXS4DV3AxL_bottom_mech-mask">
      <g
         fill="#000"
         stroke="#000"
         id="g6608">
        <rect
           x="144780"
           y="-114300"
           width="15240"
           height="24384"
           fill="#fff"
           id="rect6610" />
        <use
           xlink:href="#BVbtwDY_HCJXS4DV3AxL_bottom_drill1"
           id="use6612" />
      </g>
    </mask>
    <mask
       id="BVbtwDY_HCJXS4DV3AxL_bottom_cf-mask">
      <g
         fill="#fff"
         stroke="#fff"
         id="g6615">
        <use
           xlink:href="#BVbtwDY_HCJXS4DV3AxL_bottom_soldermask"
           id="use6617" />
      </g>
    </mask>
    <mask
       id="BVbtwDY_HCJXS4DV3AxL_bottom_sm-mask">
      <g
         fill="#000"
         stroke="#000"
         id="g6620">
        <rect
           x="144780"
           y="-114300"
           width="15240"
           height="24384"
           fill="#fff"
           id="rect6622" />
        <use
           xlink:href="#BVbtwDY_HCJXS4DV3AxL_bottom_soldermask"
           id="use6624" />
      </g>
    </mask>
  </defs>
  <g
     inkscape:groupmode="layer"
     id="layer4"
     inkscape:label="background"
     sodipodi:insensitive="true">
    <rect
       style="opacity:1;fill:#222222;fill-opacity:1;stroke:none;stroke-width:0.89999998;stroke-linejoin:miter;stroke-miterlimit:4;stroke-dasharray:none;stroke-opacity:1"
       id="rect6656"
       width="15240"
       height="24384"
       x="144780"
       y="-114300" />
  </g>
  <g
     inkscape:groupmode="layer"
     id="layer3"
     inkscape:label="image"
     sodipodi:insensitive="true">
    <g
       transform="matrix(1.0000008,0,0,-1.0000008,-5.3934756e-4,-204216)"
       id="g6626">
      <g
         mask="url(#BVbtwDY_HCJXS4DV3AxL_bottom_mech-mask)"
         clip-path="url(#BVbtwDY_HCJXS4DV3AxL_bottom_outline)"
         transform="matrix(-1,0,0,1,304800,0)"
         id="g6628">
        <rect
           x="144780"
           y="-114300"
           width="15240"
           height="24384"
           class="BVbtwDY_HCJXS4DV3AxL_fr4"
           id="rect6630"
           style="color:#666666;fill:currentColor" />
        <use
           xlink:href="#BVbtwDY_HCJXS4DV3AxL_bottom_copper"
           class="BVbtwDY_HCJXS4DV3AxL_cu"
           id="use6632"
           style="color:#cccccc;fill:currentColor;stroke:currentColor"
           x="0"
           y="0"
           width="100%"
           height="100%" />
        <use
           xlink:href="#BVbtwDY_HCJXS4DV3AxL_bottom_copper"
           class="BVbtwDY_HCJXS4DV3AxL_cf"
           mask="url(#BVbtwDY_HCJXS4DV3AxL_bottom_cf-mask)"
           id="use6634"
           style="color:#cc9933;fill:currentColor;stroke:currentColor"
           x="0"
           y="0"
           width="100%"
           height="100%" />
        <g
           mask="url(#BVbtwDY_HCJXS4DV3AxL_bottom_sm-mask)"
           id="g6636">
          <rect
             x="144780"
             y="-114300"
             width="15240"
             height="24384"
             class="BVbtwDY_HCJXS4DV3AxL_sm"
             id="rect6638"
             style="color:#4b0082;opacity:0.75;fill:currentColor" />
          <use
             xlink:href="#BVbtwDY_HCJXS4DV3AxL_bottom_silkscreen"
             class="BVbtwDY_HCJXS4DV3AxL_ss"
             id="use6640"
             style="color:#ffffff;fill:currentColor;stroke:currentColor"
             x="0"
             y="0"
             width="100%"
             height="100%" />
        </g>
      </g>
    </g>
  </g>
</svg>
