<?xml version="1.0" encoding="UTF-8" standalone="no"?>
<svg
   xmlns:dc="http://purl.org/dc/elements/1.1/"
   xmlns:cc="http://creativecommons.org/ns#"
   xmlns:rdf="http://www.w3.org/1999/02/22-rdf-syntax-ns#"
   xmlns:svg="http://www.w3.org/2000/svg"
   xmlns="http://www.w3.org/2000/svg"
   xmlns:xlink="http://www.w3.org/1999/xlink"
   xmlns:sodipodi="http://sodipodi.sourceforge.net/DTD/sodipodi-0.dtd"
   xmlns:inkscape="http://www.inkscape.org/namespaces/inkscape"
   version="1.1"
   stroke-linecap="round"
   stroke-linejoin="round"
   stroke-width="0"
   fill-rule="evenodd"
   clip-rule="evenodd"
   id="BVbtwDY_HCJXS4DV3AxL_top"
   viewBox="144780 -114300 15240 24384"
   width="15.24mm"
   height="24.384mm"
   class="w-100 h-100"
   inkscape:version="0.91 r13725"
   sodipodi:docname="top.svg">
  <metadata
     id="metadata5642">
    <rdf:RDF>
      <cc:Work
         rdf:about="">
        <dc:format>image/svg+xml</dc:format>
        <dc:type
           rdf:resource="http://purl.org/dc/dcmitype/StillImage" />
      </cc:Work>
    </rdf:RDF>
  </metadata>
  <sodipodi:namedview
     pagecolor="#ffffff"
     bordercolor="#666666"
     borderopacity="1"
     objecttolerance="10"
     gridtolerance="10"
     guidetolerance="10"
     inkscape:pageopacity="0"
     inkscape:pageshadow="2"
     inkscape:window-width="1855"
     inkscape:window-height="1056"
     id="namedview5640"
     showgrid="false"
     inkscape:zoom="10.636574"
     inkscape:cx="27"
     inkscape:cy="43.200001"
     inkscape:window-x="65"
     inkscape:window-y="24"
     inkscape:window-maximized="1"
     inkscape:current-layer="layer1" />
  <defs
     id="defs5382">
    <style
       id="style5384">.BVbtwDY_HCJXS4DV3AxL_fr4 {color: #666666;}
.BVbtwDY_HCJXS4DV3AxL_cu {color: #cccccc;}
.BVbtwDY_HCJXS4DV3AxL_cf {color: #cc9933;}
.BVbtwDY_HCJXS4DV3AxL_sm {color: #4b0082; opacity: 0.75;}
.BVbtwDY_HCJXS4DV3AxL_ss {color: #ffffff;}
.BVbtwDY_HCJXS4DV3AxL_sp {color: #999999;}
.BVbtwDY_HCJXS4DV3AxL_out {color: #000000;}</style>
    <circle
       cx="0"
       cy="0"
       r="850"
       id="Q6PM2-dhLYukXWX5Lhej_pad-10" />
    <circle
       cx="0"
       cy="0"
       r="575"
       id="Q6PM2-dhLYukXWX5Lhej_pad-13" />
    <rect
       x="-875"
       y="-275"
       width="1750"
       height="550"
       id="Q6PM2-dhLYukXWX5Lhej_pad-14" />
    <circle
       cx="0"
       cy="0"
       r="400"
       id="Q6PM2-dhLYukXWX5Lhej_pad-15" />
    <circle
       cx="0"
       cy="0"
       r="7.85"
       id="EgbubYCeWvsXBx5IvUOB_pad-1" />
    <circle
       cx="0"
       cy="0"
       r="19.7"
       id="EgbubYCeWvsXBx5IvUOB_pad-2" />
    <g
       id="BVbtwDY_HCJXS4DV3AxL_top_copper">
      <use
         xlink:href="#Q6PM2-dhLYukXWX5Lhej_pad-10"
         x="158242"
         y="-93639.705"
         id="use5393" />
      <path
         d="M 158242 -93639.705 158242 -93639.705"
         fill="none"
         stroke-width="1700"
         id="path5395" />
      <use
         xlink:href="#Q6PM2-dhLYukXWX5Lhej_pad-10"
         x="156972"
         y="-91440"
         id="use5397" />
      <path
         d="M 156972 -91440 156972 -91440"
         fill="none"
         stroke-width="1700"
         id="path5399" />
      <use
         xlink:href="#Q6PM2-dhLYukXWX5Lhej_pad-10"
         x="146558"
         y="-93639.705"
         id="use5401" />
      <path
         d="M 146558 -93639.705 146558 -93639.705"
         fill="none"
         stroke-width="1700"
         id="path5403" />
      <use
         xlink:href="#Q6PM2-dhLYukXWX5Lhej_pad-10"
         x="147828"
         y="-91440"
         id="use5405" />
      <path
         d="M 147828 -91440 147828 -91440"
         fill="none"
         stroke-width="1700"
         id="path5407" />
      <path
         d="M 155414.505 -105861.204 155438.773 -105864.804 155462.572 -105870.765 155485.671 -105879.03 155507.85 -105889.52 155528.893 -105902.132 155548.599 -105916.747 155566.777 -105933.223 155583.253 -105951.401 155597.868 -105971.107 155610.48 -105992.15 155620.97 -106014.329 155629.235 -106037.428 155635.196 -106061.227 155638.796 -106085.495 155640 -106109.999 155640 -106760.001 155638.796 -106784.505 155635.196 -106808.773 155629.235 -106832.572 155620.97 -106855.671 155610.48 -106877.85 155597.868 -106898.893 155583.253 -106918.599 155566.777 -106936.777 155548.599 -106953.253 155528.893 -106967.868 155507.85 -106980.48 155485.671 -106990.97 155462.572 -106999.235 155438.773 -107005.196 155414.505 -107008.796 155390.001 -107010 154489.999 -107010 154465.495 -107008.796 154441.227 -107005.196 154417.428 -106999.235 154394.329 -106990.97 154372.15 -106980.48 154351.107 -106967.868 154331.401 -106953.253 154313.223 -106936.777 154296.747 -106918.599 154282.132 -106898.893 154269.52 -106877.85 154259.03 -106855.671 154250.765 -106832.572 154244.804 -106808.773 154241.204 -106784.505 154240 -106760.001 154240 -106109.999 154241.204 -106085.495 154244.804 -106061.227 154250.765 -106037.428 154259.03 -106014.329 154269.52 -105992.15 154282.132 -105971.107 154296.747 -105951.401 154313.223 -105933.223 154331.401 -105916.747 154351.107 -105902.132 154372.15 -105889.52 154394.329 -105879.03 154417.428 -105870.765 154441.227 -105864.804 154465.495 -105861.204 154489.999 -105860 155390.001 -105860 155414.505 -105861.204 155414.505 -105861.204"
         id="path5409" />
      <use
         xlink:href="#Q6PM2-dhLYukXWX5Lhej_pad-13"
         x="154940"
         y="-106435"
         id="use5411" />
      <path
         d="M 155414.505 -103811.204 155438.773 -103814.804 155462.572 -103820.765 155485.671 -103829.03 155507.85 -103839.52 155528.893 -103852.132 155548.599 -103866.747 155566.777 -103883.223 155583.253 -103901.401 155597.868 -103921.107 155610.48 -103942.15 155620.97 -103964.329 155629.235 -103987.428 155635.196 -104011.227 155638.796 -104035.495 155640 -104059.999 155640 -104710.001 155638.796 -104734.505 155635.196 -104758.773 155629.235 -104782.572 155620.97 -104805.671 155610.48 -104827.85 155597.868 -104848.893 155583.253 -104868.599 155566.777 -104886.777 155548.599 -104903.253 155528.893 -104917.868 155507.85 -104930.48 155485.671 -104940.97 155462.572 -104949.235 155438.773 -104955.196 155414.505 -104958.796 155390.001 -104960 154489.999 -104960 154465.495 -104958.796 154441.227 -104955.196 154417.428 -104949.235 154394.329 -104940.97 154372.15 -104930.48 154351.107 -104917.868 154331.401 -104903.253 154313.223 -104886.777 154296.747 -104868.599 154282.132 -104848.893 154269.52 -104827.85 154259.03 -104805.671 154250.765 -104782.572 154244.804 -104758.773 154241.204 -104734.505 154240 -104710.001 154240 -104059.999 154241.204 -104035.495 154244.804 -104011.227 154250.765 -103987.428 154259.03 -103964.329 154269.52 -103942.15 154282.132 -103921.107 154296.747 -103901.401 154313.223 -103883.223 154331.401 -103866.747 154351.107 -103852.132 154372.15 -103839.52 154394.329 -103829.03 154417.428 -103820.765 154441.227 -103814.804 154465.495 -103811.204 154489.999 -103810 155390.001 -103810 155414.505 -103811.204 155414.505 -103811.204"
         id="path5413" />
      <use
         xlink:href="#Q6PM2-dhLYukXWX5Lhej_pad-13"
         x="154940"
         y="-104385"
         id="use5415" />
      <path
         d="M 151234.505 -93281.204 151258.773 -93284.804 151282.572 -93290.765 151305.671 -93299.03 151327.85 -93309.52 151348.893 -93322.132 151368.599 -93336.747 151386.777 -93353.223 151403.253 -93371.401 151417.868 -93391.107 151430.48 -93412.15 151440.97 -93434.329 151449.235 -93457.428 151455.196 -93481.227 151458.796 -93505.495 151460 -93529.999 151460 -94430.001 151458.796 -94454.505 151455.196 -94478.773 151449.235 -94502.572 151440.97 -94525.671 151430.48 -94547.85 151417.868 -94568.893 151403.253 -94588.599 151386.777 -94606.777 151368.599 -94623.253 151348.893 -94637.868 151327.85 -94650.48 151305.671 -94660.97 151282.572 -94669.235 151258.773 -94675.196 151234.505 -94678.796 151210.001 -94680 150559.999 -94680 150535.495 -94678.796 150511.227 -94675.196 150487.428 -94669.235 150464.329 -94660.97 150442.15 -94650.48 150421.107 -94637.868 150401.401 -94623.253 150383.223 -94606.777 150366.747 -94588.599 150352.132 -94568.893 150339.52 -94547.85 150329.03 -94525.671 150320.765 -94502.572 150314.804 -94478.773 150311.204 -94454.505 150310 -94430.001 150310 -93529.999 150311.204 -93505.495 150314.804 -93481.227 150320.765 -93457.428 150329.03 -93434.329 150339.52 -93412.15 150352.132 -93391.107 150366.747 -93371.401 150383.223 -93353.223 150401.401 -93336.747 150421.107 -93322.132 150442.15 -93309.52 150464.329 -93299.03 150487.428 -93290.765 150511.227 -93284.804 150535.495 -93281.204 150559.999 -93280 151210.001 -93280 151234.505 -93281.204 151234.505 -93281.204"
         id="path5417" />
      <use
         xlink:href="#Q6PM2-dhLYukXWX5Lhej_pad-13"
         x="150885"
         y="-93980"
         id="use5419" />
      <path
         d="M 149184.505 -93281.204 149208.773 -93284.804 149232.572 -93290.765 149255.671 -93299.03 149277.85 -93309.52 149298.893 -93322.132 149318.599 -93336.747 149336.777 -93353.223 149353.253 -93371.401 149367.868 -93391.107 149380.48 -93412.15 149390.97 -93434.329 149399.235 -93457.428 149405.196 -93481.227 149408.796 -93505.495 149410 -93529.999 149410 -94430.001 149408.796 -94454.505 149405.196 -94478.773 149399.235 -94502.572 149390.97 -94525.671 149380.48 -94547.85 149367.868 -94568.893 149353.253 -94588.599 149336.777 -94606.777 149318.599 -94623.253 149298.893 -94637.868 149277.85 -94650.48 149255.671 -94660.97 149232.572 -94669.235 149208.773 -94675.196 149184.505 -94678.796 149160.001 -94680 148509.999 -94680 148485.495 -94678.796 148461.227 -94675.196 148437.428 -94669.235 148414.329 -94660.97 148392.15 -94650.48 148371.107 -94637.868 148351.401 -94623.253 148333.223 -94606.777 148316.747 -94588.599 148302.132 -94568.893 148289.52 -94547.85 148279.03 -94525.671 148270.765 -94502.572 148264.804 -94478.773 148261.204 -94454.505 148260 -94430.001 148260 -93529.999 148261.204 -93505.495 148264.804 -93481.227 148270.765 -93457.428 148279.03 -93434.329 148289.52 -93412.15 148302.132 -93391.107 148316.747 -93371.401 148333.223 -93353.223 148351.401 -93336.747 148371.107 -93322.132 148392.15 -93309.52 148414.329 -93299.03 148437.428 -93290.765 148461.227 -93284.804 148485.495 -93281.204 148509.999 -93280 149160.001 -93280 149184.505 -93281.204 149184.505 -93281.204"
         id="path5421" />
      <use
         xlink:href="#Q6PM2-dhLYukXWX5Lhej_pad-13"
         x="148835"
         y="-93980"
         id="use5423" />
      <path
         d="M 152874.505 -105861.204 152898.773 -105864.804 152922.572 -105870.765 152945.671 -105879.03 152967.85 -105889.52 152988.893 -105902.132 153008.599 -105916.747 153026.777 -105933.223 153043.253 -105951.401 153057.868 -105971.107 153070.48 -105992.15 153080.97 -106014.329 153089.235 -106037.428 153095.196 -106061.227 153098.796 -106085.495 153100 -106109.999 153100 -106760.001 153098.796 -106784.505 153095.196 -106808.773 153089.235 -106832.572 153080.97 -106855.671 153070.48 -106877.85 153057.868 -106898.893 153043.253 -106918.599 153026.777 -106936.777 153008.599 -106953.253 152988.893 -106967.868 152967.85 -106980.48 152945.671 -106990.97 152922.572 -106999.235 152898.773 -107005.196 152874.505 -107008.796 152850.001 -107010 151949.999 -107010 151925.495 -107008.796 151901.227 -107005.196 151877.428 -106999.235 151854.329 -106990.97 151832.15 -106980.48 151811.107 -106967.868 151791.401 -106953.253 151773.223 -106936.777 151756.747 -106918.599 151742.132 -106898.893 151729.52 -106877.85 151719.03 -106855.671 151710.765 -106832.572 151704.804 -106808.773 151701.204 -106784.505 151700 -106760.001 151700 -106109.999 151701.204 -106085.495 151704.804 -106061.227 151710.765 -106037.428 151719.03 -106014.329 151729.52 -105992.15 151742.132 -105971.107 151756.747 -105951.401 151773.223 -105933.223 151791.401 -105916.747 151811.107 -105902.132 151832.15 -105889.52 151854.329 -105879.03 151877.428 -105870.765 151901.227 -105864.804 151925.495 -105861.204 151949.999 -105860 152850.001 -105860 152874.505 -105861.204 152874.505 -105861.204"
         id="path5425" />
      <use
         xlink:href="#Q6PM2-dhLYukXWX5Lhej_pad-13"
         x="152400"
         y="-106435"
         id="use5427" />
      <path
         d="M 152874.505 -103811.204 152898.773 -103814.804 152922.572 -103820.765 152945.671 -103829.03 152967.85 -103839.52 152988.893 -103852.132 153008.599 -103866.747 153026.777 -103883.223 153043.253 -103901.401 153057.868 -103921.107 153070.48 -103942.15 153080.97 -103964.329 153089.235 -103987.428 153095.196 -104011.227 153098.796 -104035.495 153100 -104059.999 153100 -104710.001 153098.796 -104734.505 153095.196 -104758.773 153089.235 -104782.572 153080.97 -104805.671 153070.48 -104827.85 153057.868 -104848.893 153043.253 -104868.599 153026.777 -104886.777 153008.599 -104903.253 152988.893 -104917.868 152967.85 -104930.48 152945.671 -104940.97 152922.572 -104949.235 152898.773 -104955.196 152874.505 -104958.796 152850.001 -104960 151949.999 -104960 151925.495 -104958.796 151901.227 -104955.196 151877.428 -104949.235 151854.329 -104940.97 151832.15 -104930.48 151811.107 -104917.868 151791.401 -104903.253 151773.223 -104886.777 151756.747 -104868.599 151742.132 -104848.893 151729.52 -104827.85 151719.03 -104805.671 151710.765 -104782.572 151704.804 -104758.773 151701.204 -104734.505 151700 -104710.001 151700 -104059.999 151701.204 -104035.495 151704.804 -104011.227 151710.765 -103987.428 151719.03 -103964.329 151729.52 -103942.15 151742.132 -103921.107 151756.747 -103901.401 151773.223 -103883.223 151791.401 -103866.747 151811.107 -103852.132 151832.15 -103839.52 151854.329 -103829.03 151877.428 -103820.765 151901.227 -103814.804 151925.495 -103811.204 151949.999 -103810 152850.001 -103810 152874.505 -103811.204 152874.505 -103811.204"
         id="path5429" />
      <use
         xlink:href="#Q6PM2-dhLYukXWX5Lhej_pad-13"
         x="152400"
         y="-104385"
         id="use5431" />
      <path
         d="M 150334.505 -110941.204 150358.773 -110944.804 150382.572 -110950.765 150405.671 -110959.03 150427.85 -110969.52 150448.893 -110982.132 150468.599 -110996.747 150486.777 -111013.223 150503.253 -111031.401 150517.868 -111051.107 150530.48 -111072.15 150540.97 -111094.329 150549.235 -111117.428 150555.196 -111141.227 150558.796 -111165.495 150560 -111189.999 150560 -111840.001 150558.796 -111864.505 150555.196 -111888.773 150549.235 -111912.572 150540.97 -111935.671 150530.48 -111957.85 150517.868 -111978.893 150503.253 -111998.599 150486.777 -112016.777 150468.599 -112033.253 150448.893 -112047.868 150427.85 -112060.48 150405.671 -112070.97 150382.572 -112079.235 150358.773 -112085.196 150334.505 -112088.796 150310.001 -112090 149409.999 -112090 149385.495 -112088.796 149361.227 -112085.196 149337.428 -112079.235 149314.329 -112070.97 149292.15 -112060.48 149271.107 -112047.868 149251.401 -112033.253 149233.223 -112016.777 149216.747 -111998.599 149202.132 -111978.893 149189.52 -111957.85 149179.03 -111935.671 149170.765 -111912.572 149164.804 -111888.773 149161.204 -111864.505 149160 -111840.001 149160 -111189.999 149161.204 -111165.495 149164.804 -111141.227 149170.765 -111117.428 149179.03 -111094.329 149189.52 -111072.15 149202.132 -111051.107 149216.747 -111031.401 149233.223 -111013.223 149251.401 -110996.747 149271.107 -110982.132 149292.15 -110969.52 149314.329 -110959.03 149337.428 -110950.765 149361.227 -110944.804 149385.495 -110941.204 149409.999 -110940 150310.001 -110940 150334.505 -110941.204 150334.505 -110941.204"
         id="path5433" />
      <use
         xlink:href="#Q6PM2-dhLYukXWX5Lhej_pad-13"
         x="149860"
         y="-111515"
         id="use5435" />
      <path
         d="M 150334.505 -108891.204 150358.773 -108894.804 150382.572 -108900.765 150405.671 -108909.03 150427.85 -108919.52 150448.893 -108932.132 150468.599 -108946.747 150486.777 -108963.223 150503.253 -108981.401 150517.868 -109001.107 150530.48 -109022.15 150540.97 -109044.329 150549.235 -109067.428 150555.196 -109091.227 150558.796 -109115.495 150560 -109139.999 150560 -109790.001 150558.796 -109814.505 150555.196 -109838.773 150549.235 -109862.572 150540.97 -109885.671 150530.48 -109907.85 150517.868 -109928.893 150503.253 -109948.599 150486.777 -109966.777 150468.599 -109983.253 150448.893 -109997.868 150427.85 -110010.48 150405.671 -110020.97 150382.572 -110029.235 150358.773 -110035.196 150334.505 -110038.796 150310.001 -110040 149409.999 -110040 149385.495 -110038.796 149361.227 -110035.196 149337.428 -110029.235 149314.329 -110020.97 149292.15 -110010.48 149271.107 -109997.868 149251.401 -109983.253 149233.223 -109966.777 149216.747 -109948.599 149202.132 -109928.893 149189.52 -109907.85 149179.03 -109885.671 149170.765 -109862.572 149164.804 -109838.773 149161.204 -109814.505 149160 -109790.001 149160 -109139.999 149161.204 -109115.495 149164.804 -109091.227 149170.765 -109067.428 149179.03 -109044.329 149189.52 -109022.15 149202.132 -109001.107 149216.747 -108981.401 149233.223 -108963.223 149251.401 -108946.747 149271.107 -108932.132 149292.15 -108919.52 149314.329 -108909.03 149337.428 -108900.765 149361.227 -108894.804 149385.495 -108891.204 149409.999 -108890 150310.001 -108890 150334.505 -108891.204 150334.505 -108891.204"
         id="path5437" />
      <use
         xlink:href="#Q6PM2-dhLYukXWX5Lhej_pad-13"
         x="149860"
         y="-109465"
         id="use5439" />
      <path
         d="M 150334.505 -103811.204 150358.773 -103814.804 150382.572 -103820.765 150405.671 -103829.03 150427.85 -103839.52 150448.893 -103852.132 150468.599 -103866.747 150486.777 -103883.223 150503.253 -103901.401 150517.868 -103921.107 150530.48 -103942.15 150540.97 -103964.329 150549.235 -103987.428 150555.196 -104011.227 150558.796 -104035.495 150560 -104059.999 150560 -104710.001 150558.796 -104734.505 150555.196 -104758.773 150549.235 -104782.572 150540.97 -104805.671 150530.48 -104827.85 150517.868 -104848.893 150503.253 -104868.599 150486.777 -104886.777 150468.599 -104903.253 150448.893 -104917.868 150427.85 -104930.48 150405.671 -104940.97 150382.572 -104949.235 150358.773 -104955.196 150334.505 -104958.796 150310.001 -104960 149409.999 -104960 149385.495 -104958.796 149361.227 -104955.196 149337.428 -104949.235 149314.329 -104940.97 149292.15 -104930.48 149271.107 -104917.868 149251.401 -104903.253 149233.223 -104886.777 149216.747 -104868.599 149202.132 -104848.893 149189.52 -104827.85 149179.03 -104805.671 149170.765 -104782.572 149164.804 -104758.773 149161.204 -104734.505 149160 -104710.001 149160 -104059.999 149161.204 -104035.495 149164.804 -104011.227 149170.765 -103987.428 149179.03 -103964.329 149189.52 -103942.15 149202.132 -103921.107 149216.747 -103901.401 149233.223 -103883.223 149251.401 -103866.747 149271.107 -103852.132 149292.15 -103839.52 149314.329 -103829.03 149337.428 -103820.765 149361.227 -103814.804 149385.495 -103811.204 149409.999 -103810 150310.001 -103810 150334.505 -103811.204 150334.505 -103811.204"
         id="path5441" />
      <use
         xlink:href="#Q6PM2-dhLYukXWX5Lhej_pad-13"
         x="149860"
         y="-104385"
         id="use5443" />
      <path
         d="M 150334.505 -105861.204 150358.773 -105864.804 150382.572 -105870.765 150405.671 -105879.03 150427.85 -105889.52 150448.893 -105902.132 150468.599 -105916.747 150486.777 -105933.223 150503.253 -105951.401 150517.868 -105971.107 150530.48 -105992.15 150540.97 -106014.329 150549.235 -106037.428 150555.196 -106061.227 150558.796 -106085.495 150560 -106109.999 150560 -106760.001 150558.796 -106784.505 150555.196 -106808.773 150549.235 -106832.572 150540.97 -106855.671 150530.48 -106877.85 150517.868 -106898.893 150503.253 -106918.599 150486.777 -106936.777 150468.599 -106953.253 150448.893 -106967.868 150427.85 -106980.48 150405.671 -106990.97 150382.572 -106999.235 150358.773 -107005.196 150334.505 -107008.796 150310.001 -107010 149409.999 -107010 149385.495 -107008.796 149361.227 -107005.196 149337.428 -106999.235 149314.329 -106990.97 149292.15 -106980.48 149271.107 -106967.868 149251.401 -106953.253 149233.223 -106936.777 149216.747 -106918.599 149202.132 -106898.893 149189.52 -106877.85 149179.03 -106855.671 149170.765 -106832.572 149164.804 -106808.773 149161.204 -106784.505 149160 -106760.001 149160 -106109.999 149161.204 -106085.495 149164.804 -106061.227 149170.765 -106037.428 149179.03 -106014.329 149189.52 -105992.15 149202.132 -105971.107 149216.747 -105951.401 149233.223 -105933.223 149251.401 -105916.747 149271.107 -105902.132 149292.15 -105889.52 149314.329 -105879.03 149337.428 -105870.765 149361.227 -105864.804 149385.495 -105861.204 149409.999 -105860 150310.001 -105860 150334.505 -105861.204 150334.505 -105861.204"
         id="path5445" />
      <use
         xlink:href="#Q6PM2-dhLYukXWX5Lhej_pad-13"
         x="149860"
         y="-106435"
         id="use5447" />
      <path
         d="M 155414.505 -110941.204 155438.773 -110944.804 155462.572 -110950.765 155485.671 -110959.03 155507.85 -110969.52 155528.893 -110982.132 155548.599 -110996.747 155566.777 -111013.223 155583.253 -111031.401 155597.868 -111051.107 155610.48 -111072.15 155620.97 -111094.329 155629.235 -111117.428 155635.196 -111141.227 155638.796 -111165.495 155640 -111189.999 155640 -111840.001 155638.796 -111864.505 155635.196 -111888.773 155629.235 -111912.572 155620.97 -111935.671 155610.48 -111957.85 155597.868 -111978.893 155583.253 -111998.599 155566.777 -112016.777 155548.599 -112033.253 155528.893 -112047.868 155507.85 -112060.48 155485.671 -112070.97 155462.572 -112079.235 155438.773 -112085.196 155414.505 -112088.796 155390.001 -112090 154489.999 -112090 154465.495 -112088.796 154441.227 -112085.196 154417.428 -112079.235 154394.329 -112070.97 154372.15 -112060.48 154351.107 -112047.868 154331.401 -112033.253 154313.223 -112016.777 154296.747 -111998.599 154282.132 -111978.893 154269.52 -111957.85 154259.03 -111935.671 154250.765 -111912.572 154244.804 -111888.773 154241.204 -111864.505 154240 -111840.001 154240 -111189.999 154241.204 -111165.495 154244.804 -111141.227 154250.765 -111117.428 154259.03 -111094.329 154269.52 -111072.15 154282.132 -111051.107 154296.747 -111031.401 154313.223 -111013.223 154331.401 -110996.747 154351.107 -110982.132 154372.15 -110969.52 154394.329 -110959.03 154417.428 -110950.765 154441.227 -110944.804 154465.495 -110941.204 154489.999 -110940 155390.001 -110940 155414.505 -110941.204 155414.505 -110941.204"
         id="path5449" />
      <use
         xlink:href="#Q6PM2-dhLYukXWX5Lhej_pad-13"
         x="154940"
         y="-111515"
         id="use5451" />
      <path
         d="M 155414.505 -108891.204 155438.773 -108894.804 155462.572 -108900.765 155485.671 -108909.03 155507.85 -108919.52 155528.893 -108932.132 155548.599 -108946.747 155566.777 -108963.223 155583.253 -108981.401 155597.868 -109001.107 155610.48 -109022.15 155620.97 -109044.329 155629.235 -109067.428 155635.196 -109091.227 155638.796 -109115.495 155640 -109139.999 155640 -109790.001 155638.796 -109814.505 155635.196 -109838.773 155629.235 -109862.572 155620.97 -109885.671 155610.48 -109907.85 155597.868 -109928.893 155583.253 -109948.599 155566.777 -109966.777 155548.599 -109983.253 155528.893 -109997.868 155507.85 -110010.48 155485.671 -110020.97 155462.572 -110029.235 155438.773 -110035.196 155414.505 -110038.796 155390.001 -110040 154489.999 -110040 154465.495 -110038.796 154441.227 -110035.196 154417.428 -110029.235 154394.329 -110020.97 154372.15 -110010.48 154351.107 -109997.868 154331.401 -109983.253 154313.223 -109966.777 154296.747 -109948.599 154282.132 -109928.893 154269.52 -109907.85 154259.03 -109885.671 154250.765 -109862.572 154244.804 -109838.773 154241.204 -109814.505 154240 -109790.001 154240 -109139.999 154241.204 -109115.495 154244.804 -109091.227 154250.765 -109067.428 154259.03 -109044.329 154269.52 -109022.15 154282.132 -109001.107 154296.747 -108981.401 154313.223 -108963.223 154331.401 -108946.747 154351.107 -108932.132 154372.15 -108919.52 154394.329 -108909.03 154417.428 -108900.765 154441.227 -108894.804 154465.495 -108891.204 154489.999 -108890 155390.001 -108890 155414.505 -108891.204 155414.505 -108891.204"
         id="path5453" />
      <use
         xlink:href="#Q6PM2-dhLYukXWX5Lhej_pad-13"
         x="154940"
         y="-109465"
         id="use5455" />
      <path
         d="M 153774.505 -90741.204 153798.773 -90744.804 153822.572 -90750.765 153845.671 -90759.03 153867.85 -90769.52 153888.893 -90782.132 153908.599 -90796.747 153926.777 -90813.223 153943.253 -90831.401 153957.868 -90851.107 153970.48 -90872.15 153980.97 -90894.329 153989.235 -90917.428 153995.196 -90941.227 153998.796 -90965.495 154000 -90989.999 154000 -91890.001 153998.796 -91914.505 153995.196 -91938.773 153989.235 -91962.572 153980.97 -91985.671 153970.48 -92007.85 153957.868 -92028.893 153943.253 -92048.599 153926.777 -92066.777 153908.599 -92083.253 153888.893 -92097.868 153867.85 -92110.48 153845.671 -92120.97 153822.572 -92129.235 153798.773 -92135.196 153774.505 -92138.796 153750.001 -92140 153099.999 -92140 153075.495 -92138.796 153051.227 -92135.196 153027.428 -92129.235 153004.329 -92120.97 152982.15 -92110.48 152961.107 -92097.868 152941.401 -92083.253 152923.223 -92066.777 152906.747 -92048.599 152892.132 -92028.893 152879.52 -92007.85 152869.03 -91985.671 152860.765 -91962.572 152854.804 -91938.773 152851.204 -91914.505 152850 -91890.001 152850 -90989.999 152851.204 -90965.495 152854.804 -90941.227 152860.765 -90917.428 152869.03 -90894.329 152879.52 -90872.15 152892.132 -90851.107 152906.747 -90831.401 152923.223 -90813.223 152941.401 -90796.747 152961.107 -90782.132 152982.15 -90769.52 153004.329 -90759.03 153027.428 -90750.765 153051.227 -90744.804 153075.495 -90741.204 153099.999 -90740 153750.001 -90740 153774.505 -90741.204 153774.505 -90741.204"
         id="path5457" />
      <use
         xlink:href="#Q6PM2-dhLYukXWX5Lhej_pad-13"
         x="153425"
         y="-91440"
         id="use5459" />
      <path
         d="M 151724.505 -90741.204 151748.773 -90744.804 151772.572 -90750.765 151795.671 -90759.03 151817.85 -90769.52 151838.893 -90782.132 151858.599 -90796.747 151876.777 -90813.223 151893.253 -90831.401 151907.868 -90851.107 151920.48 -90872.15 151930.97 -90894.329 151939.235 -90917.428 151945.196 -90941.227 151948.796 -90965.495 151950 -90989.999 151950 -91890.001 151948.796 -91914.505 151945.196 -91938.773 151939.235 -91962.572 151930.97 -91985.671 151920.48 -92007.85 151907.868 -92028.893 151893.253 -92048.599 151876.777 -92066.777 151858.599 -92083.253 151838.893 -92097.868 151817.85 -92110.48 151795.671 -92120.97 151772.572 -92129.235 151748.773 -92135.196 151724.505 -92138.796 151700.001 -92140 151049.999 -92140 151025.495 -92138.796 151001.227 -92135.196 150977.428 -92129.235 150954.329 -92120.97 150932.15 -92110.48 150911.107 -92097.868 150891.401 -92083.253 150873.223 -92066.777 150856.747 -92048.599 150842.132 -92028.893 150829.52 -92007.85 150819.03 -91985.671 150810.765 -91962.572 150804.804 -91938.773 150801.204 -91914.505 150800 -91890.001 150800 -90989.999 150801.204 -90965.495 150804.804 -90941.227 150810.765 -90917.428 150819.03 -90894.329 150829.52 -90872.15 150842.132 -90851.107 150856.747 -90831.401 150873.223 -90813.223 150891.401 -90796.747 150911.107 -90782.132 150932.15 -90769.52 150954.329 -90759.03 150977.428 -90750.765 151001.227 -90744.804 151025.495 -90741.204 151049.999 -90740 151700.001 -90740 151724.505 -90741.204 151724.505 -90741.204"
         id="path5461" />
      <use
         xlink:href="#Q6PM2-dhLYukXWX5Lhej_pad-13"
         x="151375"
         y="-91440"
         id="use5463" />
      <path
         d="M 154264.505 -93281.204 154288.773 -93284.804 154312.572 -93290.765 154335.671 -93299.03 154357.85 -93309.52 154378.893 -93322.132 154398.599 -93336.747 154416.777 -93353.223 154433.253 -93371.401 154447.868 -93391.107 154460.48 -93412.15 154470.97 -93434.329 154479.235 -93457.428 154485.196 -93481.227 154488.796 -93505.495 154490 -93529.999 154490 -94430.001 154488.796 -94454.505 154485.196 -94478.773 154479.235 -94502.572 154470.97 -94525.671 154460.48 -94547.85 154447.868 -94568.893 154433.253 -94588.599 154416.777 -94606.777 154398.599 -94623.253 154378.893 -94637.868 154357.85 -94650.48 154335.671 -94660.97 154312.572 -94669.235 154288.773 -94675.196 154264.505 -94678.796 154240.001 -94680 153589.999 -94680 153565.495 -94678.796 153541.227 -94675.196 153517.428 -94669.235 153494.329 -94660.97 153472.15 -94650.48 153451.107 -94637.868 153431.401 -94623.253 153413.223 -94606.777 153396.747 -94588.599 153382.132 -94568.893 153369.52 -94547.85 153359.03 -94525.671 153350.765 -94502.572 153344.804 -94478.773 153341.204 -94454.505 153340 -94430.001 153340 -93529.999 153341.204 -93505.495 153344.804 -93481.227 153350.765 -93457.428 153359.03 -93434.329 153369.52 -93412.15 153382.132 -93391.107 153396.747 -93371.401 153413.223 -93353.223 153431.401 -93336.747 153451.107 -93322.132 153472.15 -93309.52 153494.329 -93299.03 153517.428 -93290.765 153541.227 -93284.804 153565.495 -93281.204 153589.999 -93280 154240.001 -93280 154264.505 -93281.204 154264.505 -93281.204"
         id="path5465" />
      <use
         xlink:href="#Q6PM2-dhLYukXWX5Lhej_pad-13"
         x="153915"
         y="-93980"
         id="use5467" />
      <path
         d="M 156314.505 -93281.204 156338.773 -93284.804 156362.572 -93290.765 156385.671 -93299.03 156407.85 -93309.52 156428.893 -93322.132 156448.599 -93336.747 156466.777 -93353.223 156483.253 -93371.401 156497.868 -93391.107 156510.48 -93412.15 156520.97 -93434.329 156529.235 -93457.428 156535.196 -93481.227 156538.796 -93505.495 156540 -93529.999 156540 -94430.001 156538.796 -94454.505 156535.196 -94478.773 156529.235 -94502.572 156520.97 -94525.671 156510.48 -94547.85 156497.868 -94568.893 156483.253 -94588.599 156466.777 -94606.777 156448.599 -94623.253 156428.893 -94637.868 156407.85 -94650.48 156385.671 -94660.97 156362.572 -94669.235 156338.773 -94675.196 156314.505 -94678.796 156290.001 -94680 155639.999 -94680 155615.495 -94678.796 155591.227 -94675.196 155567.428 -94669.235 155544.329 -94660.97 155522.15 -94650.48 155501.107 -94637.868 155481.401 -94623.253 155463.223 -94606.777 155446.747 -94588.599 155432.132 -94568.893 155419.52 -94547.85 155409.03 -94525.671 155400.765 -94502.572 155394.804 -94478.773 155391.204 -94454.505 155390 -94430.001 155390 -93529.999 155391.204 -93505.495 155394.804 -93481.227 155400.765 -93457.428 155409.03 -93434.329 155419.52 -93412.15 155432.132 -93391.107 155446.747 -93371.401 155463.223 -93353.223 155481.401 -93336.747 155501.107 -93322.132 155522.15 -93309.52 155544.329 -93299.03 155567.428 -93290.765 155591.227 -93284.804 155615.495 -93281.204 155639.999 -93280 156290.001 -93280 156314.505 -93281.204 156314.505 -93281.204"
         id="path5469" />
      <use
         xlink:href="#Q6PM2-dhLYukXWX5Lhej_pad-13"
         x="155965"
         y="-93980"
         id="use5471" />
      <path
         d="M 152874.505 -108871.204 152898.773 -108874.804 152922.572 -108880.765 152945.671 -108889.03 152967.85 -108899.52 152988.893 -108912.132 153008.599 -108926.747 153026.777 -108943.223 153043.253 -108961.401 153057.868 -108981.107 153070.48 -109002.15 153080.97 -109024.329 153089.235 -109047.428 153095.196 -109071.227 153098.796 -109095.495 153100 -109119.999 153100 -109770.001 153098.796 -109794.505 153095.196 -109818.773 153089.235 -109842.572 153080.97 -109865.671 153070.48 -109887.85 153057.868 -109908.893 153043.253 -109928.599 153026.777 -109946.777 153008.599 -109963.253 152988.893 -109977.868 152967.85 -109990.48 152945.671 -110000.97 152922.572 -110009.235 152898.773 -110015.196 152874.505 -110018.796 152850.001 -110020 151949.999 -110020 151925.495 -110018.796 151901.227 -110015.196 151877.428 -110009.235 151854.329 -110000.97 151832.15 -109990.48 151811.107 -109977.868 151791.401 -109963.253 151773.223 -109946.777 151756.747 -109928.599 151742.132 -109908.893 151729.52 -109887.85 151719.03 -109865.671 151710.765 -109842.572 151704.804 -109818.773 151701.204 -109794.505 151700 -109770.001 151700 -109119.999 151701.204 -109095.495 151704.804 -109071.227 151710.765 -109047.428 151719.03 -109024.329 151729.52 -109002.15 151742.132 -108981.107 151756.747 -108961.401 151773.223 -108943.223 151791.401 -108926.747 151811.107 -108912.132 151832.15 -108899.52 151854.329 -108889.03 151877.428 -108880.765 151901.227 -108874.804 151925.495 -108871.204 151949.999 -108870 152850.001 -108870 152874.505 -108871.204 152874.505 -108871.204"
         id="path5473" />
      <use
         xlink:href="#Q6PM2-dhLYukXWX5Lhej_pad-13"
         x="152400"
         y="-109445"
         id="use5475" />
      <path
         d="M 152874.505 -110921.204 152898.773 -110924.804 152922.572 -110930.765 152945.671 -110939.03 152967.85 -110949.52 152988.893 -110962.132 153008.599 -110976.747 153026.777 -110993.223 153043.253 -111011.401 153057.868 -111031.107 153070.48 -111052.15 153080.97 -111074.329 153089.235 -111097.428 153095.196 -111121.227 153098.796 -111145.495 153100 -111169.999 153100 -111820.001 153098.796 -111844.505 153095.196 -111868.773 153089.235 -111892.572 153080.97 -111915.671 153070.48 -111937.85 153057.868 -111958.893 153043.253 -111978.599 153026.777 -111996.777 153008.599 -112013.253 152988.893 -112027.868 152967.85 -112040.48 152945.671 -112050.97 152922.572 -112059.235 152898.773 -112065.196 152874.505 -112068.796 152850.001 -112070 151949.999 -112070 151925.495 -112068.796 151901.227 -112065.196 151877.428 -112059.235 151854.329 -112050.97 151832.15 -112040.48 151811.107 -112027.868 151791.401 -112013.253 151773.223 -111996.777 151756.747 -111978.599 151742.132 -111958.893 151729.52 -111937.85 151719.03 -111915.671 151710.765 -111892.572 151704.804 -111868.773 151701.204 -111844.505 151700 -111820.001 151700 -111169.999 151701.204 -111145.495 151704.804 -111121.227 151710.765 -111097.428 151719.03 -111074.329 151729.52 -111052.15 151742.132 -111031.107 151756.747 -111011.401 151773.223 -110993.223 151791.401 -110976.747 151811.107 -110962.132 151832.15 -110949.52 151854.329 -110939.03 151877.428 -110930.765 151901.227 -110924.804 151925.495 -110921.204 151949.999 -110920 152850.001 -110920 152874.505 -110921.204 152874.505 -110921.204"
         id="path5477" />
      <use
         xlink:href="#Q6PM2-dhLYukXWX5Lhej_pad-13"
         x="152400"
         y="-111495"
         id="use5479" />
      <use
         xlink:href="#Q6PM2-dhLYukXWX5Lhej_pad-14"
         x="148700"
         y="-97155"
         id="use5481" />
      <use
         xlink:href="#Q6PM2-dhLYukXWX5Lhej_pad-14"
         x="148700"
         y="-98425"
         id="use5483" />
      <use
         xlink:href="#Q6PM2-dhLYukXWX5Lhej_pad-14"
         x="148700"
         y="-99695"
         id="use5485" />
      <use
         xlink:href="#Q6PM2-dhLYukXWX5Lhej_pad-14"
         x="148700"
         y="-100965"
         id="use5487" />
      <use
         xlink:href="#Q6PM2-dhLYukXWX5Lhej_pad-14"
         x="156100"
         y="-100965"
         id="use5489" />
      <use
         xlink:href="#Q6PM2-dhLYukXWX5Lhej_pad-14"
         x="156100"
         y="-99695"
         id="use5491" />
      <use
         xlink:href="#Q6PM2-dhLYukXWX5Lhej_pad-14"
         x="156100"
         y="-98425"
         id="use5493" />
      <use
         xlink:href="#Q6PM2-dhLYukXWX5Lhej_pad-14"
         x="156100"
         y="-97155"
         id="use5495" />
      <use
         xlink:href="#Q6PM2-dhLYukXWX5Lhej_pad-15"
         x="156083"
         y="-96012"
         id="use5497" />
      <use
         xlink:href="#Q6PM2-dhLYukXWX5Lhej_pad-15"
         x="156464"
         y="-108204"
         id="use5499" />
      <use
         xlink:href="#Q6PM2-dhLYukXWX5Lhej_pad-15"
         x="156972"
         y="-106172"
         id="use5501" />
      <use
         xlink:href="#Q6PM2-dhLYukXWX5Lhej_pad-15"
         x="147828"
         y="-106172"
         id="use5503" />
      <use
         xlink:href="#Q6PM2-dhLYukXWX5Lhej_pad-15"
         x="146558"
         y="-99695"
         id="use5505" />
      <path
         d="M 156100 -96029 156083 -96012 M 156100 -97155 156100 -96029 M 154559 -97155 156100 -97155 M 151384 -100330 154559 -97155 M 151384 -102861 151384 -100330 M 149860 -104385 151384 -102861 M 155120.81 -108204 156464 -108204 M 153914.99 -106998.18 155120.81 -108204 M 149860 -104385 150885 -105410 153278.59 -105410 153914.99 -106046.4 153914.99 -106998.18 M 153425 -91440 155965 -93980 M 156588.372 -94603.372 155965 -93980 M 157300.001 -95315.001 156588.372 -94603.372 M 157300.001 -100364.999 157300.001 -95315.001 M 156700 -100965 157300.001 -100364.999 M 156100 -100965 156700 -100965 M 154559 -100965 156100 -100965 M 153670 -105165 153670 -101854 154559 -100965 M 154940 -106435 153670 -105165 M 150885 -93980 153915 -93980 M 150751.628 -92063.372 148835 -93980 M 151375 -91440 150751.628 -92063.372 M 148835 -97020 148700 -97155 M 148835 -93980 148835 -97020 M 152400 -106435 152400 -109445 M 156100 -98425 156100 -99695 M 154305 -99695 156100 -99695 M 152400 -101600 154305 -99695 M 152400 -104385 152400 -101600 M 154316.628 -110088.372 154940 -109465 M 154059.99 -110345.01 154316.628 -110088.372 M 151711.82 -110345.01 154059.99 -110345.01 M 150885.01 -109518.2 151711.82 -110345.01 M 150885.01 -107460.01 150885.01 -109518.2 M 149860 -106435 150885.01 -107460.01 M 149900.001 -99025.001 149300 -98425 148700 -98425 M 149860 -106435 148834.99 -105409.99 M 149900.001 -102575.999 149900.001 -99025.001 M 148834.99 -105409.99 148834.99 -103641.01 149900.001 -102575.999 M 148700 -99695 146558 -99695 M 149851 -109474 149860 -109465 M 148844 -109474 149851 -109474 M 146558 -107188 148844 -109474 M 146558 -99695 146558 -107188"
         fill="none"
         stroke-width="250"
         id="path5507" />
      <path
         d="M 159310 -106512.391 156896.484 -111339.425 156275 -111960.909 156275 -111800.75 156116.25 -111642 155067 -111642 155067 -112566.25 155225.75 -112725 155510.91 -112725 154645.91 -113590 150154.091 -113590 149289.091 -112725 149574.25 -112725 149733 -112566.25 149733 -111642 149987 -111642 149987 -112566.25 150145.75 -112725 150686.31 -112725 150919.699 -112628.327 151098.327 -112449.698 151134.142 -112363.233 151161.673 -112429.698 151340.301 -112608.327 151573.69 -112705 152114.25 -112705 152273 -112546.25 152273 -111622 152527 -111622 152527 -112546.25 152685.75 -112705 153226.31 -112705 153459.699 -112608.327 153638.327 -112429.698 153665.858 -112363.233 153701.673 -112449.698 153880.301 -112628.327 154113.69 -112725 154654.25 -112725 154813 -112566.25 154813 -111642 153763.75 -111642 153680 -111725.75 153576.25 -111622 152527 -111622 152273 -111622 151223.75 -111622 151120 -111725.75 151036.25 -111642 149987 -111642 149733 -111642 148683.75 -111642 148525 -111800.75 148525 -111960.91 147903.518 -111339.428 146172.408 -107877.209 148253.671 -109958.473 148296.071 -110021.929 148547.463 -110189.904 148629.509 -110206.224 148775.414 -110424.586 148776.597 -110425.377 148621.673 -110580.302 148525 -110813.691 148525 -111229.25 148683.75 -111388 149733 -111388 149733 -111368 149987 -111368 149987 -111388 151036.25 -111388 151140 -111284.25 151223.75 -111368 152273 -111368 152273 -111348 152527 -111348 152527 -111368 153576.25 -111368 153660 -111284.25 153763.75 -111388 154813 -111388 154813 -111368 155067 -111368 155067 -111388 156116.25 -111388 156275 -111229.25 156275 -110813.691 156178.327 -110580.302 156023.403 -110425.377 156024.586 -110424.586 156219.127 -110133.436 156287.44 -109790.001 156287.44 -109239 156669.874 -109239 157050.28 -109081.431 157341.431 -108790.28 157499 -108409.874 157499 -107998.126 157341.431 -107617.72 157050.28 -107326.569 156669.874 -107169 156258.126 -107169 156143.629 -107216.426 156219.127 -107103.436 156287.44 -106760.001 156287.44 -106109.999 156219.127 -105766.564 156024.586 -105475.414 156023.403 -105474.623 156178.327 -105319.698 156275 -105086.309 156275 -104670.75 156116.25 -104512 155067 -104512 155067 -104532 154813 -104532 154813 -104512 154793 -104512 154793 -104258 154813 -104258 154813 -103333.75 155067 -103333.75 155067 -104258 156116.25 -104258 156275 -104099.25 156275 -103683.691 156178.327 -103450.302 155999.699 -103271.673 155766.31 -103175 155225.75 -103175 155067 -103333.75 154813 -103333.75 154654.25 -103175 154430 -103175 154430 -102168.801 154847.399 -101751.403 154977.235 -101838.157 155225 -101887.44 156975 -101887.44 157222.765 -101838.157 157432.809 -101697.809 157573.157 -101487.765 157622.44 -101240 157622.44 -101117.362 157784.474 -100955.328 157847.93 -100912.928 158015.905 -100661.536 158060.001 -100439.851 158060.001 -100439.847 158074.889 -100364.999 158060.001 -100290.151 158060.001 -95389.847 158074.889 -95315 158060.001 -95240.153 158060.001 -95240.149 158034.619 -95112.547 158095.744 -95124.705 158388.256 -95124.705 158821.418 -95038.544 159310.001 -94712.083 159310 -106512.391 159310 -106512.391"
         id="path5509" />
      <path
         d="M 159310 -106512.391 156896.484 -111339.425 156275 -111960.909 156275 -111800.75 156116.25 -111642 155067 -111642 155067 -112566.25 155225.75 -112725 155510.91 -112725 154645.91 -113590 150154.091 -113590 149289.091 -112725 149574.25 -112725 149733 -112566.25 149733 -111642 149987 -111642 149987 -112566.25 150145.75 -112725 150686.31 -112725 150919.699 -112628.327 151098.327 -112449.698 151134.142 -112363.233 151161.673 -112429.698 151340.301 -112608.327 151573.69 -112705 152114.25 -112705 152273 -112546.25 152273 -111622 152527 -111622 152527 -112546.25 152685.75 -112705 153226.31 -112705 153459.699 -112608.327 153638.327 -112429.698 153665.858 -112363.233 153701.673 -112449.698 153880.301 -112628.327 154113.69 -112725 154654.25 -112725 154813 -112566.25 154813 -111642 153763.75 -111642 153680 -111725.75 153576.25 -111622 152527 -111622 152273 -111622 151223.75 -111622 151120 -111725.75 151036.25 -111642 149987 -111642 149733 -111642 148683.75 -111642 148525 -111800.75 148525 -111960.91 147903.518 -111339.428 146172.408 -107877.209 148253.671 -109958.473 148296.071 -110021.929 148547.463 -110189.904 148629.509 -110206.224 148775.414 -110424.586 148776.597 -110425.377 148621.673 -110580.302 148525 -110813.691 148525 -111229.25 148683.75 -111388 149733 -111388 149733 -111368 149987 -111368 149987 -111388 151036.25 -111388 151140 -111284.25 151223.75 -111368 152273 -111368 152273 -111348 152527 -111348 152527 -111368 153576.25 -111368 153660 -111284.25 153763.75 -111388 154813 -111388 154813 -111368 155067 -111368 155067 -111388 156116.25 -111388 156275 -111229.25 156275 -110813.691 156178.327 -110580.302 156023.403 -110425.377 156024.586 -110424.586 156219.127 -110133.436 156287.44 -109790.001 156287.44 -109239 156669.874 -109239 157050.28 -109081.431 157341.431 -108790.28 157499 -108409.874 157499 -107998.126 157341.431 -107617.72 157050.28 -107326.569 156669.874 -107169 156258.126 -107169 156143.629 -107216.426 156219.127 -107103.436 156287.44 -106760.001 156287.44 -106109.999 156219.127 -105766.564 156024.586 -105475.414 156023.403 -105474.623 156178.327 -105319.698 156275 -105086.309 156275 -104670.75 156116.25 -104512 155067 -104512 155067 -104532 154813 -104532 154813 -104512 154793 -104512 154793 -104258 154813 -104258 154813 -103333.75 155067 -103333.75 155067 -104258 156116.25 -104258 156275 -104099.25 156275 -103683.691 156178.327 -103450.302 155999.699 -103271.673 155766.31 -103175 155225.75 -103175 155067 -103333.75 154813 -103333.75 154654.25 -103175 154430 -103175 154430 -102168.801 154847.399 -101751.403 154977.235 -101838.157 155225 -101887.44 156975 -101887.44 157222.765 -101838.157 157432.809 -101697.809 157573.157 -101487.765 157622.44 -101240 157622.44 -101117.362 157784.474 -100955.328 157847.93 -100912.928 158015.905 -100661.536 158060.001 -100439.851 158060.001 -100439.847 158074.889 -100364.999 158060.001 -100290.151 158060.001 -95389.847 158074.889 -95315 158060.001 -95240.153 158060.001 -95240.149 158034.619 -95112.547 158095.744 -95124.705 158388.256 -95124.705 158821.418 -95038.544 159310.001 -94712.083 159310 -106512.391"
         fill="none"
         stroke-width="254"
         id="path5511" />
      <path
         d="M 148827 -100838 148847 -100838 148847 -101092 148827 -101092 148827 -101716.25 148985.75 -101875 149140.001 -101875 149140.001 -102261.197 148350.518 -103050.681 148287.062 -103093.081 148244.662 -103156.537 148244.661 -103156.538 148119.087 -103344.473 148060.102 -103641.01 148074.991 -103715.862 148074.99 -105335.143 148060.102 -105409.99 148074.99 -105484.837 148074.99 -105484.841 148119.086 -105706.526 148287.061 -105957.919 148350.52 -106000.321 148512.56 -106162.361 148512.56 -106760.001 148580.873 -107103.436 148775.414 -107394.586 149066.564 -107589.127 149409.999 -107657.44 150007.638 -107657.44 150125.01 -107774.812 150125.01 -108242.56 149409.999 -108242.56 149066.564 -108310.873 148880.2 -108435.398 147318 -106873.199 147318 -101631.026 147465.302 -101778.327 147698.691 -101875 148414.25 -101875 148573 -101716.25 148573 -101092 148553 -101092 148553 -100838 148573 -100838 148573 -100818 148827 -100818 148827 -100838 148827 -100838"
         id="path5513" />
      <path
         d="M 148827 -100838 148847 -100838 148847 -101092 148827 -101092 148827 -101716.25 148985.75 -101875 149140.001 -101875 149140.001 -102261.197 148350.518 -103050.681 148287.062 -103093.081 148244.662 -103156.537 148244.661 -103156.538 148119.087 -103344.473 148060.102 -103641.01 148074.991 -103715.862 148074.99 -105335.143 148060.102 -105409.99 148074.99 -105484.837 148074.99 -105484.841 148119.086 -105706.526 148287.061 -105957.919 148350.52 -106000.321 148512.56 -106162.361 148512.56 -106760.001 148580.873 -107103.436 148775.414 -107394.586 149066.564 -107589.127 149409.999 -107657.44 150007.638 -107657.44 150125.01 -107774.812 150125.01 -108242.56 149409.999 -108242.56 149066.564 -108310.873 148880.2 -108435.398 147318 -106873.199 147318 -101631.026 147465.302 -101778.327 147698.691 -101875 148414.25 -101875 148573 -101716.25 148573 -101092 148553 -101092 148553 -100838 148573 -100838 148573 -100818 148827 -100818 148827 -100838"
         fill="none"
         stroke-width="254"
         id="path5515" />
    </g>
    <g
       id="BVbtwDY_HCJXS4DV3AxL_top_soldermask">
      <path
         d="M 155528.677 -110893.465 155566.364 -110904.898 155601.103 -110923.466 155631.548 -110948.452 155656.534 -110978.897 155675.102 -111013.636 155686.535 -111051.323 155691 -111096.661 155691 -111933.339 155686.535 -111978.677 155675.102 -112016.364 155656.534 -112051.103 155631.548 -112081.548 155601.103 -112106.534 155566.364 -112125.102 155528.677 -112136.535 155483.339 -112141 154396.661 -112141 154351.323 -112136.535 154313.636 -112125.102 154278.897 -112106.534 154248.452 -112081.548 154223.466 -112051.103 154204.898 -112016.364 154193.465 -111978.677 154189 -111933.339 154189 -111096.661 154193.465 -111051.323 154204.898 -111013.636 154223.466 -110978.897 154248.452 -110948.452 154278.897 -110923.466 154313.636 -110904.898 154351.323 -110893.465 154396.661 -110889 155483.339 -110889 155528.677 -110893.465 155528.677 -110893.465"
         id="path5518" />
      <path
         d="M 150448.677 -110893.465 150486.364 -110904.898 150521.103 -110923.466 150551.548 -110948.452 150576.534 -110978.897 150595.102 -111013.636 150606.535 -111051.323 150611 -111096.661 150611 -111933.339 150606.535 -111978.677 150595.102 -112016.364 150576.534 -112051.103 150551.548 -112081.548 150521.103 -112106.534 150486.364 -112125.102 150448.677 -112136.535 150403.339 -112141 149316.661 -112141 149271.323 -112136.535 149233.636 -112125.102 149198.897 -112106.534 149168.452 -112081.548 149143.466 -112051.103 149124.898 -112016.364 149113.465 -111978.677 149109 -111933.339 149109 -111096.661 149113.465 -111051.323 149124.898 -111013.636 149143.466 -110978.897 149168.452 -110948.452 149198.897 -110923.466 149233.636 -110904.898 149271.323 -110893.465 149316.661 -110889 150403.339 -110889 150448.677 -110893.465 150448.677 -110893.465"
         id="path5520" />
      <path
         d="M 152988.677 -110873.465 153026.364 -110884.898 153061.103 -110903.466 153091.548 -110928.452 153116.534 -110958.897 153135.102 -110993.636 153146.535 -111031.323 153151 -111076.661 153151 -111913.339 153146.535 -111958.677 153135.102 -111996.364 153116.534 -112031.103 153091.548 -112061.548 153061.103 -112086.534 153026.364 -112105.102 152988.677 -112116.535 152943.339 -112121 151856.661 -112121 151811.323 -112116.535 151773.636 -112105.102 151738.897 -112086.534 151708.452 -112061.548 151683.466 -112031.103 151664.898 -111996.364 151653.465 -111958.677 151649 -111913.339 151649 -111076.661 151653.465 -111031.323 151664.898 -110993.636 151683.466 -110958.897 151708.452 -110928.452 151738.897 -110903.466 151773.636 -110884.898 151811.323 -110873.465 151856.661 -110869 152943.339 -110869 152988.677 -110873.465 152988.677 -110873.465"
         id="path5522" />
      <path
         d="M 155528.677 -108843.465 155566.364 -108854.898 155601.103 -108873.466 155631.548 -108898.452 155656.534 -108928.897 155675.102 -108963.636 155686.535 -109001.323 155691 -109046.661 155691 -109883.339 155686.535 -109928.677 155675.102 -109966.364 155656.534 -110001.103 155631.548 -110031.548 155601.103 -110056.534 155566.364 -110075.102 155528.677 -110086.535 155483.339 -110091 154396.661 -110091 154351.323 -110086.535 154313.636 -110075.102 154278.897 -110056.534 154248.452 -110031.548 154223.466 -110001.103 154204.898 -109966.364 154193.465 -109928.677 154189 -109883.339 154189 -109046.661 154193.465 -109001.323 154204.898 -108963.636 154223.466 -108928.897 154248.452 -108898.452 154278.897 -108873.466 154313.636 -108854.898 154351.323 -108843.465 154396.661 -108839 155483.339 -108839 155528.677 -108843.465 155528.677 -108843.465"
         id="path5524" />
      <path
         d="M 150448.677 -108843.465 150486.364 -108854.898 150521.103 -108873.466 150551.548 -108898.452 150576.534 -108928.897 150595.102 -108963.636 150606.535 -109001.323 150611 -109046.661 150611 -109883.339 150606.535 -109928.677 150595.102 -109966.364 150576.534 -110001.103 150551.548 -110031.548 150521.103 -110056.534 150486.364 -110075.102 150448.677 -110086.535 150403.339 -110091 149316.661 -110091 149271.323 -110086.535 149233.636 -110075.102 149198.897 -110056.534 149168.452 -110031.548 149143.466 -110001.103 149124.898 -109966.364 149113.465 -109928.677 149109 -109883.339 149109 -109046.661 149113.465 -109001.323 149124.898 -108963.636 149143.466 -108928.897 149168.452 -108898.452 149198.897 -108873.466 149233.636 -108854.898 149271.323 -108843.465 149316.661 -108839 150403.339 -108839 150448.677 -108843.465 150448.677 -108843.465"
         id="path5526" />
      <path
         d="M 152988.677 -108823.465 153026.364 -108834.898 153061.103 -108853.466 153091.548 -108878.452 153116.534 -108908.897 153135.102 -108943.636 153146.535 -108981.323 153151 -109026.661 153151 -109863.339 153146.535 -109908.677 153135.102 -109946.364 153116.534 -109981.103 153091.548 -110011.548 153061.103 -110036.534 153026.364 -110055.102 152988.677 -110066.535 152943.339 -110071 151856.661 -110071 151811.323 -110066.535 151773.636 -110055.102 151738.897 -110036.534 151708.452 -110011.548 151683.466 -109981.103 151664.898 -109946.364 151653.465 -109908.677 151649 -109863.339 151649 -109026.661 151653.465 -108981.323 151664.898 -108943.636 151683.466 -108908.897 151708.452 -108878.452 151738.897 -108853.466 151773.636 -108834.898 151811.323 -108823.465 151856.661 -108819 152943.339 -108819 152988.677 -108823.465 152988.677 -108823.465"
         id="path5528" />
      <path
         d="M 152988.677 -105813.465 153026.364 -105824.898 153061.103 -105843.466 153091.548 -105868.452 153116.534 -105898.897 153135.102 -105933.636 153146.535 -105971.323 153151 -106016.661 153151 -106853.339 153146.535 -106898.677 153135.102 -106936.364 153116.534 -106971.103 153091.548 -107001.548 153061.103 -107026.534 153026.364 -107045.102 152988.677 -107056.535 152943.339 -107061 151856.661 -107061 151811.323 -107056.535 151773.636 -107045.102 151738.897 -107026.534 151708.452 -107001.548 151683.466 -106971.103 151664.898 -106936.364 151653.465 -106898.677 151649 -106853.339 151649 -106016.661 151653.465 -105971.323 151664.898 -105933.636 151683.466 -105898.897 151708.452 -105868.452 151738.897 -105843.466 151773.636 -105824.898 151811.323 -105813.465 151856.661 -105809 152943.339 -105809 152988.677 -105813.465 152988.677 -105813.465"
         id="path5530" />
      <path
         d="M 155528.677 -105813.465 155566.364 -105824.898 155601.103 -105843.466 155631.548 -105868.452 155656.534 -105898.897 155675.102 -105933.636 155686.535 -105971.323 155691 -106016.661 155691 -106853.339 155686.535 -106898.677 155675.102 -106936.364 155656.534 -106971.103 155631.548 -107001.548 155601.103 -107026.534 155566.364 -107045.102 155528.677 -107056.535 155483.339 -107061 154396.661 -107061 154351.323 -107056.535 154313.636 -107045.102 154278.897 -107026.534 154248.452 -107001.548 154223.466 -106971.103 154204.898 -106936.364 154193.465 -106898.677 154189 -106853.339 154189 -106016.661 154193.465 -105971.323 154204.898 -105933.636 154223.466 -105898.897 154248.452 -105868.452 154278.897 -105843.466 154313.636 -105824.898 154351.323 -105813.465 154396.661 -105809 155483.339 -105809 155528.677 -105813.465 155528.677 -105813.465"
         id="path5532" />
      <path
         d="M 150448.677 -105813.465 150486.364 -105824.898 150521.103 -105843.466 150551.548 -105868.452 150576.534 -105898.897 150595.102 -105933.636 150606.535 -105971.323 150611 -106016.661 150611 -106853.339 150606.535 -106898.677 150595.102 -106936.364 150576.534 -106971.103 150551.548 -107001.548 150521.103 -107026.534 150486.364 -107045.102 150448.677 -107056.535 150403.339 -107061 149316.661 -107061 149271.323 -107056.535 149233.636 -107045.102 149198.897 -107026.534 149168.452 -107001.548 149143.466 -106971.103 149124.898 -106936.364 149113.465 -106898.677 149109 -106853.339 149109 -106016.661 149113.465 -105971.323 149124.898 -105933.636 149143.466 -105898.897 149168.452 -105868.452 149198.897 -105843.466 149233.636 -105824.898 149271.323 -105813.465 149316.661 -105809 150403.339 -105809 150448.677 -105813.465 150448.677 -105813.465"
         id="path5534" />
      <path
         d="M 155528.677 -103763.465 155566.364 -103774.898 155601.103 -103793.466 155631.548 -103818.452 155656.534 -103848.897 155675.102 -103883.636 155686.535 -103921.323 155691 -103966.661 155691 -104803.339 155686.535 -104848.677 155675.102 -104886.364 155656.534 -104921.103 155631.548 -104951.548 155601.103 -104976.534 155566.364 -104995.102 155528.677 -105006.535 155483.339 -105011 154396.661 -105011 154351.323 -105006.535 154313.636 -104995.102 154278.897 -104976.534 154248.452 -104951.548 154223.466 -104921.103 154204.898 -104886.364 154193.465 -104848.677 154189 -104803.339 154189 -103966.661 154193.465 -103921.323 154204.898 -103883.636 154223.466 -103848.897 154248.452 -103818.452 154278.897 -103793.466 154313.636 -103774.898 154351.323 -103763.465 154396.661 -103759 155483.339 -103759 155528.677 -103763.465 155528.677 -103763.465"
         id="path5536" />
      <path
         d="M 152988.677 -103763.465 153026.364 -103774.898 153061.103 -103793.466 153091.548 -103818.452 153116.534 -103848.897 153135.102 -103883.636 153146.535 -103921.323 153151 -103966.661 153151 -104803.339 153146.535 -104848.677 153135.102 -104886.364 153116.534 -104921.103 153091.548 -104951.548 153061.103 -104976.534 153026.364 -104995.102 152988.677 -105006.535 152943.339 -105011 151856.661 -105011 151811.323 -105006.535 151773.636 -104995.102 151738.897 -104976.534 151708.452 -104951.548 151683.466 -104921.103 151664.898 -104886.364 151653.465 -104848.677 151649 -104803.339 151649 -103966.661 151653.465 -103921.323 151664.898 -103883.636 151683.466 -103848.897 151708.452 -103818.452 151738.897 -103793.466 151773.636 -103774.898 151811.323 -103763.465 151856.661 -103759 152943.339 -103759 152988.677 -103763.465 152988.677 -103763.465"
         id="path5538" />
      <path
         d="M 150448.677 -103763.465 150486.364 -103774.898 150521.103 -103793.466 150551.548 -103818.452 150576.534 -103848.897 150595.102 -103883.636 150606.535 -103921.323 150611 -103966.661 150611 -104803.339 150606.535 -104848.677 150595.102 -104886.364 150576.534 -104921.103 150551.548 -104951.548 150521.103 -104976.534 150486.364 -104995.102 150448.677 -105006.535 150403.339 -105011 149316.661 -105011 149271.323 -105006.535 149233.636 -104995.102 149198.897 -104976.534 149168.452 -104951.548 149143.466 -104921.103 149124.898 -104886.364 149113.465 -104848.677 149109 -104803.339 149109 -103966.661 149113.465 -103921.323 149124.898 -103883.636 149143.466 -103848.897 149168.452 -103818.452 149198.897 -103793.466 149233.636 -103774.898 149271.323 -103763.465 149316.661 -103759 150403.339 -103759 150448.677 -103763.465 150448.677 -103763.465"
         id="path5540" />
      <path
         d="M 157026 -101291 155174 -101291 155174 -100639 157026 -100639 157026 -101291 157026 -101291"
         id="path5542" />
      <path
         d="M 149626 -101291 147774 -101291 147774 -100639 149626 -100639 149626 -101291 149626 -101291"
         id="path5544" />
      <path
         d="M 149626 -100021 147774 -100021 147774 -99369 149626 -99369 149626 -100021 149626 -100021"
         id="path5546" />
      <path
         d="M 157026 -100021 155174 -100021 155174 -99369 157026 -99369 157026 -100021 157026 -100021"
         id="path5548" />
      <path
         d="M 157026 -98751 155174 -98751 155174 -98099 157026 -98099 157026 -98751 157026 -98751"
         id="path5550" />
      <path
         d="M 149626 -98751 147774 -98751 147774 -98099 149626 -98099 149626 -98751 149626 -98751"
         id="path5552" />
      <path
         d="M 149626 -97481 147774 -97481 147774 -96829 149626 -96829 149626 -97481 149626 -97481"
         id="path5554" />
      <path
         d="M 157026 -97481 155174 -97481 155174 -96829 157026 -96829 157026 -97481 157026 -97481"
         id="path5556" />
      <path
         d="M 156428.677 -93233.465 156466.364 -93244.898 156501.103 -93263.466 156531.548 -93288.452 156556.534 -93318.897 156575.102 -93353.636 156586.535 -93391.323 156591 -93436.661 156591 -94523.339 156586.535 -94568.677 156575.102 -94606.364 156556.534 -94641.103 156531.548 -94671.548 156501.103 -94696.534 156466.364 -94715.102 156428.677 -94726.535 156383.339 -94731 155546.661 -94731 155501.323 -94726.535 155463.636 -94715.102 155428.897 -94696.534 155398.452 -94671.548 155373.466 -94641.103 155354.898 -94606.364 155343.465 -94568.677 155339 -94523.339 155339 -93436.661 155343.465 -93391.323 155354.898 -93353.636 155373.466 -93318.897 155398.452 -93288.452 155428.897 -93263.466 155463.636 -93244.898 155501.323 -93233.465 155546.661 -93229 156383.339 -93229 156428.677 -93233.465 156428.677 -93233.465"
         id="path5558" />
      <path
         d="M 154378.677 -93233.465 154416.364 -93244.898 154451.103 -93263.466 154481.548 -93288.452 154506.534 -93318.897 154525.102 -93353.636 154536.535 -93391.323 154541 -93436.661 154541 -94523.339 154536.535 -94568.677 154525.102 -94606.364 154506.534 -94641.103 154481.548 -94671.548 154451.103 -94696.534 154416.364 -94715.102 154378.677 -94726.535 154333.339 -94731 153496.661 -94731 153451.323 -94726.535 153413.636 -94715.102 153378.897 -94696.534 153348.452 -94671.548 153323.466 -94641.103 153304.898 -94606.364 153293.465 -94568.677 153289 -94523.339 153289 -93436.661 153293.465 -93391.323 153304.898 -93353.636 153323.466 -93318.897 153348.452 -93288.452 153378.897 -93263.466 153413.636 -93244.898 153451.323 -93233.465 153496.661 -93229 154333.339 -93229 154378.677 -93233.465 154378.677 -93233.465"
         id="path5560" />
      <path
         d="M 151348.677 -93233.465 151386.364 -93244.898 151421.103 -93263.466 151451.548 -93288.452 151476.534 -93318.897 151495.102 -93353.636 151506.535 -93391.323 151511 -93436.661 151511 -94523.339 151506.535 -94568.677 151495.102 -94606.364 151476.534 -94641.103 151451.548 -94671.548 151421.103 -94696.534 151386.364 -94715.102 151348.677 -94726.535 151303.339 -94731 150466.661 -94731 150421.323 -94726.535 150383.636 -94715.102 150348.897 -94696.534 150318.452 -94671.548 150293.466 -94641.103 150274.898 -94606.364 150263.465 -94568.677 150259 -94523.339 150259 -93436.661 150263.465 -93391.323 150274.898 -93353.636 150293.466 -93318.897 150318.452 -93288.452 150348.897 -93263.466 150383.636 -93244.898 150421.323 -93233.465 150466.661 -93229 151303.339 -93229 151348.677 -93233.465 151348.677 -93233.465"
         id="path5562" />
      <path
         d="M 149298.677 -93233.465 149336.364 -93244.898 149371.103 -93263.466 149401.548 -93288.452 149426.534 -93318.897 149445.102 -93353.636 149456.535 -93391.323 149461 -93436.661 149461 -94523.339 149456.535 -94568.677 149445.102 -94606.364 149426.534 -94641.103 149401.548 -94671.548 149371.103 -94696.534 149336.364 -94715.102 149298.677 -94726.535 149253.339 -94731 148416.661 -94731 148371.323 -94726.535 148333.636 -94715.102 148298.897 -94696.534 148268.452 -94671.548 148243.466 -94641.103 148224.898 -94606.364 148213.465 -94568.677 148209 -94523.339 148209 -93436.661 148213.465 -93391.323 148224.898 -93353.636 148243.466 -93318.897 148268.452 -93288.452 148298.897 -93263.466 148333.636 -93244.898 148371.323 -93233.465 148416.661 -93229 149253.339 -93229 149298.677 -93233.465 149298.677 -93233.465"
         id="path5564" />
      <path
         d="M 146668.443 -92745.224 146734.627 -92751.742 146847.853 -92786.089 146904.467 -92803.262 147043.087 -92877.357 147060.991 -92886.927 147096.729 -92916.257 147198.186 -92999.519 147281.448 -93100.976 147310.778 -93136.714 147310.779 -93136.716 147394.443 -93293.238 147402.226 -93318.897 147445.963 -93463.078 147463.359 -93639.705 147445.963 -93816.332 147411.616 -93929.558 147394.443 -93986.172 147320.348 -94124.792 147310.778 -94142.696 147281.448 -94178.434 147198.186 -94279.891 147096.729 -94363.153 147060.991 -94392.483 147060.989 -94392.484 146904.467 -94476.148 146847.853 -94493.321 146734.627 -94527.668 146668.442 -94534.187 146602.26 -94540.705 146513.74 -94540.705 146447.557 -94534.186 146381.373 -94527.668 146268.147 -94493.321 146211.533 -94476.148 146055.011 -94392.484 146055.009 -94392.483 146019.271 -94363.153 145917.814 -94279.891 145834.552 -94178.434 145805.222 -94142.696 145795.652 -94124.792 145721.557 -93986.172 145704.384 -93929.558 145670.037 -93816.332 145652.641 -93639.705 145670.037 -93463.078 145713.774 -93318.897 145721.557 -93293.238 145805.221 -93136.716 145805.222 -93136.714 145834.552 -93100.976 145917.814 -92999.519 146019.271 -92916.257 146055.009 -92886.927 146072.913 -92877.357 146211.533 -92803.262 146268.147 -92786.089 146381.373 -92751.742 146447.558 -92745.223 146513.74 -92738.705 146602.26 -92738.705 146668.443 -92745.224 146668.443 -92745.224"
         id="path5566" />
      <path
         d="M 158352.443 -92745.224 158418.627 -92751.742 158531.853 -92786.089 158588.467 -92803.262 158727.087 -92877.357 158744.991 -92886.927 158780.729 -92916.257 158882.186 -92999.519 158965.448 -93100.976 158994.778 -93136.714 158994.779 -93136.716 159078.443 -93293.238 159086.226 -93318.897 159129.963 -93463.078 159147.359 -93639.705 159129.963 -93816.332 159095.616 -93929.558 159078.443 -93986.172 159004.348 -94124.792 158994.778 -94142.696 158965.448 -94178.434 158882.186 -94279.891 158780.729 -94363.153 158744.991 -94392.483 158744.989 -94392.484 158588.467 -94476.148 158531.853 -94493.321 158418.627 -94527.668 158352.442 -94534.187 158286.26 -94540.705 158197.74 -94540.705 158131.557 -94534.186 158065.373 -94527.668 157952.147 -94493.321 157895.533 -94476.148 157739.011 -94392.484 157739.009 -94392.483 157703.271 -94363.153 157601.814 -94279.891 157518.552 -94178.434 157489.222 -94142.696 157479.652 -94124.792 157405.557 -93986.172 157388.384 -93929.558 157354.037 -93816.332 157336.641 -93639.705 157354.037 -93463.078 157397.774 -93318.897 157405.557 -93293.238 157489.221 -93136.716 157489.222 -93136.714 157518.552 -93100.976 157601.814 -92999.519 157703.271 -92916.257 157739.009 -92886.927 157756.913 -92877.357 157895.533 -92803.262 157952.147 -92786.089 158065.373 -92751.742 158131.558 -92745.223 158197.74 -92738.705 158286.26 -92738.705 158352.443 -92745.224 158352.443 -92745.224"
         id="path5568" />
      <path
         d="M 147938.443 -90545.519 148004.627 -90552.037 148117.853 -90586.384 148174.467 -90603.557 148313.087 -90677.652 148330.991 -90687.222 148339.53 -90694.23 148468.186 -90799.814 148547.665 -90896.661 148580.778 -90937.009 148580.779 -90937.011 148664.443 -91093.533 148664.443 -91093.534 148715.963 -91263.373 148733.359 -91440 148715.963 -91616.627 148681.616 -91729.853 148664.443 -91786.467 148593.694 -91918.827 148580.778 -91942.991 148557.032 -91971.925 148468.186 -92080.186 148389.049 -92145.131 148330.991 -92192.778 148330.989 -92192.779 148174.467 -92276.443 148117.853 -92293.616 148004.627 -92327.963 147938.443 -92334.481 147872.26 -92341 147783.74 -92341 147717.557 -92334.481 147651.373 -92327.963 147538.147 -92293.616 147481.533 -92276.443 147325.011 -92192.779 147325.009 -92192.778 147266.951 -92145.131 147187.814 -92080.186 147098.968 -91971.925 147075.222 -91942.991 147062.306 -91918.827 146991.557 -91786.467 146974.384 -91729.853 146940.037 -91616.627 146922.641 -91440 146940.037 -91263.373 146991.557 -91093.534 146991.557 -91093.533 147075.221 -90937.011 147075.222 -90937.009 147108.335 -90896.661 147187.814 -90799.814 147316.47 -90694.23 147325.009 -90687.222 147342.913 -90677.652 147481.533 -90603.557 147538.147 -90586.384 147651.373 -90552.037 147717.557 -90545.519 147783.74 -90539 147872.26 -90539 147938.443 -90545.519 147938.443 -90545.519"
         id="path5570" />
      <path
         d="M 157082.443 -90545.519 157148.627 -90552.037 157261.853 -90586.384 157318.467 -90603.557 157457.087 -90677.652 157474.991 -90687.222 157483.53 -90694.23 157612.186 -90799.814 157691.665 -90896.661 157724.778 -90937.009 157724.779 -90937.011 157808.443 -91093.533 157808.443 -91093.534 157859.963 -91263.373 157877.359 -91440 157859.963 -91616.627 157825.616 -91729.853 157808.443 -91786.467 157737.694 -91918.827 157724.778 -91942.991 157701.032 -91971.925 157612.186 -92080.186 157533.049 -92145.131 157474.991 -92192.778 157474.989 -92192.779 157318.467 -92276.443 157261.853 -92293.616 157148.627 -92327.963 157082.443 -92334.481 157016.26 -92341 156927.74 -92341 156861.557 -92334.481 156795.373 -92327.963 156682.147 -92293.616 156625.533 -92276.443 156469.011 -92192.779 156469.009 -92192.778 156410.951 -92145.131 156331.814 -92080.186 156242.968 -91971.925 156219.222 -91942.991 156206.306 -91918.827 156135.557 -91786.467 156118.384 -91729.853 156084.037 -91616.627 156066.641 -91440 156084.037 -91263.373 156135.557 -91093.534 156135.557 -91093.533 156219.221 -90937.011 156219.222 -90937.009 156252.335 -90896.661 156331.814 -90799.814 156460.47 -90694.23 156469.009 -90687.222 156486.913 -90677.652 156625.533 -90603.557 156682.147 -90586.384 156795.373 -90552.037 156861.558 -90545.518 156927.74 -90539 157016.26 -90539 157082.443 -90545.519 157082.443 -90545.519"
         id="path5572" />
      <path
         d="M 151838.677 -90693.465 151876.364 -90704.898 151911.103 -90723.466 151941.548 -90748.452 151966.534 -90778.897 151985.102 -90813.636 151996.535 -90851.323 152001 -90896.661 152001 -91983.339 151996.535 -92028.677 151985.102 -92066.364 151966.534 -92101.103 151941.548 -92131.548 151911.103 -92156.534 151876.364 -92175.102 151838.677 -92186.535 151793.339 -92191 150956.661 -92191 150911.323 -92186.535 150873.636 -92175.102 150838.897 -92156.534 150808.452 -92131.548 150783.466 -92101.103 150764.898 -92066.364 150753.465 -92028.677 150749 -91983.339 150749 -90896.661 150753.465 -90851.323 150764.898 -90813.636 150783.466 -90778.897 150808.452 -90748.452 150838.897 -90723.466 150873.636 -90704.898 150911.323 -90693.465 150956.661 -90689 151793.339 -90689 151838.677 -90693.465 151838.677 -90693.465"
         id="path5574" />
      <path
         d="M 153888.677 -90693.465 153926.364 -90704.898 153961.103 -90723.466 153991.548 -90748.452 154016.534 -90778.897 154035.102 -90813.636 154046.535 -90851.323 154051 -90896.661 154051 -91983.339 154046.535 -92028.677 154035.102 -92066.364 154016.534 -92101.103 153991.548 -92131.548 153961.103 -92156.534 153926.364 -92175.102 153888.677 -92186.535 153843.339 -92191 153006.661 -92191 152961.323 -92186.535 152923.636 -92175.102 152888.897 -92156.534 152858.452 -92131.548 152833.466 -92101.103 152814.898 -92066.364 152803.465 -92028.677 152799 -91983.339 152799 -90896.661 152803.465 -90851.323 152814.898 -90813.636 152833.466 -90778.897 152858.452 -90748.452 152888.897 -90723.466 152923.636 -90704.898 152961.323 -90693.465 153006.661 -90689 153843.339 -90689 153888.677 -90693.465 153888.677 -90693.465"
         id="path5576" />
    </g>
    <g
       id="BVbtwDY_HCJXS4DV3AxL_top_silkscreen">
      <path
         d="M 154230 -105671.252 154230 -105148.748 M 155650 -105671.252 155650 -105148.748 M 148860 -94940 151720 -94940 151720 -93020 148860 -93020 M 151440 -104410 151440 -107270 153360 -107270 153360 -104410 M 149150 -110228.748 149150 -110751.252 M 150570 -110228.748 150570 -110751.252 M 150570 -105148.748 150570 -105671.252 M 149150 -105148.748 149150 -105671.252 M 154230 -110228.748 154230 -110751.252 M 155650 -110228.748 155650 -110751.252 M 152138.748 -92150 152661.252 -92150 M 152138.748 -90730 152661.252 -90730 M 154678.748 -93270 155201.252 -93270 M 154678.748 -94690 155201.252 -94690 M 153110 -110208.748 153110 -110731.252 M 151690 -110208.748 151690 -110731.252"
         fill="none"
         stroke-width="120"
         id="path5579" />
      <path
         d="M 149650 -95855 149650 -96510 M 155150 -95855 155150 -96605 M 155150 -102265 155150 -101515 M 149650 -102265 149650 -101515 M 149650 -95855 155150 -95855 M 149650 -102265 155150 -102265 M 149650 -96510 147900 -96510"
         fill="none"
         stroke-width="150"
         id="path5581" />
    </g>
    <g
       id="BVbtwDY_HCJXS4DV3AxL_top_drill1"
       transform="scale(25.4,25.4)">
      <use
         xlink:href="#EgbubYCeWvsXBx5IvUOB_pad-1"
         x="5770"
         y="-3925"
         id="use5584" />
      <use
         xlink:href="#EgbubYCeWvsXBx5IvUOB_pad-1"
         x="5820"
         y="-4180"
         id="use5586" />
      <use
         xlink:href="#EgbubYCeWvsXBx5IvUOB_pad-1"
         x="6145"
         y="-3780"
         id="use5588" />
      <use
         xlink:href="#EgbubYCeWvsXBx5IvUOB_pad-1"
         x="6160"
         y="-4260"
         id="use5590" />
      <use
         xlink:href="#EgbubYCeWvsXBx5IvUOB_pad-1"
         x="6180"
         y="-4180"
         id="use5592" />
      <use
         xlink:href="#EgbubYCeWvsXBx5IvUOB_pad-2"
         x="5770"
         y="-3686.6"
         id="use5594" />
      <use
         xlink:href="#EgbubYCeWvsXBx5IvUOB_pad-2"
         x="5820"
         y="-3600"
         id="use5596" />
      <use
         xlink:href="#EgbubYCeWvsXBx5IvUOB_pad-2"
         x="6180"
         y="-3600"
         id="use5598" />
      <use
         xlink:href="#EgbubYCeWvsXBx5IvUOB_pad-2"
         x="6230"
         y="-3686.6"
         id="use5600" />
    </g>
    <clipPath
       id="BVbtwDY_HCJXS4DV3AxL_top_outline">
      <path
         d="M 144780 -92456 146304 -89916 158496 -89916 160020 -92456 160020 -106680 157480 -111760 154940 -114300 149860 -114300 147320 -111760 144780 -106680 144780 -92456"
         fill="none"
         stroke-width="150"
         id="path5603" />
    </clipPath>
    <mask
       id="BVbtwDY_HCJXS4DV3AxL_top_mech-mask">
      <g
         fill="#000"
         stroke="#000"
         id="g5606">
        <rect
           x="144780"
           y="-114300"
           width="15240"
           height="24384"
           fill="#fff"
           id="rect5608" />
        <use
           xlink:href="#BVbtwDY_HCJXS4DV3AxL_top_drill1"
           id="use5610" />
      </g>
    </mask>
    <mask
       id="BVbtwDY_HCJXS4DV3AxL_top_cf-mask">
      <g
         fill="#fff"
         stroke="#fff"
         id="g5613">
        <use
           xlink:href="#BVbtwDY_HCJXS4DV3AxL_top_soldermask"
           id="use5615" />
      </g>
    </mask>
    <mask
       id="BVbtwDY_HCJXS4DV3AxL_top_sm-mask">
      <g
         fill="#000"
         stroke="#000"
         id="g5618">
        <rect
           x="144780"
           y="-114300"
           width="15240"
           height="24384"
           fill="#fff"
           id="rect5620" />
        <use
           xlink:href="#BVbtwDY_HCJXS4DV3AxL_top_soldermask"
           id="use5622" />
      </g>
    </mask>
  </defs>
  <g
     inkscape:groupmode="layer"
     id="layer1"
     inkscape:label="background"
     sodipodi:insensitive="true">
    <rect
       style="opacity:1;fill:#222222;fill-opacity:1;stroke:none;stroke-width:0.89999998;stroke-linejoin:miter;stroke-miterlimit:4;stroke-dasharray:none;stroke-opacity:1"
       id="rect5654"
       width="15240"
       height="24384"
       x="144780"
       y="-114300.01" />
  </g>
  <g
     inkscape:groupmode="layer"
     id="layer2"
     inkscape:label="image"
     sodipodi:insensitive="true">
    <g
       transform="matrix(1.0000008,0,0,-1.0000008,-5.3934756e-4,-204216)"
       id="g5624">
      <g
         mask="url(#BVbtwDY_HCJXS4DV3AxL_top_mech-mask)"
         clip-path="url(#BVbtwDY_HCJXS4DV3AxL_top_outline)"
         id="g5626">
        <rect
           x="144780"
           y="-114300"
           width="15240"
           height="24384"
           class="BVbtwDY_HCJXS4DV3AxL_fr4"
           id="rect5628"
           style="color:#666666;fill:currentColor" />
        <use
           xlink:href="#BVbtwDY_HCJXS4DV3AxL_top_copper"
           class="BVbtwDY_HCJXS4DV3AxL_cu"
           id="use5630"
           style="color:#cccccc;fill:currentColor;stroke:currentColor"
           x="0"
           y="0"
           width="100%"
           height="100%" />
        <use
           xlink:href="#BVbtwDY_HCJXS4DV3AxL_top_copper"
           class="BVbtwDY_HCJXS4DV3AxL_cf"
           mask="url(#BVbtwDY_HCJXS4DV3AxL_top_cf-mask)"
           id="use5632"
           style="color:#cc9933;fill:currentColor;stroke:currentColor"
           x="0"
           y="0"
           width="100%"
           height="100%" />
        <g
           mask="url(#BVbtwDY_HCJXS4DV3AxL_top_sm-mask)"
           id="g5634">
          <rect
             x="144780"
             y="-114300"
             width="15240"
             height="24384"
             class="BVbtwDY_HCJXS4DV3AxL_sm"
             id="rect5636"
             style="color:#4b0082;opacity:0.75;fill:currentColor" />
          <use
             xlink:href="#BVbtwDY_HCJXS4DV3AxL_top_silkscreen"
             class="BVbtwDY_HCJXS4DV3AxL_ss"
             id="use5638"
             style="color:#ffffff;fill:currentColor;stroke:currentColor"
             x="0"
             y="0"
             width="100%"
             height="100%" />
        </g>
      </g>
    </g>
  </g>
</svg>
