G04 #@! TF.GenerationSoftware,KiCad,Pcbnew,5.0.2-bee76a0~70~ubuntu16.04.1*
G04 #@! TF.CreationDate,2020-01-28T21:52:51-08:00*
G04 #@! TF.ProjectId,touch-circuit-v1,746f7563-682d-4636-9972-637569742d76,rev?*
G04 #@! TF.SameCoordinates,Original*
G04 #@! TF.FileFunction,Other,Fab,Top*
%FSLAX46Y46*%
G04 Gerber Fmt 4.6, Leading zero omitted, Abs format (unit mm)*
G04 Created by KiCad (PCBNEW 5.0.2-bee76a0~70~ubuntu16.04.1) date Tue 28 Jan 2020 09:52:51 PM PST*
%MOMM*%
%LPD*%
G01*
G04 APERTURE LIST*
%ADD10C,0.100000*%
%ADD11C,0.150000*%
%ADD12C,0.080000*%
G04 APERTURE END LIST*
D10*
G04 #@! TO.C,J2*
X159189941Y-94265586D02*
X159375882Y-93571645D01*
X157616118Y-94587645D02*
X158310059Y-94773586D01*
X156903941Y-90306118D02*
X157597882Y-90492059D01*
X155838118Y-91508059D02*
X156024059Y-90814118D01*
X157616118Y-94587645D02*
X155838118Y-91508059D01*
X159189941Y-94265586D02*
X158310059Y-94773586D01*
X157597882Y-90492059D02*
X159375882Y-93571645D01*
X156024059Y-90814118D02*
X156903941Y-90306118D01*
G04 #@! TO.C,J1*
X146489941Y-94773586D02*
X147183882Y-94587645D01*
X145424118Y-93571645D02*
X145610059Y-94265586D01*
X148775941Y-90814118D02*
X148961882Y-91508059D01*
X147202118Y-90492059D02*
X147896059Y-90306118D01*
X145424118Y-93571645D02*
X147202118Y-90492059D01*
X146489941Y-94773586D02*
X145610059Y-94265586D01*
X148961882Y-91508059D02*
X147183882Y-94587645D01*
X147896059Y-90306118D02*
X148775941Y-90814118D01*
G04 #@! TO.C,C1*
X155540000Y-106410000D02*
X154340000Y-106410000D01*
X154340000Y-106410000D02*
X154340000Y-104410000D01*
X154340000Y-104410000D02*
X155540000Y-104410000D01*
X155540000Y-104410000D02*
X155540000Y-106410000D01*
G04 #@! TO.C,D1*
X148860000Y-94580000D02*
X150560000Y-94580000D01*
X150560000Y-94580000D02*
X150860000Y-94280000D01*
X150860000Y-94280000D02*
X150860000Y-93380000D01*
X150860000Y-93380000D02*
X148860000Y-93380000D01*
X148860000Y-93380000D02*
X148860000Y-94580000D01*
G04 #@! TO.C,D2*
X151800000Y-104410000D02*
X151800000Y-106110000D01*
X151800000Y-106110000D02*
X152100000Y-106410000D01*
X152100000Y-106410000D02*
X153000000Y-106410000D01*
X153000000Y-106410000D02*
X153000000Y-104410000D01*
X153000000Y-104410000D02*
X151800000Y-104410000D01*
G04 #@! TO.C,R1*
X149260000Y-111490000D02*
X149260000Y-109490000D01*
X150460000Y-111490000D02*
X149260000Y-111490000D01*
X150460000Y-109490000D02*
X150460000Y-111490000D01*
X149260000Y-109490000D02*
X150460000Y-109490000D01*
G04 #@! TO.C,R2*
X149260000Y-104410000D02*
X150460000Y-104410000D01*
X150460000Y-104410000D02*
X150460000Y-106410000D01*
X150460000Y-106410000D02*
X149260000Y-106410000D01*
X149260000Y-106410000D02*
X149260000Y-104410000D01*
G04 #@! TO.C,R3*
X154340000Y-111490000D02*
X154340000Y-109490000D01*
X155540000Y-111490000D02*
X154340000Y-111490000D01*
X155540000Y-109490000D02*
X155540000Y-111490000D01*
X154340000Y-109490000D02*
X155540000Y-109490000D01*
G04 #@! TO.C,R4*
X153400000Y-92040000D02*
X151400000Y-92040000D01*
X153400000Y-90840000D02*
X153400000Y-92040000D01*
X151400000Y-90840000D02*
X153400000Y-90840000D01*
X151400000Y-92040000D02*
X151400000Y-90840000D01*
G04 #@! TO.C,R5*
X153940000Y-94580000D02*
X153940000Y-93380000D01*
X153940000Y-93380000D02*
X155940000Y-93380000D01*
X155940000Y-93380000D02*
X155940000Y-94580000D01*
X155940000Y-94580000D02*
X153940000Y-94580000D01*
G04 #@! TO.C,R6*
X151800000Y-109470000D02*
X153000000Y-109470000D01*
X153000000Y-109470000D02*
X153000000Y-111470000D01*
X153000000Y-111470000D02*
X151800000Y-111470000D01*
X151800000Y-111470000D02*
X151800000Y-109470000D01*
D11*
G04 #@! TO.C,U1*
X150750000Y-95960000D02*
X155050000Y-95960000D01*
X155050000Y-95960000D02*
X155050000Y-102160000D01*
X155050000Y-102160000D02*
X149750000Y-102160000D01*
X149750000Y-102160000D02*
X149750000Y-96960000D01*
X149750000Y-96960000D02*
X150750000Y-95960000D01*
G04 #@! TD*
G04 #@! TO.C,J2*
X157914585Y-91977367D02*
X157295995Y-92334510D01*
X157148468Y-92364699D01*
X157018370Y-92329839D01*
X156905702Y-92229931D01*
X156858083Y-92147452D01*
X158046392Y-92396140D02*
X158111441Y-92413569D01*
X158200299Y-92472239D01*
X158319347Y-92678435D01*
X158325726Y-92784723D01*
X158308297Y-92849772D01*
X158249628Y-92938630D01*
X158167149Y-92986249D01*
X158019622Y-93016439D01*
X157239036Y-92807281D01*
X157548559Y-93343392D01*
G04 #@! TO.C,J1*
X146552081Y-92554717D02*
X147170670Y-92911860D01*
X147270579Y-93024528D01*
X147305438Y-93154626D01*
X147275249Y-93302153D01*
X147227630Y-93384632D01*
X147918106Y-92188692D02*
X147632392Y-92683563D01*
X147775249Y-92436128D02*
X146909224Y-91936128D01*
X146985323Y-92090035D01*
X147020182Y-92220132D01*
X147013802Y-92326421D01*
G04 #@! TO.C,C1*
D12*
X155118571Y-105493333D02*
X155142380Y-105517142D01*
X155166190Y-105588571D01*
X155166190Y-105636190D01*
X155142380Y-105707619D01*
X155094761Y-105755238D01*
X155047142Y-105779047D01*
X154951904Y-105802857D01*
X154880476Y-105802857D01*
X154785238Y-105779047D01*
X154737619Y-105755238D01*
X154690000Y-105707619D01*
X154666190Y-105636190D01*
X154666190Y-105588571D01*
X154690000Y-105517142D01*
X154713809Y-105493333D01*
X155166190Y-105017142D02*
X155166190Y-105302857D01*
X155166190Y-105160000D02*
X154666190Y-105160000D01*
X154737619Y-105207619D01*
X154785238Y-105255238D01*
X154809047Y-105302857D01*
G04 #@! TO.C,D1*
X149490952Y-94206190D02*
X149490952Y-93706190D01*
X149610000Y-93706190D01*
X149681428Y-93730000D01*
X149729047Y-93777619D01*
X149752857Y-93825238D01*
X149776666Y-93920476D01*
X149776666Y-93991904D01*
X149752857Y-94087142D01*
X149729047Y-94134761D01*
X149681428Y-94182380D01*
X149610000Y-94206190D01*
X149490952Y-94206190D01*
X150252857Y-94206190D02*
X149967142Y-94206190D01*
X150110000Y-94206190D02*
X150110000Y-93706190D01*
X150062380Y-93777619D01*
X150014761Y-93825238D01*
X149967142Y-93849047D01*
G04 #@! TO.C,D2*
D11*
X151757142Y-104084380D02*
X151280952Y-104084380D01*
X151280952Y-103084380D01*
X152090476Y-103560571D02*
X152423809Y-103560571D01*
X152566666Y-104084380D02*
X152090476Y-104084380D01*
X152090476Y-103084380D01*
X152566666Y-103084380D01*
X152995238Y-104084380D02*
X152995238Y-103084380D01*
X153233333Y-103084380D01*
X153376190Y-103132000D01*
X153471428Y-103227238D01*
X153519047Y-103322476D01*
X153566666Y-103512952D01*
X153566666Y-103655809D01*
X153519047Y-103846285D01*
X153471428Y-103941523D01*
X153376190Y-104036761D01*
X153233333Y-104084380D01*
X152995238Y-104084380D01*
D12*
X152626190Y-105779047D02*
X152126190Y-105779047D01*
X152126190Y-105660000D01*
X152150000Y-105588571D01*
X152197619Y-105540952D01*
X152245238Y-105517142D01*
X152340476Y-105493333D01*
X152411904Y-105493333D01*
X152507142Y-105517142D01*
X152554761Y-105540952D01*
X152602380Y-105588571D01*
X152626190Y-105660000D01*
X152626190Y-105779047D01*
X152173809Y-105302857D02*
X152150000Y-105279047D01*
X152126190Y-105231428D01*
X152126190Y-105112380D01*
X152150000Y-105064761D01*
X152173809Y-105040952D01*
X152221428Y-105017142D01*
X152269047Y-105017142D01*
X152340476Y-105040952D01*
X152626190Y-105326666D01*
X152626190Y-105017142D01*
G04 #@! TO.C,R1*
X150086190Y-110573333D02*
X149848095Y-110740000D01*
X150086190Y-110859047D02*
X149586190Y-110859047D01*
X149586190Y-110668571D01*
X149610000Y-110620952D01*
X149633809Y-110597142D01*
X149681428Y-110573333D01*
X149752857Y-110573333D01*
X149800476Y-110597142D01*
X149824285Y-110620952D01*
X149848095Y-110668571D01*
X149848095Y-110859047D01*
X150086190Y-110097142D02*
X150086190Y-110382857D01*
X150086190Y-110240000D02*
X149586190Y-110240000D01*
X149657619Y-110287619D01*
X149705238Y-110335238D01*
X149729047Y-110382857D01*
G04 #@! TO.C,R2*
X150086190Y-105493333D02*
X149848095Y-105660000D01*
X150086190Y-105779047D02*
X149586190Y-105779047D01*
X149586190Y-105588571D01*
X149610000Y-105540952D01*
X149633809Y-105517142D01*
X149681428Y-105493333D01*
X149752857Y-105493333D01*
X149800476Y-105517142D01*
X149824285Y-105540952D01*
X149848095Y-105588571D01*
X149848095Y-105779047D01*
X149633809Y-105302857D02*
X149610000Y-105279047D01*
X149586190Y-105231428D01*
X149586190Y-105112380D01*
X149610000Y-105064761D01*
X149633809Y-105040952D01*
X149681428Y-105017142D01*
X149729047Y-105017142D01*
X149800476Y-105040952D01*
X150086190Y-105326666D01*
X150086190Y-105017142D01*
G04 #@! TO.C,R3*
X155166190Y-110573333D02*
X154928095Y-110740000D01*
X155166190Y-110859047D02*
X154666190Y-110859047D01*
X154666190Y-110668571D01*
X154690000Y-110620952D01*
X154713809Y-110597142D01*
X154761428Y-110573333D01*
X154832857Y-110573333D01*
X154880476Y-110597142D01*
X154904285Y-110620952D01*
X154928095Y-110668571D01*
X154928095Y-110859047D01*
X154666190Y-110406666D02*
X154666190Y-110097142D01*
X154856666Y-110263809D01*
X154856666Y-110192380D01*
X154880476Y-110144761D01*
X154904285Y-110120952D01*
X154951904Y-110097142D01*
X155070952Y-110097142D01*
X155118571Y-110120952D01*
X155142380Y-110144761D01*
X155166190Y-110192380D01*
X155166190Y-110335238D01*
X155142380Y-110382857D01*
X155118571Y-110406666D01*
G04 #@! TO.C,R4*
X152316666Y-91666190D02*
X152150000Y-91428095D01*
X152030952Y-91666190D02*
X152030952Y-91166190D01*
X152221428Y-91166190D01*
X152269047Y-91190000D01*
X152292857Y-91213809D01*
X152316666Y-91261428D01*
X152316666Y-91332857D01*
X152292857Y-91380476D01*
X152269047Y-91404285D01*
X152221428Y-91428095D01*
X152030952Y-91428095D01*
X152745238Y-91332857D02*
X152745238Y-91666190D01*
X152626190Y-91142380D02*
X152507142Y-91499523D01*
X152816666Y-91499523D01*
G04 #@! TO.C,R5*
X154856666Y-94206190D02*
X154690000Y-93968095D01*
X154570952Y-94206190D02*
X154570952Y-93706190D01*
X154761428Y-93706190D01*
X154809047Y-93730000D01*
X154832857Y-93753809D01*
X154856666Y-93801428D01*
X154856666Y-93872857D01*
X154832857Y-93920476D01*
X154809047Y-93944285D01*
X154761428Y-93968095D01*
X154570952Y-93968095D01*
X155309047Y-93706190D02*
X155070952Y-93706190D01*
X155047142Y-93944285D01*
X155070952Y-93920476D01*
X155118571Y-93896666D01*
X155237619Y-93896666D01*
X155285238Y-93920476D01*
X155309047Y-93944285D01*
X155332857Y-93991904D01*
X155332857Y-94110952D01*
X155309047Y-94158571D01*
X155285238Y-94182380D01*
X155237619Y-94206190D01*
X155118571Y-94206190D01*
X155070952Y-94182380D01*
X155047142Y-94158571D01*
G04 #@! TO.C,R6*
X152626190Y-110553333D02*
X152388095Y-110720000D01*
X152626190Y-110839047D02*
X152126190Y-110839047D01*
X152126190Y-110648571D01*
X152150000Y-110600952D01*
X152173809Y-110577142D01*
X152221428Y-110553333D01*
X152292857Y-110553333D01*
X152340476Y-110577142D01*
X152364285Y-110600952D01*
X152388095Y-110648571D01*
X152388095Y-110839047D01*
X152126190Y-110124761D02*
X152126190Y-110220000D01*
X152150000Y-110267619D01*
X152173809Y-110291428D01*
X152245238Y-110339047D01*
X152340476Y-110362857D01*
X152530952Y-110362857D01*
X152578571Y-110339047D01*
X152602380Y-110315238D01*
X152626190Y-110267619D01*
X152626190Y-110172380D01*
X152602380Y-110124761D01*
X152578571Y-110100952D01*
X152530952Y-110077142D01*
X152411904Y-110077142D01*
X152364285Y-110100952D01*
X152340476Y-110124761D01*
X152316666Y-110172380D01*
X152316666Y-110267619D01*
X152340476Y-110315238D01*
X152364285Y-110339047D01*
X152411904Y-110362857D01*
G04 #@! TO.C,U1*
D11*
X151638095Y-98512380D02*
X151638095Y-99321904D01*
X151685714Y-99417142D01*
X151733333Y-99464761D01*
X151828571Y-99512380D01*
X152019047Y-99512380D01*
X152114285Y-99464761D01*
X152161904Y-99417142D01*
X152209523Y-99321904D01*
X152209523Y-98512380D01*
X153209523Y-99512380D02*
X152638095Y-99512380D01*
X152923809Y-99512380D02*
X152923809Y-98512380D01*
X152828571Y-98655238D01*
X152733333Y-98750476D01*
X152638095Y-98798095D01*
G04 #@! TD*
M02*
