G04 #@! TF.GenerationSoftware,KiCad,Pcbnew,5.0.2-bee76a0~70~ubuntu16.04.1*
G04 #@! TF.CreationDate,2020-01-28T21:52:51-08:00*
G04 #@! TF.ProjectId,touch-circuit-v1,746f7563-682d-4636-9972-637569742d76,rev?*
G04 #@! TF.SameCoordinates,Original*
G04 #@! TF.FileFunction,Copper,L2,Bot*
G04 #@! TF.FilePolarity,Positive*
%FSLAX46Y46*%
G04 Gerber Fmt 4.6, Leading zero omitted, Abs format (unit mm)*
G04 Created by KiCad (PCBNEW 5.0.2-bee76a0~70~ubuntu16.04.1) date Tue 28 Jan 2020 09:52:51 PM PST*
%MOMM*%
%LPD*%
G01*
G04 APERTURE LIST*
G04 #@! TA.AperFunction,ComponentPad*
%ADD10C,1.700000*%
G04 #@! TD*
G04 #@! TA.AperFunction,Conductor*
%ADD11C,1.700000*%
G04 #@! TD*
G04 #@! TA.AperFunction,SMDPad,CuDef*
%ADD12R,5.100000X2.500000*%
G04 #@! TD*
G04 #@! TA.AperFunction,BGAPad,CuDef*
%ADD13C,10.200000*%
G04 #@! TD*
G04 #@! TA.AperFunction,ViaPad*
%ADD14C,0.800000*%
G04 #@! TD*
G04 #@! TA.AperFunction,Conductor*
%ADD15C,0.250000*%
G04 #@! TD*
G04 #@! TA.AperFunction,Conductor*
%ADD16C,0.381000*%
G04 #@! TD*
G04 #@! TA.AperFunction,Conductor*
%ADD17C,0.254000*%
G04 #@! TD*
G04 APERTURE END LIST*
D10*
G04 #@! TO.P,J2,2*
G04 #@! TO.N,/skin*
X158242000Y-93639705D03*
D11*
G04 #@! TD*
G04 #@! TO.N,/skin*
G04 #@! TO.C,J2*
X158242000Y-93639705D02*
X158242000Y-93639705D01*
D10*
G04 #@! TO.P,J2,1*
G04 #@! TO.N,/skin*
X156972000Y-91440000D03*
D11*
G04 #@! TD*
G04 #@! TO.N,/skin*
G04 #@! TO.C,J2*
X156972000Y-91440000D02*
X156972000Y-91440000D01*
D10*
G04 #@! TO.P,J1,2*
G04 #@! TO.N,/skin*
X146558000Y-93639705D03*
D11*
G04 #@! TD*
G04 #@! TO.N,/skin*
G04 #@! TO.C,J1*
X146558000Y-93639705D02*
X146558000Y-93639705D01*
D10*
G04 #@! TO.P,J1,1*
G04 #@! TO.N,/skin*
X147828000Y-91440000D03*
D11*
G04 #@! TD*
G04 #@! TO.N,/skin*
G04 #@! TO.C,J1*
X147828000Y-91440000D02*
X147828000Y-91440000D01*
D12*
G04 #@! TO.P,BT1,1*
G04 #@! TO.N,+3V3*
X152400000Y-109200000D03*
X152400000Y-94000000D03*
D13*
G04 #@! TO.P,BT1,2*
G04 #@! TO.N,GND*
X152400000Y-101600000D03*
G04 #@! TD*
D14*
G04 #@! TO.N,+3V3*
X156083000Y-96012000D03*
X156464000Y-108204000D03*
G04 #@! TO.N,GND*
X156972000Y-106172000D03*
X147828000Y-106172000D03*
G04 #@! TO.N,/skin*
X146558000Y-99695000D03*
G04 #@! TD*
D15*
G04 #@! TO.N,+3V3*
X155468000Y-94000000D02*
X152400000Y-94000000D01*
X156083000Y-94615000D02*
X155468000Y-94000000D01*
X156083000Y-96012000D02*
X156083000Y-94615000D01*
X155200000Y-109200000D02*
X152400000Y-109200000D01*
X155468000Y-109200000D02*
X155200000Y-109200000D01*
X156464000Y-108204000D02*
X155468000Y-109200000D01*
G04 #@! TO.N,GND*
X151093000Y-101600000D02*
X152400000Y-101600000D01*
X153670000Y-101600000D02*
X152400000Y-101600000D01*
D16*
X148227999Y-105772001D02*
X147828000Y-106172000D01*
X152400000Y-101600000D02*
X148227999Y-105772001D01*
D15*
G04 #@! TO.N,/skin*
X147828000Y-91440000D02*
X156972000Y-91440000D01*
X146558000Y-99695000D02*
X146558000Y-93639705D01*
X147574000Y-91440000D02*
X147828000Y-91440000D01*
X146558000Y-92456000D02*
X147574000Y-91440000D01*
X146558000Y-93639705D02*
X146558000Y-92456000D01*
X157226000Y-91440000D02*
X156972000Y-91440000D01*
X158242000Y-92456000D02*
X157226000Y-91440000D01*
X158242000Y-93639705D02*
X158242000Y-92456000D01*
G04 #@! TD*
D17*
G04 #@! TO.N,GND*
G36*
X149392191Y-92292191D02*
X149251843Y-92502235D01*
X149202560Y-92750000D01*
X149202560Y-95250000D01*
X149251843Y-95497765D01*
X149392191Y-95707809D01*
X149602235Y-95848157D01*
X149850000Y-95897440D01*
X151229083Y-95897440D01*
X149237200Y-96681843D01*
X149066567Y-96795857D01*
X148468354Y-97488749D01*
X152400000Y-101420395D01*
X156331646Y-97488749D01*
X155950259Y-97047000D01*
X156288874Y-97047000D01*
X156669280Y-96889431D01*
X156960431Y-96598280D01*
X157118000Y-96217874D01*
X157118000Y-95806126D01*
X156960431Y-95425720D01*
X156843000Y-95308289D01*
X156843000Y-94689846D01*
X156857888Y-94614999D01*
X156843000Y-94540152D01*
X156843000Y-94540148D01*
X156798904Y-94318463D01*
X156711487Y-94187634D01*
X156673329Y-94130526D01*
X156673327Y-94130524D01*
X156630929Y-94067071D01*
X156567475Y-94024672D01*
X156058330Y-93515529D01*
X156015929Y-93452071D01*
X155764537Y-93284096D01*
X155597440Y-93250858D01*
X155597440Y-92750000D01*
X155548157Y-92502235D01*
X155407809Y-92292191D01*
X155269836Y-92200000D01*
X155693822Y-92200000D01*
X155901375Y-92510625D01*
X156392582Y-92838839D01*
X156825744Y-92925000D01*
X156933557Y-92925000D01*
X156843161Y-93060287D01*
X156727908Y-93639705D01*
X156843161Y-94219123D01*
X157171375Y-94710330D01*
X157662582Y-95038544D01*
X158095744Y-95124705D01*
X158388256Y-95124705D01*
X158821418Y-95038544D01*
X159310001Y-94712083D01*
X159310000Y-106512391D01*
X156896484Y-111339425D01*
X154645910Y-113590000D01*
X150154091Y-113590000D01*
X147903518Y-111339428D01*
X145490000Y-106512393D01*
X145490000Y-105711251D01*
X148468354Y-105711251D01*
X149066567Y-106404143D01*
X151132245Y-107302560D01*
X149850000Y-107302560D01*
X149602235Y-107351843D01*
X149392191Y-107492191D01*
X149251843Y-107702235D01*
X149202560Y-107950000D01*
X149202560Y-110450000D01*
X149251843Y-110697765D01*
X149392191Y-110907809D01*
X149602235Y-111048157D01*
X149850000Y-111097440D01*
X154950000Y-111097440D01*
X155197765Y-111048157D01*
X155407809Y-110907809D01*
X155548157Y-110697765D01*
X155597440Y-110450000D01*
X155597440Y-109949142D01*
X155764537Y-109915904D01*
X156015929Y-109747929D01*
X156058331Y-109684470D01*
X156503802Y-109239000D01*
X156669874Y-109239000D01*
X157050280Y-109081431D01*
X157341431Y-108790280D01*
X157499000Y-108409874D01*
X157499000Y-107998126D01*
X157341431Y-107617720D01*
X157050280Y-107326569D01*
X156669874Y-107169000D01*
X156258126Y-107169000D01*
X155877720Y-107326569D01*
X155586569Y-107617720D01*
X155549262Y-107707788D01*
X155548157Y-107702235D01*
X155407809Y-107492191D01*
X155197765Y-107351843D01*
X154950000Y-107302560D01*
X153570917Y-107302560D01*
X155562800Y-106518157D01*
X155733433Y-106404143D01*
X156331646Y-105711251D01*
X152400000Y-101779605D01*
X148468354Y-105711251D01*
X145490000Y-105711251D01*
X145490000Y-94712084D01*
X145798001Y-94917883D01*
X145798000Y-98991289D01*
X145680569Y-99108720D01*
X145523000Y-99489126D01*
X145523000Y-99900874D01*
X145680569Y-100281280D01*
X145971720Y-100572431D01*
X146352126Y-100730000D01*
X146679386Y-100730000D01*
X146645865Y-102639949D01*
X147481843Y-104762800D01*
X147595857Y-104933433D01*
X148288749Y-105531646D01*
X152220395Y-101600000D01*
X152579605Y-101600000D01*
X156511251Y-105531646D01*
X157204143Y-104933433D01*
X158114099Y-102841224D01*
X158154135Y-100560051D01*
X157318157Y-98437200D01*
X157204143Y-98266567D01*
X156511251Y-97668354D01*
X152579605Y-101600000D01*
X152220395Y-101600000D01*
X148288749Y-97668354D01*
X147595857Y-98266567D01*
X147318000Y-98905427D01*
X147318000Y-94917883D01*
X147628625Y-94710330D01*
X147956839Y-94219123D01*
X148072092Y-93639705D01*
X147956839Y-93060287D01*
X147866443Y-92925000D01*
X147974256Y-92925000D01*
X148407418Y-92838839D01*
X148898625Y-92510625D01*
X149106178Y-92200000D01*
X149530164Y-92200000D01*
X149392191Y-92292191D01*
X149392191Y-92292191D01*
G37*
X149392191Y-92292191D02*
X149251843Y-92502235D01*
X149202560Y-92750000D01*
X149202560Y-95250000D01*
X149251843Y-95497765D01*
X149392191Y-95707809D01*
X149602235Y-95848157D01*
X149850000Y-95897440D01*
X151229083Y-95897440D01*
X149237200Y-96681843D01*
X149066567Y-96795857D01*
X148468354Y-97488749D01*
X152400000Y-101420395D01*
X156331646Y-97488749D01*
X155950259Y-97047000D01*
X156288874Y-97047000D01*
X156669280Y-96889431D01*
X156960431Y-96598280D01*
X157118000Y-96217874D01*
X157118000Y-95806126D01*
X156960431Y-95425720D01*
X156843000Y-95308289D01*
X156843000Y-94689846D01*
X156857888Y-94614999D01*
X156843000Y-94540152D01*
X156843000Y-94540148D01*
X156798904Y-94318463D01*
X156711487Y-94187634D01*
X156673329Y-94130526D01*
X156673327Y-94130524D01*
X156630929Y-94067071D01*
X156567475Y-94024672D01*
X156058330Y-93515529D01*
X156015929Y-93452071D01*
X155764537Y-93284096D01*
X155597440Y-93250858D01*
X155597440Y-92750000D01*
X155548157Y-92502235D01*
X155407809Y-92292191D01*
X155269836Y-92200000D01*
X155693822Y-92200000D01*
X155901375Y-92510625D01*
X156392582Y-92838839D01*
X156825744Y-92925000D01*
X156933557Y-92925000D01*
X156843161Y-93060287D01*
X156727908Y-93639705D01*
X156843161Y-94219123D01*
X157171375Y-94710330D01*
X157662582Y-95038544D01*
X158095744Y-95124705D01*
X158388256Y-95124705D01*
X158821418Y-95038544D01*
X159310001Y-94712083D01*
X159310000Y-106512391D01*
X156896484Y-111339425D01*
X154645910Y-113590000D01*
X150154091Y-113590000D01*
X147903518Y-111339428D01*
X145490000Y-106512393D01*
X145490000Y-105711251D01*
X148468354Y-105711251D01*
X149066567Y-106404143D01*
X151132245Y-107302560D01*
X149850000Y-107302560D01*
X149602235Y-107351843D01*
X149392191Y-107492191D01*
X149251843Y-107702235D01*
X149202560Y-107950000D01*
X149202560Y-110450000D01*
X149251843Y-110697765D01*
X149392191Y-110907809D01*
X149602235Y-111048157D01*
X149850000Y-111097440D01*
X154950000Y-111097440D01*
X155197765Y-111048157D01*
X155407809Y-110907809D01*
X155548157Y-110697765D01*
X155597440Y-110450000D01*
X155597440Y-109949142D01*
X155764537Y-109915904D01*
X156015929Y-109747929D01*
X156058331Y-109684470D01*
X156503802Y-109239000D01*
X156669874Y-109239000D01*
X157050280Y-109081431D01*
X157341431Y-108790280D01*
X157499000Y-108409874D01*
X157499000Y-107998126D01*
X157341431Y-107617720D01*
X157050280Y-107326569D01*
X156669874Y-107169000D01*
X156258126Y-107169000D01*
X155877720Y-107326569D01*
X155586569Y-107617720D01*
X155549262Y-107707788D01*
X155548157Y-107702235D01*
X155407809Y-107492191D01*
X155197765Y-107351843D01*
X154950000Y-107302560D01*
X153570917Y-107302560D01*
X155562800Y-106518157D01*
X155733433Y-106404143D01*
X156331646Y-105711251D01*
X152400000Y-101779605D01*
X148468354Y-105711251D01*
X145490000Y-105711251D01*
X145490000Y-94712084D01*
X145798001Y-94917883D01*
X145798000Y-98991289D01*
X145680569Y-99108720D01*
X145523000Y-99489126D01*
X145523000Y-99900874D01*
X145680569Y-100281280D01*
X145971720Y-100572431D01*
X146352126Y-100730000D01*
X146679386Y-100730000D01*
X146645865Y-102639949D01*
X147481843Y-104762800D01*
X147595857Y-104933433D01*
X148288749Y-105531646D01*
X152220395Y-101600000D01*
X152579605Y-101600000D01*
X156511251Y-105531646D01*
X157204143Y-104933433D01*
X158114099Y-102841224D01*
X158154135Y-100560051D01*
X157318157Y-98437200D01*
X157204143Y-98266567D01*
X156511251Y-97668354D01*
X152579605Y-101600000D01*
X152220395Y-101600000D01*
X148288749Y-97668354D01*
X147595857Y-98266567D01*
X147318000Y-98905427D01*
X147318000Y-94917883D01*
X147628625Y-94710330D01*
X147956839Y-94219123D01*
X148072092Y-93639705D01*
X147956839Y-93060287D01*
X147866443Y-92925000D01*
X147974256Y-92925000D01*
X148407418Y-92838839D01*
X148898625Y-92510625D01*
X149106178Y-92200000D01*
X149530164Y-92200000D01*
X149392191Y-92292191D01*
G04 #@! TD*
M02*
