G04 #@! TF.GenerationSoftware,KiCad,Pcbnew,5.0.2-bee76a0~70~ubuntu16.04.1*
G04 #@! TF.CreationDate,2020-01-28T21:52:51-08:00*
G04 #@! TF.ProjectId,touch-circuit-v1,746f7563-682d-4636-9972-637569742d76,rev?*
G04 #@! TF.SameCoordinates,Original*
G04 #@! TF.FileFunction,Soldermask,Bot*
G04 #@! TF.FilePolarity,Negative*
%FSLAX46Y46*%
G04 Gerber Fmt 4.6, Leading zero omitted, Abs format (unit mm)*
G04 Created by KiCad (PCBNEW 5.0.2-bee76a0~70~ubuntu16.04.1) date Tue 28 Jan 2020 09:52:51 PM PST*
%MOMM*%
%LPD*%
G01*
G04 APERTURE LIST*
%ADD10C,0.100000*%
G04 APERTURE END LIST*
D10*
G36*
X155001000Y-110501000D02*
X149799000Y-110501000D01*
X149799000Y-107899000D01*
X155001000Y-107899000D01*
X155001000Y-110501000D01*
X155001000Y-110501000D01*
G37*
G36*
X153902490Y-96646950D02*
X154451620Y-96874407D01*
X154839913Y-97035243D01*
X155677887Y-97595159D01*
X155683574Y-97598959D01*
X156401041Y-98316426D01*
X156401043Y-98316429D01*
X156964757Y-99160087D01*
X156964757Y-99160088D01*
X157353050Y-100097510D01*
X157551000Y-101092669D01*
X157551000Y-102107331D01*
X157353050Y-103102490D01*
X157125593Y-103651620D01*
X156964757Y-104039913D01*
X156404841Y-104877887D01*
X156401041Y-104883574D01*
X155683574Y-105601041D01*
X155683571Y-105601043D01*
X154839913Y-106164757D01*
X154451620Y-106325593D01*
X153902490Y-106553050D01*
X152907331Y-106751000D01*
X151892669Y-106751000D01*
X150897510Y-106553050D01*
X150348380Y-106325593D01*
X149960087Y-106164757D01*
X149116429Y-105601043D01*
X149116426Y-105601041D01*
X148398959Y-104883574D01*
X148395159Y-104877887D01*
X147835243Y-104039913D01*
X147674407Y-103651620D01*
X147446950Y-103102490D01*
X147249000Y-102107331D01*
X147249000Y-101092669D01*
X147446950Y-100097510D01*
X147835243Y-99160088D01*
X147835243Y-99160087D01*
X148398957Y-98316429D01*
X148398959Y-98316426D01*
X149116426Y-97598959D01*
X149122113Y-97595159D01*
X149960087Y-97035243D01*
X150348380Y-96874407D01*
X150897510Y-96646950D01*
X151892669Y-96449000D01*
X152907331Y-96449000D01*
X153902490Y-96646950D01*
X153902490Y-96646950D01*
G37*
G36*
X155001000Y-95301000D02*
X149799000Y-95301000D01*
X149799000Y-92699000D01*
X155001000Y-92699000D01*
X155001000Y-95301000D01*
X155001000Y-95301000D01*
G37*
G36*
X158352443Y-92745224D02*
X158418627Y-92751742D01*
X158531853Y-92786089D01*
X158588467Y-92803262D01*
X158727087Y-92877357D01*
X158744991Y-92886927D01*
X158780729Y-92916257D01*
X158882186Y-92999519D01*
X158965448Y-93100976D01*
X158994778Y-93136714D01*
X158994779Y-93136716D01*
X159078443Y-93293238D01*
X159078443Y-93293239D01*
X159129963Y-93463078D01*
X159147359Y-93639705D01*
X159129963Y-93816332D01*
X159095616Y-93929558D01*
X159078443Y-93986172D01*
X159004348Y-94124792D01*
X158994778Y-94142696D01*
X158965448Y-94178434D01*
X158882186Y-94279891D01*
X158780729Y-94363153D01*
X158744991Y-94392483D01*
X158744989Y-94392484D01*
X158588467Y-94476148D01*
X158531853Y-94493321D01*
X158418627Y-94527668D01*
X158352442Y-94534187D01*
X158286260Y-94540705D01*
X158197740Y-94540705D01*
X158131557Y-94534186D01*
X158065373Y-94527668D01*
X157952147Y-94493321D01*
X157895533Y-94476148D01*
X157739011Y-94392484D01*
X157739009Y-94392483D01*
X157703271Y-94363153D01*
X157601814Y-94279891D01*
X157518552Y-94178434D01*
X157489222Y-94142696D01*
X157479652Y-94124792D01*
X157405557Y-93986172D01*
X157388384Y-93929558D01*
X157354037Y-93816332D01*
X157336641Y-93639705D01*
X157354037Y-93463078D01*
X157405557Y-93293239D01*
X157405557Y-93293238D01*
X157489221Y-93136716D01*
X157489222Y-93136714D01*
X157518552Y-93100976D01*
X157601814Y-92999519D01*
X157703271Y-92916257D01*
X157739009Y-92886927D01*
X157756913Y-92877357D01*
X157895533Y-92803262D01*
X157952147Y-92786089D01*
X158065373Y-92751742D01*
X158131558Y-92745223D01*
X158197740Y-92738705D01*
X158286260Y-92738705D01*
X158352443Y-92745224D01*
X158352443Y-92745224D01*
G37*
G36*
X146668443Y-92745224D02*
X146734627Y-92751742D01*
X146847853Y-92786089D01*
X146904467Y-92803262D01*
X147043087Y-92877357D01*
X147060991Y-92886927D01*
X147096729Y-92916257D01*
X147198186Y-92999519D01*
X147281448Y-93100976D01*
X147310778Y-93136714D01*
X147310779Y-93136716D01*
X147394443Y-93293238D01*
X147394443Y-93293239D01*
X147445963Y-93463078D01*
X147463359Y-93639705D01*
X147445963Y-93816332D01*
X147411616Y-93929558D01*
X147394443Y-93986172D01*
X147320348Y-94124792D01*
X147310778Y-94142696D01*
X147281448Y-94178434D01*
X147198186Y-94279891D01*
X147096729Y-94363153D01*
X147060991Y-94392483D01*
X147060989Y-94392484D01*
X146904467Y-94476148D01*
X146847853Y-94493321D01*
X146734627Y-94527668D01*
X146668442Y-94534187D01*
X146602260Y-94540705D01*
X146513740Y-94540705D01*
X146447557Y-94534186D01*
X146381373Y-94527668D01*
X146268147Y-94493321D01*
X146211533Y-94476148D01*
X146055011Y-94392484D01*
X146055009Y-94392483D01*
X146019271Y-94363153D01*
X145917814Y-94279891D01*
X145834552Y-94178434D01*
X145805222Y-94142696D01*
X145795652Y-94124792D01*
X145721557Y-93986172D01*
X145704384Y-93929558D01*
X145670037Y-93816332D01*
X145652641Y-93639705D01*
X145670037Y-93463078D01*
X145721557Y-93293239D01*
X145721557Y-93293238D01*
X145805221Y-93136716D01*
X145805222Y-93136714D01*
X145834552Y-93100976D01*
X145917814Y-92999519D01*
X146019271Y-92916257D01*
X146055009Y-92886927D01*
X146072913Y-92877357D01*
X146211533Y-92803262D01*
X146268147Y-92786089D01*
X146381373Y-92751742D01*
X146447558Y-92745223D01*
X146513740Y-92738705D01*
X146602260Y-92738705D01*
X146668443Y-92745224D01*
X146668443Y-92745224D01*
G37*
G36*
X157082443Y-90545519D02*
X157148627Y-90552037D01*
X157261853Y-90586384D01*
X157318467Y-90603557D01*
X157457087Y-90677652D01*
X157474991Y-90687222D01*
X157510729Y-90716552D01*
X157612186Y-90799814D01*
X157695448Y-90901271D01*
X157724778Y-90937009D01*
X157724779Y-90937011D01*
X157808443Y-91093533D01*
X157808443Y-91093534D01*
X157859963Y-91263373D01*
X157877359Y-91440000D01*
X157859963Y-91616627D01*
X157825616Y-91729853D01*
X157808443Y-91786467D01*
X157734348Y-91925087D01*
X157724778Y-91942991D01*
X157695448Y-91978729D01*
X157612186Y-92080186D01*
X157510729Y-92163448D01*
X157474991Y-92192778D01*
X157474989Y-92192779D01*
X157318467Y-92276443D01*
X157261853Y-92293616D01*
X157148627Y-92327963D01*
X157082443Y-92334481D01*
X157016260Y-92341000D01*
X156927740Y-92341000D01*
X156861557Y-92334481D01*
X156795373Y-92327963D01*
X156682147Y-92293616D01*
X156625533Y-92276443D01*
X156469011Y-92192779D01*
X156469009Y-92192778D01*
X156433271Y-92163448D01*
X156331814Y-92080186D01*
X156248552Y-91978729D01*
X156219222Y-91942991D01*
X156209652Y-91925087D01*
X156135557Y-91786467D01*
X156118384Y-91729853D01*
X156084037Y-91616627D01*
X156066641Y-91440000D01*
X156084037Y-91263373D01*
X156135557Y-91093534D01*
X156135557Y-91093533D01*
X156219221Y-90937011D01*
X156219222Y-90937009D01*
X156248552Y-90901271D01*
X156331814Y-90799814D01*
X156433271Y-90716552D01*
X156469009Y-90687222D01*
X156486913Y-90677652D01*
X156625533Y-90603557D01*
X156682147Y-90586384D01*
X156795373Y-90552037D01*
X156861558Y-90545518D01*
X156927740Y-90539000D01*
X157016260Y-90539000D01*
X157082443Y-90545519D01*
X157082443Y-90545519D01*
G37*
G36*
X147938443Y-90545519D02*
X148004627Y-90552037D01*
X148117853Y-90586384D01*
X148174467Y-90603557D01*
X148313087Y-90677652D01*
X148330991Y-90687222D01*
X148366729Y-90716552D01*
X148468186Y-90799814D01*
X148551448Y-90901271D01*
X148580778Y-90937009D01*
X148580779Y-90937011D01*
X148664443Y-91093533D01*
X148664443Y-91093534D01*
X148715963Y-91263373D01*
X148733359Y-91440000D01*
X148715963Y-91616627D01*
X148681616Y-91729853D01*
X148664443Y-91786467D01*
X148590348Y-91925087D01*
X148580778Y-91942991D01*
X148551448Y-91978729D01*
X148468186Y-92080186D01*
X148366729Y-92163448D01*
X148330991Y-92192778D01*
X148330989Y-92192779D01*
X148174467Y-92276443D01*
X148117853Y-92293616D01*
X148004627Y-92327963D01*
X147938443Y-92334481D01*
X147872260Y-92341000D01*
X147783740Y-92341000D01*
X147717557Y-92334481D01*
X147651373Y-92327963D01*
X147538147Y-92293616D01*
X147481533Y-92276443D01*
X147325011Y-92192779D01*
X147325009Y-92192778D01*
X147289271Y-92163448D01*
X147187814Y-92080186D01*
X147104552Y-91978729D01*
X147075222Y-91942991D01*
X147065652Y-91925087D01*
X146991557Y-91786467D01*
X146974384Y-91729853D01*
X146940037Y-91616627D01*
X146922641Y-91440000D01*
X146940037Y-91263373D01*
X146991557Y-91093534D01*
X146991557Y-91093533D01*
X147075221Y-90937011D01*
X147075222Y-90937009D01*
X147104552Y-90901271D01*
X147187814Y-90799814D01*
X147289271Y-90716552D01*
X147325009Y-90687222D01*
X147342913Y-90677652D01*
X147481533Y-90603557D01*
X147538147Y-90586384D01*
X147651373Y-90552037D01*
X147717557Y-90545519D01*
X147783740Y-90539000D01*
X147872260Y-90539000D01*
X147938443Y-90545519D01*
X147938443Y-90545519D01*
G37*
M02*
