G04 #@! TF.GenerationSoftware,KiCad,Pcbnew,5.0.2-bee76a0~70~ubuntu16.04.1*
G04 #@! TF.CreationDate,2020-01-28T21:52:51-08:00*
G04 #@! TF.ProjectId,touch-circuit-v1,746f7563-682d-4636-9972-637569742d76,rev?*
G04 #@! TF.SameCoordinates,Original*
G04 #@! TF.FileFunction,Legend,Top*
G04 #@! TF.FilePolarity,Positive*
%FSLAX46Y46*%
G04 Gerber Fmt 4.6, Leading zero omitted, Abs format (unit mm)*
G04 Created by KiCad (PCBNEW 5.0.2-bee76a0~70~ubuntu16.04.1) date Tue 28 Jan 2020 09:52:51 PM PST*
%MOMM*%
%LPD*%
G01*
G04 APERTURE LIST*
%ADD10C,0.120000*%
%ADD11C,0.150000*%
G04 APERTURE END LIST*
D10*
G04 #@! TO.C,C1*
X154230000Y-105671252D02*
X154230000Y-105148748D01*
X155650000Y-105671252D02*
X155650000Y-105148748D01*
G04 #@! TO.C,D1*
X148860000Y-94940000D02*
X151720000Y-94940000D01*
X151720000Y-94940000D02*
X151720000Y-93020000D01*
X151720000Y-93020000D02*
X148860000Y-93020000D01*
G04 #@! TO.C,D2*
X151440000Y-104410000D02*
X151440000Y-107270000D01*
X151440000Y-107270000D02*
X153360000Y-107270000D01*
X153360000Y-107270000D02*
X153360000Y-104410000D01*
G04 #@! TO.C,R1*
X149150000Y-110228748D02*
X149150000Y-110751252D01*
X150570000Y-110228748D02*
X150570000Y-110751252D01*
G04 #@! TO.C,R2*
X150570000Y-105148748D02*
X150570000Y-105671252D01*
X149150000Y-105148748D02*
X149150000Y-105671252D01*
G04 #@! TO.C,R3*
X154230000Y-110228748D02*
X154230000Y-110751252D01*
X155650000Y-110228748D02*
X155650000Y-110751252D01*
G04 #@! TO.C,R4*
X152138748Y-92150000D02*
X152661252Y-92150000D01*
X152138748Y-90730000D02*
X152661252Y-90730000D01*
G04 #@! TO.C,R5*
X154678748Y-93270000D02*
X155201252Y-93270000D01*
X154678748Y-94690000D02*
X155201252Y-94690000D01*
G04 #@! TO.C,R6*
X153110000Y-110208748D02*
X153110000Y-110731252D01*
X151690000Y-110208748D02*
X151690000Y-110731252D01*
D11*
G04 #@! TO.C,U1*
X149650000Y-95855000D02*
X149650000Y-96510000D01*
X155150000Y-95855000D02*
X155150000Y-96605000D01*
X155150000Y-102265000D02*
X155150000Y-101515000D01*
X149650000Y-102265000D02*
X149650000Y-101515000D01*
X149650000Y-95855000D02*
X155150000Y-95855000D01*
X149650000Y-102265000D02*
X155150000Y-102265000D01*
X149650000Y-96510000D02*
X147900000Y-96510000D01*
G04 #@! TD*
M02*
