G04 #@! TF.GenerationSoftware,KiCad,Pcbnew,5.0.2-bee76a0~70~ubuntu16.04.1*
G04 #@! TF.CreationDate,2020-01-28T21:52:51-08:00*
G04 #@! TF.ProjectId,touch-circuit-v1,746f7563-682d-4636-9972-637569742d76,rev?*
G04 #@! TF.SameCoordinates,Original*
G04 #@! TF.FileFunction,Soldermask,Top*
G04 #@! TF.FilePolarity,Negative*
%FSLAX46Y46*%
G04 Gerber Fmt 4.6, Leading zero omitted, Abs format (unit mm)*
G04 Created by KiCad (PCBNEW 5.0.2-bee76a0~70~ubuntu16.04.1) date Tue 28 Jan 2020 09:52:51 PM PST*
%MOMM*%
%LPD*%
G01*
G04 APERTURE LIST*
%ADD10C,0.100000*%
G04 APERTURE END LIST*
D10*
G36*
X155528677Y-110893465D02*
X155566364Y-110904898D01*
X155601103Y-110923466D01*
X155631548Y-110948452D01*
X155656534Y-110978897D01*
X155675102Y-111013636D01*
X155686535Y-111051323D01*
X155691000Y-111096661D01*
X155691000Y-111933339D01*
X155686535Y-111978677D01*
X155675102Y-112016364D01*
X155656534Y-112051103D01*
X155631548Y-112081548D01*
X155601103Y-112106534D01*
X155566364Y-112125102D01*
X155528677Y-112136535D01*
X155483339Y-112141000D01*
X154396661Y-112141000D01*
X154351323Y-112136535D01*
X154313636Y-112125102D01*
X154278897Y-112106534D01*
X154248452Y-112081548D01*
X154223466Y-112051103D01*
X154204898Y-112016364D01*
X154193465Y-111978677D01*
X154189000Y-111933339D01*
X154189000Y-111096661D01*
X154193465Y-111051323D01*
X154204898Y-111013636D01*
X154223466Y-110978897D01*
X154248452Y-110948452D01*
X154278897Y-110923466D01*
X154313636Y-110904898D01*
X154351323Y-110893465D01*
X154396661Y-110889000D01*
X155483339Y-110889000D01*
X155528677Y-110893465D01*
X155528677Y-110893465D01*
G37*
G36*
X150448677Y-110893465D02*
X150486364Y-110904898D01*
X150521103Y-110923466D01*
X150551548Y-110948452D01*
X150576534Y-110978897D01*
X150595102Y-111013636D01*
X150606535Y-111051323D01*
X150611000Y-111096661D01*
X150611000Y-111933339D01*
X150606535Y-111978677D01*
X150595102Y-112016364D01*
X150576534Y-112051103D01*
X150551548Y-112081548D01*
X150521103Y-112106534D01*
X150486364Y-112125102D01*
X150448677Y-112136535D01*
X150403339Y-112141000D01*
X149316661Y-112141000D01*
X149271323Y-112136535D01*
X149233636Y-112125102D01*
X149198897Y-112106534D01*
X149168452Y-112081548D01*
X149143466Y-112051103D01*
X149124898Y-112016364D01*
X149113465Y-111978677D01*
X149109000Y-111933339D01*
X149109000Y-111096661D01*
X149113465Y-111051323D01*
X149124898Y-111013636D01*
X149143466Y-110978897D01*
X149168452Y-110948452D01*
X149198897Y-110923466D01*
X149233636Y-110904898D01*
X149271323Y-110893465D01*
X149316661Y-110889000D01*
X150403339Y-110889000D01*
X150448677Y-110893465D01*
X150448677Y-110893465D01*
G37*
G36*
X152988677Y-110873465D02*
X153026364Y-110884898D01*
X153061103Y-110903466D01*
X153091548Y-110928452D01*
X153116534Y-110958897D01*
X153135102Y-110993636D01*
X153146535Y-111031323D01*
X153151000Y-111076661D01*
X153151000Y-111913339D01*
X153146535Y-111958677D01*
X153135102Y-111996364D01*
X153116534Y-112031103D01*
X153091548Y-112061548D01*
X153061103Y-112086534D01*
X153026364Y-112105102D01*
X152988677Y-112116535D01*
X152943339Y-112121000D01*
X151856661Y-112121000D01*
X151811323Y-112116535D01*
X151773636Y-112105102D01*
X151738897Y-112086534D01*
X151708452Y-112061548D01*
X151683466Y-112031103D01*
X151664898Y-111996364D01*
X151653465Y-111958677D01*
X151649000Y-111913339D01*
X151649000Y-111076661D01*
X151653465Y-111031323D01*
X151664898Y-110993636D01*
X151683466Y-110958897D01*
X151708452Y-110928452D01*
X151738897Y-110903466D01*
X151773636Y-110884898D01*
X151811323Y-110873465D01*
X151856661Y-110869000D01*
X152943339Y-110869000D01*
X152988677Y-110873465D01*
X152988677Y-110873465D01*
G37*
G36*
X155528677Y-108843465D02*
X155566364Y-108854898D01*
X155601103Y-108873466D01*
X155631548Y-108898452D01*
X155656534Y-108928897D01*
X155675102Y-108963636D01*
X155686535Y-109001323D01*
X155691000Y-109046661D01*
X155691000Y-109883339D01*
X155686535Y-109928677D01*
X155675102Y-109966364D01*
X155656534Y-110001103D01*
X155631548Y-110031548D01*
X155601103Y-110056534D01*
X155566364Y-110075102D01*
X155528677Y-110086535D01*
X155483339Y-110091000D01*
X154396661Y-110091000D01*
X154351323Y-110086535D01*
X154313636Y-110075102D01*
X154278897Y-110056534D01*
X154248452Y-110031548D01*
X154223466Y-110001103D01*
X154204898Y-109966364D01*
X154193465Y-109928677D01*
X154189000Y-109883339D01*
X154189000Y-109046661D01*
X154193465Y-109001323D01*
X154204898Y-108963636D01*
X154223466Y-108928897D01*
X154248452Y-108898452D01*
X154278897Y-108873466D01*
X154313636Y-108854898D01*
X154351323Y-108843465D01*
X154396661Y-108839000D01*
X155483339Y-108839000D01*
X155528677Y-108843465D01*
X155528677Y-108843465D01*
G37*
G36*
X150448677Y-108843465D02*
X150486364Y-108854898D01*
X150521103Y-108873466D01*
X150551548Y-108898452D01*
X150576534Y-108928897D01*
X150595102Y-108963636D01*
X150606535Y-109001323D01*
X150611000Y-109046661D01*
X150611000Y-109883339D01*
X150606535Y-109928677D01*
X150595102Y-109966364D01*
X150576534Y-110001103D01*
X150551548Y-110031548D01*
X150521103Y-110056534D01*
X150486364Y-110075102D01*
X150448677Y-110086535D01*
X150403339Y-110091000D01*
X149316661Y-110091000D01*
X149271323Y-110086535D01*
X149233636Y-110075102D01*
X149198897Y-110056534D01*
X149168452Y-110031548D01*
X149143466Y-110001103D01*
X149124898Y-109966364D01*
X149113465Y-109928677D01*
X149109000Y-109883339D01*
X149109000Y-109046661D01*
X149113465Y-109001323D01*
X149124898Y-108963636D01*
X149143466Y-108928897D01*
X149168452Y-108898452D01*
X149198897Y-108873466D01*
X149233636Y-108854898D01*
X149271323Y-108843465D01*
X149316661Y-108839000D01*
X150403339Y-108839000D01*
X150448677Y-108843465D01*
X150448677Y-108843465D01*
G37*
G36*
X152988677Y-108823465D02*
X153026364Y-108834898D01*
X153061103Y-108853466D01*
X153091548Y-108878452D01*
X153116534Y-108908897D01*
X153135102Y-108943636D01*
X153146535Y-108981323D01*
X153151000Y-109026661D01*
X153151000Y-109863339D01*
X153146535Y-109908677D01*
X153135102Y-109946364D01*
X153116534Y-109981103D01*
X153091548Y-110011548D01*
X153061103Y-110036534D01*
X153026364Y-110055102D01*
X152988677Y-110066535D01*
X152943339Y-110071000D01*
X151856661Y-110071000D01*
X151811323Y-110066535D01*
X151773636Y-110055102D01*
X151738897Y-110036534D01*
X151708452Y-110011548D01*
X151683466Y-109981103D01*
X151664898Y-109946364D01*
X151653465Y-109908677D01*
X151649000Y-109863339D01*
X151649000Y-109026661D01*
X151653465Y-108981323D01*
X151664898Y-108943636D01*
X151683466Y-108908897D01*
X151708452Y-108878452D01*
X151738897Y-108853466D01*
X151773636Y-108834898D01*
X151811323Y-108823465D01*
X151856661Y-108819000D01*
X152943339Y-108819000D01*
X152988677Y-108823465D01*
X152988677Y-108823465D01*
G37*
G36*
X152988677Y-105813465D02*
X153026364Y-105824898D01*
X153061103Y-105843466D01*
X153091548Y-105868452D01*
X153116534Y-105898897D01*
X153135102Y-105933636D01*
X153146535Y-105971323D01*
X153151000Y-106016661D01*
X153151000Y-106853339D01*
X153146535Y-106898677D01*
X153135102Y-106936364D01*
X153116534Y-106971103D01*
X153091548Y-107001548D01*
X153061103Y-107026534D01*
X153026364Y-107045102D01*
X152988677Y-107056535D01*
X152943339Y-107061000D01*
X151856661Y-107061000D01*
X151811323Y-107056535D01*
X151773636Y-107045102D01*
X151738897Y-107026534D01*
X151708452Y-107001548D01*
X151683466Y-106971103D01*
X151664898Y-106936364D01*
X151653465Y-106898677D01*
X151649000Y-106853339D01*
X151649000Y-106016661D01*
X151653465Y-105971323D01*
X151664898Y-105933636D01*
X151683466Y-105898897D01*
X151708452Y-105868452D01*
X151738897Y-105843466D01*
X151773636Y-105824898D01*
X151811323Y-105813465D01*
X151856661Y-105809000D01*
X152943339Y-105809000D01*
X152988677Y-105813465D01*
X152988677Y-105813465D01*
G37*
G36*
X155528677Y-105813465D02*
X155566364Y-105824898D01*
X155601103Y-105843466D01*
X155631548Y-105868452D01*
X155656534Y-105898897D01*
X155675102Y-105933636D01*
X155686535Y-105971323D01*
X155691000Y-106016661D01*
X155691000Y-106853339D01*
X155686535Y-106898677D01*
X155675102Y-106936364D01*
X155656534Y-106971103D01*
X155631548Y-107001548D01*
X155601103Y-107026534D01*
X155566364Y-107045102D01*
X155528677Y-107056535D01*
X155483339Y-107061000D01*
X154396661Y-107061000D01*
X154351323Y-107056535D01*
X154313636Y-107045102D01*
X154278897Y-107026534D01*
X154248452Y-107001548D01*
X154223466Y-106971103D01*
X154204898Y-106936364D01*
X154193465Y-106898677D01*
X154189000Y-106853339D01*
X154189000Y-106016661D01*
X154193465Y-105971323D01*
X154204898Y-105933636D01*
X154223466Y-105898897D01*
X154248452Y-105868452D01*
X154278897Y-105843466D01*
X154313636Y-105824898D01*
X154351323Y-105813465D01*
X154396661Y-105809000D01*
X155483339Y-105809000D01*
X155528677Y-105813465D01*
X155528677Y-105813465D01*
G37*
G36*
X150448677Y-105813465D02*
X150486364Y-105824898D01*
X150521103Y-105843466D01*
X150551548Y-105868452D01*
X150576534Y-105898897D01*
X150595102Y-105933636D01*
X150606535Y-105971323D01*
X150611000Y-106016661D01*
X150611000Y-106853339D01*
X150606535Y-106898677D01*
X150595102Y-106936364D01*
X150576534Y-106971103D01*
X150551548Y-107001548D01*
X150521103Y-107026534D01*
X150486364Y-107045102D01*
X150448677Y-107056535D01*
X150403339Y-107061000D01*
X149316661Y-107061000D01*
X149271323Y-107056535D01*
X149233636Y-107045102D01*
X149198897Y-107026534D01*
X149168452Y-107001548D01*
X149143466Y-106971103D01*
X149124898Y-106936364D01*
X149113465Y-106898677D01*
X149109000Y-106853339D01*
X149109000Y-106016661D01*
X149113465Y-105971323D01*
X149124898Y-105933636D01*
X149143466Y-105898897D01*
X149168452Y-105868452D01*
X149198897Y-105843466D01*
X149233636Y-105824898D01*
X149271323Y-105813465D01*
X149316661Y-105809000D01*
X150403339Y-105809000D01*
X150448677Y-105813465D01*
X150448677Y-105813465D01*
G37*
G36*
X155528677Y-103763465D02*
X155566364Y-103774898D01*
X155601103Y-103793466D01*
X155631548Y-103818452D01*
X155656534Y-103848897D01*
X155675102Y-103883636D01*
X155686535Y-103921323D01*
X155691000Y-103966661D01*
X155691000Y-104803339D01*
X155686535Y-104848677D01*
X155675102Y-104886364D01*
X155656534Y-104921103D01*
X155631548Y-104951548D01*
X155601103Y-104976534D01*
X155566364Y-104995102D01*
X155528677Y-105006535D01*
X155483339Y-105011000D01*
X154396661Y-105011000D01*
X154351323Y-105006535D01*
X154313636Y-104995102D01*
X154278897Y-104976534D01*
X154248452Y-104951548D01*
X154223466Y-104921103D01*
X154204898Y-104886364D01*
X154193465Y-104848677D01*
X154189000Y-104803339D01*
X154189000Y-103966661D01*
X154193465Y-103921323D01*
X154204898Y-103883636D01*
X154223466Y-103848897D01*
X154248452Y-103818452D01*
X154278897Y-103793466D01*
X154313636Y-103774898D01*
X154351323Y-103763465D01*
X154396661Y-103759000D01*
X155483339Y-103759000D01*
X155528677Y-103763465D01*
X155528677Y-103763465D01*
G37*
G36*
X152988677Y-103763465D02*
X153026364Y-103774898D01*
X153061103Y-103793466D01*
X153091548Y-103818452D01*
X153116534Y-103848897D01*
X153135102Y-103883636D01*
X153146535Y-103921323D01*
X153151000Y-103966661D01*
X153151000Y-104803339D01*
X153146535Y-104848677D01*
X153135102Y-104886364D01*
X153116534Y-104921103D01*
X153091548Y-104951548D01*
X153061103Y-104976534D01*
X153026364Y-104995102D01*
X152988677Y-105006535D01*
X152943339Y-105011000D01*
X151856661Y-105011000D01*
X151811323Y-105006535D01*
X151773636Y-104995102D01*
X151738897Y-104976534D01*
X151708452Y-104951548D01*
X151683466Y-104921103D01*
X151664898Y-104886364D01*
X151653465Y-104848677D01*
X151649000Y-104803339D01*
X151649000Y-103966661D01*
X151653465Y-103921323D01*
X151664898Y-103883636D01*
X151683466Y-103848897D01*
X151708452Y-103818452D01*
X151738897Y-103793466D01*
X151773636Y-103774898D01*
X151811323Y-103763465D01*
X151856661Y-103759000D01*
X152943339Y-103759000D01*
X152988677Y-103763465D01*
X152988677Y-103763465D01*
G37*
G36*
X150448677Y-103763465D02*
X150486364Y-103774898D01*
X150521103Y-103793466D01*
X150551548Y-103818452D01*
X150576534Y-103848897D01*
X150595102Y-103883636D01*
X150606535Y-103921323D01*
X150611000Y-103966661D01*
X150611000Y-104803339D01*
X150606535Y-104848677D01*
X150595102Y-104886364D01*
X150576534Y-104921103D01*
X150551548Y-104951548D01*
X150521103Y-104976534D01*
X150486364Y-104995102D01*
X150448677Y-105006535D01*
X150403339Y-105011000D01*
X149316661Y-105011000D01*
X149271323Y-105006535D01*
X149233636Y-104995102D01*
X149198897Y-104976534D01*
X149168452Y-104951548D01*
X149143466Y-104921103D01*
X149124898Y-104886364D01*
X149113465Y-104848677D01*
X149109000Y-104803339D01*
X149109000Y-103966661D01*
X149113465Y-103921323D01*
X149124898Y-103883636D01*
X149143466Y-103848897D01*
X149168452Y-103818452D01*
X149198897Y-103793466D01*
X149233636Y-103774898D01*
X149271323Y-103763465D01*
X149316661Y-103759000D01*
X150403339Y-103759000D01*
X150448677Y-103763465D01*
X150448677Y-103763465D01*
G37*
G36*
X157026000Y-101291000D02*
X155174000Y-101291000D01*
X155174000Y-100639000D01*
X157026000Y-100639000D01*
X157026000Y-101291000D01*
X157026000Y-101291000D01*
G37*
G36*
X149626000Y-101291000D02*
X147774000Y-101291000D01*
X147774000Y-100639000D01*
X149626000Y-100639000D01*
X149626000Y-101291000D01*
X149626000Y-101291000D01*
G37*
G36*
X149626000Y-100021000D02*
X147774000Y-100021000D01*
X147774000Y-99369000D01*
X149626000Y-99369000D01*
X149626000Y-100021000D01*
X149626000Y-100021000D01*
G37*
G36*
X157026000Y-100021000D02*
X155174000Y-100021000D01*
X155174000Y-99369000D01*
X157026000Y-99369000D01*
X157026000Y-100021000D01*
X157026000Y-100021000D01*
G37*
G36*
X157026000Y-98751000D02*
X155174000Y-98751000D01*
X155174000Y-98099000D01*
X157026000Y-98099000D01*
X157026000Y-98751000D01*
X157026000Y-98751000D01*
G37*
G36*
X149626000Y-98751000D02*
X147774000Y-98751000D01*
X147774000Y-98099000D01*
X149626000Y-98099000D01*
X149626000Y-98751000D01*
X149626000Y-98751000D01*
G37*
G36*
X149626000Y-97481000D02*
X147774000Y-97481000D01*
X147774000Y-96829000D01*
X149626000Y-96829000D01*
X149626000Y-97481000D01*
X149626000Y-97481000D01*
G37*
G36*
X157026000Y-97481000D02*
X155174000Y-97481000D01*
X155174000Y-96829000D01*
X157026000Y-96829000D01*
X157026000Y-97481000D01*
X157026000Y-97481000D01*
G37*
G36*
X156428677Y-93233465D02*
X156466364Y-93244898D01*
X156501103Y-93263466D01*
X156531548Y-93288452D01*
X156556534Y-93318897D01*
X156575102Y-93353636D01*
X156586535Y-93391323D01*
X156591000Y-93436661D01*
X156591000Y-94523339D01*
X156586535Y-94568677D01*
X156575102Y-94606364D01*
X156556534Y-94641103D01*
X156531548Y-94671548D01*
X156501103Y-94696534D01*
X156466364Y-94715102D01*
X156428677Y-94726535D01*
X156383339Y-94731000D01*
X155546661Y-94731000D01*
X155501323Y-94726535D01*
X155463636Y-94715102D01*
X155428897Y-94696534D01*
X155398452Y-94671548D01*
X155373466Y-94641103D01*
X155354898Y-94606364D01*
X155343465Y-94568677D01*
X155339000Y-94523339D01*
X155339000Y-93436661D01*
X155343465Y-93391323D01*
X155354898Y-93353636D01*
X155373466Y-93318897D01*
X155398452Y-93288452D01*
X155428897Y-93263466D01*
X155463636Y-93244898D01*
X155501323Y-93233465D01*
X155546661Y-93229000D01*
X156383339Y-93229000D01*
X156428677Y-93233465D01*
X156428677Y-93233465D01*
G37*
G36*
X154378677Y-93233465D02*
X154416364Y-93244898D01*
X154451103Y-93263466D01*
X154481548Y-93288452D01*
X154506534Y-93318897D01*
X154525102Y-93353636D01*
X154536535Y-93391323D01*
X154541000Y-93436661D01*
X154541000Y-94523339D01*
X154536535Y-94568677D01*
X154525102Y-94606364D01*
X154506534Y-94641103D01*
X154481548Y-94671548D01*
X154451103Y-94696534D01*
X154416364Y-94715102D01*
X154378677Y-94726535D01*
X154333339Y-94731000D01*
X153496661Y-94731000D01*
X153451323Y-94726535D01*
X153413636Y-94715102D01*
X153378897Y-94696534D01*
X153348452Y-94671548D01*
X153323466Y-94641103D01*
X153304898Y-94606364D01*
X153293465Y-94568677D01*
X153289000Y-94523339D01*
X153289000Y-93436661D01*
X153293465Y-93391323D01*
X153304898Y-93353636D01*
X153323466Y-93318897D01*
X153348452Y-93288452D01*
X153378897Y-93263466D01*
X153413636Y-93244898D01*
X153451323Y-93233465D01*
X153496661Y-93229000D01*
X154333339Y-93229000D01*
X154378677Y-93233465D01*
X154378677Y-93233465D01*
G37*
G36*
X151348677Y-93233465D02*
X151386364Y-93244898D01*
X151421103Y-93263466D01*
X151451548Y-93288452D01*
X151476534Y-93318897D01*
X151495102Y-93353636D01*
X151506535Y-93391323D01*
X151511000Y-93436661D01*
X151511000Y-94523339D01*
X151506535Y-94568677D01*
X151495102Y-94606364D01*
X151476534Y-94641103D01*
X151451548Y-94671548D01*
X151421103Y-94696534D01*
X151386364Y-94715102D01*
X151348677Y-94726535D01*
X151303339Y-94731000D01*
X150466661Y-94731000D01*
X150421323Y-94726535D01*
X150383636Y-94715102D01*
X150348897Y-94696534D01*
X150318452Y-94671548D01*
X150293466Y-94641103D01*
X150274898Y-94606364D01*
X150263465Y-94568677D01*
X150259000Y-94523339D01*
X150259000Y-93436661D01*
X150263465Y-93391323D01*
X150274898Y-93353636D01*
X150293466Y-93318897D01*
X150318452Y-93288452D01*
X150348897Y-93263466D01*
X150383636Y-93244898D01*
X150421323Y-93233465D01*
X150466661Y-93229000D01*
X151303339Y-93229000D01*
X151348677Y-93233465D01*
X151348677Y-93233465D01*
G37*
G36*
X149298677Y-93233465D02*
X149336364Y-93244898D01*
X149371103Y-93263466D01*
X149401548Y-93288452D01*
X149426534Y-93318897D01*
X149445102Y-93353636D01*
X149456535Y-93391323D01*
X149461000Y-93436661D01*
X149461000Y-94523339D01*
X149456535Y-94568677D01*
X149445102Y-94606364D01*
X149426534Y-94641103D01*
X149401548Y-94671548D01*
X149371103Y-94696534D01*
X149336364Y-94715102D01*
X149298677Y-94726535D01*
X149253339Y-94731000D01*
X148416661Y-94731000D01*
X148371323Y-94726535D01*
X148333636Y-94715102D01*
X148298897Y-94696534D01*
X148268452Y-94671548D01*
X148243466Y-94641103D01*
X148224898Y-94606364D01*
X148213465Y-94568677D01*
X148209000Y-94523339D01*
X148209000Y-93436661D01*
X148213465Y-93391323D01*
X148224898Y-93353636D01*
X148243466Y-93318897D01*
X148268452Y-93288452D01*
X148298897Y-93263466D01*
X148333636Y-93244898D01*
X148371323Y-93233465D01*
X148416661Y-93229000D01*
X149253339Y-93229000D01*
X149298677Y-93233465D01*
X149298677Y-93233465D01*
G37*
G36*
X146668443Y-92745224D02*
X146734627Y-92751742D01*
X146847853Y-92786089D01*
X146904467Y-92803262D01*
X147043087Y-92877357D01*
X147060991Y-92886927D01*
X147096729Y-92916257D01*
X147198186Y-92999519D01*
X147281448Y-93100976D01*
X147310778Y-93136714D01*
X147310779Y-93136716D01*
X147394443Y-93293238D01*
X147402226Y-93318897D01*
X147445963Y-93463078D01*
X147463359Y-93639705D01*
X147445963Y-93816332D01*
X147411616Y-93929558D01*
X147394443Y-93986172D01*
X147320348Y-94124792D01*
X147310778Y-94142696D01*
X147281448Y-94178434D01*
X147198186Y-94279891D01*
X147096729Y-94363153D01*
X147060991Y-94392483D01*
X147060989Y-94392484D01*
X146904467Y-94476148D01*
X146847853Y-94493321D01*
X146734627Y-94527668D01*
X146668442Y-94534187D01*
X146602260Y-94540705D01*
X146513740Y-94540705D01*
X146447557Y-94534186D01*
X146381373Y-94527668D01*
X146268147Y-94493321D01*
X146211533Y-94476148D01*
X146055011Y-94392484D01*
X146055009Y-94392483D01*
X146019271Y-94363153D01*
X145917814Y-94279891D01*
X145834552Y-94178434D01*
X145805222Y-94142696D01*
X145795652Y-94124792D01*
X145721557Y-93986172D01*
X145704384Y-93929558D01*
X145670037Y-93816332D01*
X145652641Y-93639705D01*
X145670037Y-93463078D01*
X145713774Y-93318897D01*
X145721557Y-93293238D01*
X145805221Y-93136716D01*
X145805222Y-93136714D01*
X145834552Y-93100976D01*
X145917814Y-92999519D01*
X146019271Y-92916257D01*
X146055009Y-92886927D01*
X146072913Y-92877357D01*
X146211533Y-92803262D01*
X146268147Y-92786089D01*
X146381373Y-92751742D01*
X146447558Y-92745223D01*
X146513740Y-92738705D01*
X146602260Y-92738705D01*
X146668443Y-92745224D01*
X146668443Y-92745224D01*
G37*
G36*
X158352443Y-92745224D02*
X158418627Y-92751742D01*
X158531853Y-92786089D01*
X158588467Y-92803262D01*
X158727087Y-92877357D01*
X158744991Y-92886927D01*
X158780729Y-92916257D01*
X158882186Y-92999519D01*
X158965448Y-93100976D01*
X158994778Y-93136714D01*
X158994779Y-93136716D01*
X159078443Y-93293238D01*
X159086226Y-93318897D01*
X159129963Y-93463078D01*
X159147359Y-93639705D01*
X159129963Y-93816332D01*
X159095616Y-93929558D01*
X159078443Y-93986172D01*
X159004348Y-94124792D01*
X158994778Y-94142696D01*
X158965448Y-94178434D01*
X158882186Y-94279891D01*
X158780729Y-94363153D01*
X158744991Y-94392483D01*
X158744989Y-94392484D01*
X158588467Y-94476148D01*
X158531853Y-94493321D01*
X158418627Y-94527668D01*
X158352442Y-94534187D01*
X158286260Y-94540705D01*
X158197740Y-94540705D01*
X158131557Y-94534186D01*
X158065373Y-94527668D01*
X157952147Y-94493321D01*
X157895533Y-94476148D01*
X157739011Y-94392484D01*
X157739009Y-94392483D01*
X157703271Y-94363153D01*
X157601814Y-94279891D01*
X157518552Y-94178434D01*
X157489222Y-94142696D01*
X157479652Y-94124792D01*
X157405557Y-93986172D01*
X157388384Y-93929558D01*
X157354037Y-93816332D01*
X157336641Y-93639705D01*
X157354037Y-93463078D01*
X157397774Y-93318897D01*
X157405557Y-93293238D01*
X157489221Y-93136716D01*
X157489222Y-93136714D01*
X157518552Y-93100976D01*
X157601814Y-92999519D01*
X157703271Y-92916257D01*
X157739009Y-92886927D01*
X157756913Y-92877357D01*
X157895533Y-92803262D01*
X157952147Y-92786089D01*
X158065373Y-92751742D01*
X158131558Y-92745223D01*
X158197740Y-92738705D01*
X158286260Y-92738705D01*
X158352443Y-92745224D01*
X158352443Y-92745224D01*
G37*
G36*
X147938443Y-90545519D02*
X148004627Y-90552037D01*
X148117853Y-90586384D01*
X148174467Y-90603557D01*
X148313087Y-90677652D01*
X148330991Y-90687222D01*
X148339530Y-90694230D01*
X148468186Y-90799814D01*
X148547665Y-90896661D01*
X148580778Y-90937009D01*
X148580779Y-90937011D01*
X148664443Y-91093533D01*
X148664443Y-91093534D01*
X148715963Y-91263373D01*
X148733359Y-91440000D01*
X148715963Y-91616627D01*
X148681616Y-91729853D01*
X148664443Y-91786467D01*
X148593694Y-91918827D01*
X148580778Y-91942991D01*
X148557032Y-91971925D01*
X148468186Y-92080186D01*
X148389049Y-92145131D01*
X148330991Y-92192778D01*
X148330989Y-92192779D01*
X148174467Y-92276443D01*
X148117853Y-92293616D01*
X148004627Y-92327963D01*
X147938443Y-92334481D01*
X147872260Y-92341000D01*
X147783740Y-92341000D01*
X147717557Y-92334481D01*
X147651373Y-92327963D01*
X147538147Y-92293616D01*
X147481533Y-92276443D01*
X147325011Y-92192779D01*
X147325009Y-92192778D01*
X147266951Y-92145131D01*
X147187814Y-92080186D01*
X147098968Y-91971925D01*
X147075222Y-91942991D01*
X147062306Y-91918827D01*
X146991557Y-91786467D01*
X146974384Y-91729853D01*
X146940037Y-91616627D01*
X146922641Y-91440000D01*
X146940037Y-91263373D01*
X146991557Y-91093534D01*
X146991557Y-91093533D01*
X147075221Y-90937011D01*
X147075222Y-90937009D01*
X147108335Y-90896661D01*
X147187814Y-90799814D01*
X147316470Y-90694230D01*
X147325009Y-90687222D01*
X147342913Y-90677652D01*
X147481533Y-90603557D01*
X147538147Y-90586384D01*
X147651373Y-90552037D01*
X147717557Y-90545519D01*
X147783740Y-90539000D01*
X147872260Y-90539000D01*
X147938443Y-90545519D01*
X147938443Y-90545519D01*
G37*
G36*
X157082443Y-90545519D02*
X157148627Y-90552037D01*
X157261853Y-90586384D01*
X157318467Y-90603557D01*
X157457087Y-90677652D01*
X157474991Y-90687222D01*
X157483530Y-90694230D01*
X157612186Y-90799814D01*
X157691665Y-90896661D01*
X157724778Y-90937009D01*
X157724779Y-90937011D01*
X157808443Y-91093533D01*
X157808443Y-91093534D01*
X157859963Y-91263373D01*
X157877359Y-91440000D01*
X157859963Y-91616627D01*
X157825616Y-91729853D01*
X157808443Y-91786467D01*
X157737694Y-91918827D01*
X157724778Y-91942991D01*
X157701032Y-91971925D01*
X157612186Y-92080186D01*
X157533049Y-92145131D01*
X157474991Y-92192778D01*
X157474989Y-92192779D01*
X157318467Y-92276443D01*
X157261853Y-92293616D01*
X157148627Y-92327963D01*
X157082443Y-92334481D01*
X157016260Y-92341000D01*
X156927740Y-92341000D01*
X156861557Y-92334481D01*
X156795373Y-92327963D01*
X156682147Y-92293616D01*
X156625533Y-92276443D01*
X156469011Y-92192779D01*
X156469009Y-92192778D01*
X156410951Y-92145131D01*
X156331814Y-92080186D01*
X156242968Y-91971925D01*
X156219222Y-91942991D01*
X156206306Y-91918827D01*
X156135557Y-91786467D01*
X156118384Y-91729853D01*
X156084037Y-91616627D01*
X156066641Y-91440000D01*
X156084037Y-91263373D01*
X156135557Y-91093534D01*
X156135557Y-91093533D01*
X156219221Y-90937011D01*
X156219222Y-90937009D01*
X156252335Y-90896661D01*
X156331814Y-90799814D01*
X156460470Y-90694230D01*
X156469009Y-90687222D01*
X156486913Y-90677652D01*
X156625533Y-90603557D01*
X156682147Y-90586384D01*
X156795373Y-90552037D01*
X156861558Y-90545518D01*
X156927740Y-90539000D01*
X157016260Y-90539000D01*
X157082443Y-90545519D01*
X157082443Y-90545519D01*
G37*
G36*
X151838677Y-90693465D02*
X151876364Y-90704898D01*
X151911103Y-90723466D01*
X151941548Y-90748452D01*
X151966534Y-90778897D01*
X151985102Y-90813636D01*
X151996535Y-90851323D01*
X152001000Y-90896661D01*
X152001000Y-91983339D01*
X151996535Y-92028677D01*
X151985102Y-92066364D01*
X151966534Y-92101103D01*
X151941548Y-92131548D01*
X151911103Y-92156534D01*
X151876364Y-92175102D01*
X151838677Y-92186535D01*
X151793339Y-92191000D01*
X150956661Y-92191000D01*
X150911323Y-92186535D01*
X150873636Y-92175102D01*
X150838897Y-92156534D01*
X150808452Y-92131548D01*
X150783466Y-92101103D01*
X150764898Y-92066364D01*
X150753465Y-92028677D01*
X150749000Y-91983339D01*
X150749000Y-90896661D01*
X150753465Y-90851323D01*
X150764898Y-90813636D01*
X150783466Y-90778897D01*
X150808452Y-90748452D01*
X150838897Y-90723466D01*
X150873636Y-90704898D01*
X150911323Y-90693465D01*
X150956661Y-90689000D01*
X151793339Y-90689000D01*
X151838677Y-90693465D01*
X151838677Y-90693465D01*
G37*
G36*
X153888677Y-90693465D02*
X153926364Y-90704898D01*
X153961103Y-90723466D01*
X153991548Y-90748452D01*
X154016534Y-90778897D01*
X154035102Y-90813636D01*
X154046535Y-90851323D01*
X154051000Y-90896661D01*
X154051000Y-91983339D01*
X154046535Y-92028677D01*
X154035102Y-92066364D01*
X154016534Y-92101103D01*
X153991548Y-92131548D01*
X153961103Y-92156534D01*
X153926364Y-92175102D01*
X153888677Y-92186535D01*
X153843339Y-92191000D01*
X153006661Y-92191000D01*
X152961323Y-92186535D01*
X152923636Y-92175102D01*
X152888897Y-92156534D01*
X152858452Y-92131548D01*
X152833466Y-92101103D01*
X152814898Y-92066364D01*
X152803465Y-92028677D01*
X152799000Y-91983339D01*
X152799000Y-90896661D01*
X152803465Y-90851323D01*
X152814898Y-90813636D01*
X152833466Y-90778897D01*
X152858452Y-90748452D01*
X152888897Y-90723466D01*
X152923636Y-90704898D01*
X152961323Y-90693465D01*
X153006661Y-90689000D01*
X153843339Y-90689000D01*
X153888677Y-90693465D01*
X153888677Y-90693465D01*
G37*
M02*
