G04 #@! TF.GenerationSoftware,KiCad,Pcbnew,5.0.2-bee76a0~70~ubuntu16.04.1*
G04 #@! TF.CreationDate,2020-01-28T21:52:51-08:00*
G04 #@! TF.ProjectId,touch-circuit-v1,746f7563-682d-4636-9972-637569742d76,rev?*
G04 #@! TF.SameCoordinates,Original*
G04 #@! TF.FileFunction,Copper,L1,Top*
G04 #@! TF.FilePolarity,Positive*
%FSLAX46Y46*%
G04 Gerber Fmt 4.6, Leading zero omitted, Abs format (unit mm)*
G04 Created by KiCad (PCBNEW 5.0.2-bee76a0~70~ubuntu16.04.1) date Tue 28 Jan 2020 09:52:51 PM PST*
%MOMM*%
%LPD*%
G01*
G04 APERTURE LIST*
G04 #@! TA.AperFunction,ComponentPad*
%ADD10C,1.700000*%
G04 #@! TD*
G04 #@! TA.AperFunction,Conductor*
%ADD11C,1.700000*%
G04 #@! TD*
G04 #@! TA.AperFunction,Conductor*
%ADD12C,0.100000*%
G04 #@! TD*
G04 #@! TA.AperFunction,SMDPad,CuDef*
%ADD13C,1.150000*%
G04 #@! TD*
G04 #@! TA.AperFunction,SMDPad,CuDef*
%ADD14R,1.750000X0.550000*%
G04 #@! TD*
G04 #@! TA.AperFunction,ViaPad*
%ADD15C,0.800000*%
G04 #@! TD*
G04 #@! TA.AperFunction,Conductor*
%ADD16C,0.250000*%
G04 #@! TD*
G04 #@! TA.AperFunction,Conductor*
%ADD17C,0.254000*%
G04 #@! TD*
G04 APERTURE END LIST*
D10*
G04 #@! TO.P,J2,2*
G04 #@! TO.N,/skin*
X158242000Y-93639705D03*
D11*
G04 #@! TD*
G04 #@! TO.N,/skin*
G04 #@! TO.C,J2*
X158242000Y-93639705D02*
X158242000Y-93639705D01*
D10*
G04 #@! TO.P,J2,1*
G04 #@! TO.N,/skin*
X156972000Y-91440000D03*
D11*
G04 #@! TD*
G04 #@! TO.N,/skin*
G04 #@! TO.C,J2*
X156972000Y-91440000D02*
X156972000Y-91440000D01*
D10*
G04 #@! TO.P,J1,2*
G04 #@! TO.N,/skin*
X146558000Y-93639705D03*
D11*
G04 #@! TD*
G04 #@! TO.N,/skin*
G04 #@! TO.C,J1*
X146558000Y-93639705D02*
X146558000Y-93639705D01*
D10*
G04 #@! TO.P,J1,1*
G04 #@! TO.N,/skin*
X147828000Y-91440000D03*
D11*
G04 #@! TD*
G04 #@! TO.N,/skin*
G04 #@! TO.C,J1*
X147828000Y-91440000D02*
X147828000Y-91440000D01*
D12*
G04 #@! TO.N,Net-(C1-Pad1)*
G04 #@! TO.C,C1*
G36*
X155414505Y-105861204D02*
X155438773Y-105864804D01*
X155462572Y-105870765D01*
X155485671Y-105879030D01*
X155507850Y-105889520D01*
X155528893Y-105902132D01*
X155548599Y-105916747D01*
X155566777Y-105933223D01*
X155583253Y-105951401D01*
X155597868Y-105971107D01*
X155610480Y-105992150D01*
X155620970Y-106014329D01*
X155629235Y-106037428D01*
X155635196Y-106061227D01*
X155638796Y-106085495D01*
X155640000Y-106109999D01*
X155640000Y-106760001D01*
X155638796Y-106784505D01*
X155635196Y-106808773D01*
X155629235Y-106832572D01*
X155620970Y-106855671D01*
X155610480Y-106877850D01*
X155597868Y-106898893D01*
X155583253Y-106918599D01*
X155566777Y-106936777D01*
X155548599Y-106953253D01*
X155528893Y-106967868D01*
X155507850Y-106980480D01*
X155485671Y-106990970D01*
X155462572Y-106999235D01*
X155438773Y-107005196D01*
X155414505Y-107008796D01*
X155390001Y-107010000D01*
X154489999Y-107010000D01*
X154465495Y-107008796D01*
X154441227Y-107005196D01*
X154417428Y-106999235D01*
X154394329Y-106990970D01*
X154372150Y-106980480D01*
X154351107Y-106967868D01*
X154331401Y-106953253D01*
X154313223Y-106936777D01*
X154296747Y-106918599D01*
X154282132Y-106898893D01*
X154269520Y-106877850D01*
X154259030Y-106855671D01*
X154250765Y-106832572D01*
X154244804Y-106808773D01*
X154241204Y-106784505D01*
X154240000Y-106760001D01*
X154240000Y-106109999D01*
X154241204Y-106085495D01*
X154244804Y-106061227D01*
X154250765Y-106037428D01*
X154259030Y-106014329D01*
X154269520Y-105992150D01*
X154282132Y-105971107D01*
X154296747Y-105951401D01*
X154313223Y-105933223D01*
X154331401Y-105916747D01*
X154351107Y-105902132D01*
X154372150Y-105889520D01*
X154394329Y-105879030D01*
X154417428Y-105870765D01*
X154441227Y-105864804D01*
X154465495Y-105861204D01*
X154489999Y-105860000D01*
X155390001Y-105860000D01*
X155414505Y-105861204D01*
X155414505Y-105861204D01*
G37*
D13*
G04 #@! TD*
G04 #@! TO.P,C1,1*
G04 #@! TO.N,Net-(C1-Pad1)*
X154940000Y-106435000D03*
D12*
G04 #@! TO.N,GND*
G04 #@! TO.C,C1*
G36*
X155414505Y-103811204D02*
X155438773Y-103814804D01*
X155462572Y-103820765D01*
X155485671Y-103829030D01*
X155507850Y-103839520D01*
X155528893Y-103852132D01*
X155548599Y-103866747D01*
X155566777Y-103883223D01*
X155583253Y-103901401D01*
X155597868Y-103921107D01*
X155610480Y-103942150D01*
X155620970Y-103964329D01*
X155629235Y-103987428D01*
X155635196Y-104011227D01*
X155638796Y-104035495D01*
X155640000Y-104059999D01*
X155640000Y-104710001D01*
X155638796Y-104734505D01*
X155635196Y-104758773D01*
X155629235Y-104782572D01*
X155620970Y-104805671D01*
X155610480Y-104827850D01*
X155597868Y-104848893D01*
X155583253Y-104868599D01*
X155566777Y-104886777D01*
X155548599Y-104903253D01*
X155528893Y-104917868D01*
X155507850Y-104930480D01*
X155485671Y-104940970D01*
X155462572Y-104949235D01*
X155438773Y-104955196D01*
X155414505Y-104958796D01*
X155390001Y-104960000D01*
X154489999Y-104960000D01*
X154465495Y-104958796D01*
X154441227Y-104955196D01*
X154417428Y-104949235D01*
X154394329Y-104940970D01*
X154372150Y-104930480D01*
X154351107Y-104917868D01*
X154331401Y-104903253D01*
X154313223Y-104886777D01*
X154296747Y-104868599D01*
X154282132Y-104848893D01*
X154269520Y-104827850D01*
X154259030Y-104805671D01*
X154250765Y-104782572D01*
X154244804Y-104758773D01*
X154241204Y-104734505D01*
X154240000Y-104710001D01*
X154240000Y-104059999D01*
X154241204Y-104035495D01*
X154244804Y-104011227D01*
X154250765Y-103987428D01*
X154259030Y-103964329D01*
X154269520Y-103942150D01*
X154282132Y-103921107D01*
X154296747Y-103901401D01*
X154313223Y-103883223D01*
X154331401Y-103866747D01*
X154351107Y-103852132D01*
X154372150Y-103839520D01*
X154394329Y-103829030D01*
X154417428Y-103820765D01*
X154441227Y-103814804D01*
X154465495Y-103811204D01*
X154489999Y-103810000D01*
X155390001Y-103810000D01*
X155414505Y-103811204D01*
X155414505Y-103811204D01*
G37*
D13*
G04 #@! TD*
G04 #@! TO.P,C1,2*
G04 #@! TO.N,GND*
X154940000Y-104385000D03*
D12*
G04 #@! TO.N,Net-(D1-Pad1)*
G04 #@! TO.C,D1*
G36*
X151234505Y-93281204D02*
X151258773Y-93284804D01*
X151282572Y-93290765D01*
X151305671Y-93299030D01*
X151327850Y-93309520D01*
X151348893Y-93322132D01*
X151368599Y-93336747D01*
X151386777Y-93353223D01*
X151403253Y-93371401D01*
X151417868Y-93391107D01*
X151430480Y-93412150D01*
X151440970Y-93434329D01*
X151449235Y-93457428D01*
X151455196Y-93481227D01*
X151458796Y-93505495D01*
X151460000Y-93529999D01*
X151460000Y-94430001D01*
X151458796Y-94454505D01*
X151455196Y-94478773D01*
X151449235Y-94502572D01*
X151440970Y-94525671D01*
X151430480Y-94547850D01*
X151417868Y-94568893D01*
X151403253Y-94588599D01*
X151386777Y-94606777D01*
X151368599Y-94623253D01*
X151348893Y-94637868D01*
X151327850Y-94650480D01*
X151305671Y-94660970D01*
X151282572Y-94669235D01*
X151258773Y-94675196D01*
X151234505Y-94678796D01*
X151210001Y-94680000D01*
X150559999Y-94680000D01*
X150535495Y-94678796D01*
X150511227Y-94675196D01*
X150487428Y-94669235D01*
X150464329Y-94660970D01*
X150442150Y-94650480D01*
X150421107Y-94637868D01*
X150401401Y-94623253D01*
X150383223Y-94606777D01*
X150366747Y-94588599D01*
X150352132Y-94568893D01*
X150339520Y-94547850D01*
X150329030Y-94525671D01*
X150320765Y-94502572D01*
X150314804Y-94478773D01*
X150311204Y-94454505D01*
X150310000Y-94430001D01*
X150310000Y-93529999D01*
X150311204Y-93505495D01*
X150314804Y-93481227D01*
X150320765Y-93457428D01*
X150329030Y-93434329D01*
X150339520Y-93412150D01*
X150352132Y-93391107D01*
X150366747Y-93371401D01*
X150383223Y-93353223D01*
X150401401Y-93336747D01*
X150421107Y-93322132D01*
X150442150Y-93309520D01*
X150464329Y-93299030D01*
X150487428Y-93290765D01*
X150511227Y-93284804D01*
X150535495Y-93281204D01*
X150559999Y-93280000D01*
X151210001Y-93280000D01*
X151234505Y-93281204D01*
X151234505Y-93281204D01*
G37*
D13*
G04 #@! TD*
G04 #@! TO.P,D1,1*
G04 #@! TO.N,Net-(D1-Pad1)*
X150885000Y-93980000D03*
D12*
G04 #@! TO.N,Net-(D1-Pad2)*
G04 #@! TO.C,D1*
G36*
X149184505Y-93281204D02*
X149208773Y-93284804D01*
X149232572Y-93290765D01*
X149255671Y-93299030D01*
X149277850Y-93309520D01*
X149298893Y-93322132D01*
X149318599Y-93336747D01*
X149336777Y-93353223D01*
X149353253Y-93371401D01*
X149367868Y-93391107D01*
X149380480Y-93412150D01*
X149390970Y-93434329D01*
X149399235Y-93457428D01*
X149405196Y-93481227D01*
X149408796Y-93505495D01*
X149410000Y-93529999D01*
X149410000Y-94430001D01*
X149408796Y-94454505D01*
X149405196Y-94478773D01*
X149399235Y-94502572D01*
X149390970Y-94525671D01*
X149380480Y-94547850D01*
X149367868Y-94568893D01*
X149353253Y-94588599D01*
X149336777Y-94606777D01*
X149318599Y-94623253D01*
X149298893Y-94637868D01*
X149277850Y-94650480D01*
X149255671Y-94660970D01*
X149232572Y-94669235D01*
X149208773Y-94675196D01*
X149184505Y-94678796D01*
X149160001Y-94680000D01*
X148509999Y-94680000D01*
X148485495Y-94678796D01*
X148461227Y-94675196D01*
X148437428Y-94669235D01*
X148414329Y-94660970D01*
X148392150Y-94650480D01*
X148371107Y-94637868D01*
X148351401Y-94623253D01*
X148333223Y-94606777D01*
X148316747Y-94588599D01*
X148302132Y-94568893D01*
X148289520Y-94547850D01*
X148279030Y-94525671D01*
X148270765Y-94502572D01*
X148264804Y-94478773D01*
X148261204Y-94454505D01*
X148260000Y-94430001D01*
X148260000Y-93529999D01*
X148261204Y-93505495D01*
X148264804Y-93481227D01*
X148270765Y-93457428D01*
X148279030Y-93434329D01*
X148289520Y-93412150D01*
X148302132Y-93391107D01*
X148316747Y-93371401D01*
X148333223Y-93353223D01*
X148351401Y-93336747D01*
X148371107Y-93322132D01*
X148392150Y-93309520D01*
X148414329Y-93299030D01*
X148437428Y-93290765D01*
X148461227Y-93284804D01*
X148485495Y-93281204D01*
X148509999Y-93280000D01*
X149160001Y-93280000D01*
X149184505Y-93281204D01*
X149184505Y-93281204D01*
G37*
D13*
G04 #@! TD*
G04 #@! TO.P,D1,2*
G04 #@! TO.N,Net-(D1-Pad2)*
X148835000Y-93980000D03*
D12*
G04 #@! TO.N,Net-(D2-Pad1)*
G04 #@! TO.C,D2*
G36*
X152874505Y-105861204D02*
X152898773Y-105864804D01*
X152922572Y-105870765D01*
X152945671Y-105879030D01*
X152967850Y-105889520D01*
X152988893Y-105902132D01*
X153008599Y-105916747D01*
X153026777Y-105933223D01*
X153043253Y-105951401D01*
X153057868Y-105971107D01*
X153070480Y-105992150D01*
X153080970Y-106014329D01*
X153089235Y-106037428D01*
X153095196Y-106061227D01*
X153098796Y-106085495D01*
X153100000Y-106109999D01*
X153100000Y-106760001D01*
X153098796Y-106784505D01*
X153095196Y-106808773D01*
X153089235Y-106832572D01*
X153080970Y-106855671D01*
X153070480Y-106877850D01*
X153057868Y-106898893D01*
X153043253Y-106918599D01*
X153026777Y-106936777D01*
X153008599Y-106953253D01*
X152988893Y-106967868D01*
X152967850Y-106980480D01*
X152945671Y-106990970D01*
X152922572Y-106999235D01*
X152898773Y-107005196D01*
X152874505Y-107008796D01*
X152850001Y-107010000D01*
X151949999Y-107010000D01*
X151925495Y-107008796D01*
X151901227Y-107005196D01*
X151877428Y-106999235D01*
X151854329Y-106990970D01*
X151832150Y-106980480D01*
X151811107Y-106967868D01*
X151791401Y-106953253D01*
X151773223Y-106936777D01*
X151756747Y-106918599D01*
X151742132Y-106898893D01*
X151729520Y-106877850D01*
X151719030Y-106855671D01*
X151710765Y-106832572D01*
X151704804Y-106808773D01*
X151701204Y-106784505D01*
X151700000Y-106760001D01*
X151700000Y-106109999D01*
X151701204Y-106085495D01*
X151704804Y-106061227D01*
X151710765Y-106037428D01*
X151719030Y-106014329D01*
X151729520Y-105992150D01*
X151742132Y-105971107D01*
X151756747Y-105951401D01*
X151773223Y-105933223D01*
X151791401Y-105916747D01*
X151811107Y-105902132D01*
X151832150Y-105889520D01*
X151854329Y-105879030D01*
X151877428Y-105870765D01*
X151901227Y-105864804D01*
X151925495Y-105861204D01*
X151949999Y-105860000D01*
X152850001Y-105860000D01*
X152874505Y-105861204D01*
X152874505Y-105861204D01*
G37*
D13*
G04 #@! TD*
G04 #@! TO.P,D2,1*
G04 #@! TO.N,Net-(D2-Pad1)*
X152400000Y-106435000D03*
D12*
G04 #@! TO.N,Net-(D2-Pad2)*
G04 #@! TO.C,D2*
G36*
X152874505Y-103811204D02*
X152898773Y-103814804D01*
X152922572Y-103820765D01*
X152945671Y-103829030D01*
X152967850Y-103839520D01*
X152988893Y-103852132D01*
X153008599Y-103866747D01*
X153026777Y-103883223D01*
X153043253Y-103901401D01*
X153057868Y-103921107D01*
X153070480Y-103942150D01*
X153080970Y-103964329D01*
X153089235Y-103987428D01*
X153095196Y-104011227D01*
X153098796Y-104035495D01*
X153100000Y-104059999D01*
X153100000Y-104710001D01*
X153098796Y-104734505D01*
X153095196Y-104758773D01*
X153089235Y-104782572D01*
X153080970Y-104805671D01*
X153070480Y-104827850D01*
X153057868Y-104848893D01*
X153043253Y-104868599D01*
X153026777Y-104886777D01*
X153008599Y-104903253D01*
X152988893Y-104917868D01*
X152967850Y-104930480D01*
X152945671Y-104940970D01*
X152922572Y-104949235D01*
X152898773Y-104955196D01*
X152874505Y-104958796D01*
X152850001Y-104960000D01*
X151949999Y-104960000D01*
X151925495Y-104958796D01*
X151901227Y-104955196D01*
X151877428Y-104949235D01*
X151854329Y-104940970D01*
X151832150Y-104930480D01*
X151811107Y-104917868D01*
X151791401Y-104903253D01*
X151773223Y-104886777D01*
X151756747Y-104868599D01*
X151742132Y-104848893D01*
X151729520Y-104827850D01*
X151719030Y-104805671D01*
X151710765Y-104782572D01*
X151704804Y-104758773D01*
X151701204Y-104734505D01*
X151700000Y-104710001D01*
X151700000Y-104059999D01*
X151701204Y-104035495D01*
X151704804Y-104011227D01*
X151710765Y-103987428D01*
X151719030Y-103964329D01*
X151729520Y-103942150D01*
X151742132Y-103921107D01*
X151756747Y-103901401D01*
X151773223Y-103883223D01*
X151791401Y-103866747D01*
X151811107Y-103852132D01*
X151832150Y-103839520D01*
X151854329Y-103829030D01*
X151877428Y-103820765D01*
X151901227Y-103814804D01*
X151925495Y-103811204D01*
X151949999Y-103810000D01*
X152850001Y-103810000D01*
X152874505Y-103811204D01*
X152874505Y-103811204D01*
G37*
D13*
G04 #@! TD*
G04 #@! TO.P,D2,2*
G04 #@! TO.N,Net-(D2-Pad2)*
X152400000Y-104385000D03*
D12*
G04 #@! TO.N,GND*
G04 #@! TO.C,R1*
G36*
X150334505Y-110941204D02*
X150358773Y-110944804D01*
X150382572Y-110950765D01*
X150405671Y-110959030D01*
X150427850Y-110969520D01*
X150448893Y-110982132D01*
X150468599Y-110996747D01*
X150486777Y-111013223D01*
X150503253Y-111031401D01*
X150517868Y-111051107D01*
X150530480Y-111072150D01*
X150540970Y-111094329D01*
X150549235Y-111117428D01*
X150555196Y-111141227D01*
X150558796Y-111165495D01*
X150560000Y-111189999D01*
X150560000Y-111840001D01*
X150558796Y-111864505D01*
X150555196Y-111888773D01*
X150549235Y-111912572D01*
X150540970Y-111935671D01*
X150530480Y-111957850D01*
X150517868Y-111978893D01*
X150503253Y-111998599D01*
X150486777Y-112016777D01*
X150468599Y-112033253D01*
X150448893Y-112047868D01*
X150427850Y-112060480D01*
X150405671Y-112070970D01*
X150382572Y-112079235D01*
X150358773Y-112085196D01*
X150334505Y-112088796D01*
X150310001Y-112090000D01*
X149409999Y-112090000D01*
X149385495Y-112088796D01*
X149361227Y-112085196D01*
X149337428Y-112079235D01*
X149314329Y-112070970D01*
X149292150Y-112060480D01*
X149271107Y-112047868D01*
X149251401Y-112033253D01*
X149233223Y-112016777D01*
X149216747Y-111998599D01*
X149202132Y-111978893D01*
X149189520Y-111957850D01*
X149179030Y-111935671D01*
X149170765Y-111912572D01*
X149164804Y-111888773D01*
X149161204Y-111864505D01*
X149160000Y-111840001D01*
X149160000Y-111189999D01*
X149161204Y-111165495D01*
X149164804Y-111141227D01*
X149170765Y-111117428D01*
X149179030Y-111094329D01*
X149189520Y-111072150D01*
X149202132Y-111051107D01*
X149216747Y-111031401D01*
X149233223Y-111013223D01*
X149251401Y-110996747D01*
X149271107Y-110982132D01*
X149292150Y-110969520D01*
X149314329Y-110959030D01*
X149337428Y-110950765D01*
X149361227Y-110944804D01*
X149385495Y-110941204D01*
X149409999Y-110940000D01*
X150310001Y-110940000D01*
X150334505Y-110941204D01*
X150334505Y-110941204D01*
G37*
D13*
G04 #@! TD*
G04 #@! TO.P,R1,2*
G04 #@! TO.N,GND*
X149860000Y-111515000D03*
D12*
G04 #@! TO.N,/skin*
G04 #@! TO.C,R1*
G36*
X150334505Y-108891204D02*
X150358773Y-108894804D01*
X150382572Y-108900765D01*
X150405671Y-108909030D01*
X150427850Y-108919520D01*
X150448893Y-108932132D01*
X150468599Y-108946747D01*
X150486777Y-108963223D01*
X150503253Y-108981401D01*
X150517868Y-109001107D01*
X150530480Y-109022150D01*
X150540970Y-109044329D01*
X150549235Y-109067428D01*
X150555196Y-109091227D01*
X150558796Y-109115495D01*
X150560000Y-109139999D01*
X150560000Y-109790001D01*
X150558796Y-109814505D01*
X150555196Y-109838773D01*
X150549235Y-109862572D01*
X150540970Y-109885671D01*
X150530480Y-109907850D01*
X150517868Y-109928893D01*
X150503253Y-109948599D01*
X150486777Y-109966777D01*
X150468599Y-109983253D01*
X150448893Y-109997868D01*
X150427850Y-110010480D01*
X150405671Y-110020970D01*
X150382572Y-110029235D01*
X150358773Y-110035196D01*
X150334505Y-110038796D01*
X150310001Y-110040000D01*
X149409999Y-110040000D01*
X149385495Y-110038796D01*
X149361227Y-110035196D01*
X149337428Y-110029235D01*
X149314329Y-110020970D01*
X149292150Y-110010480D01*
X149271107Y-109997868D01*
X149251401Y-109983253D01*
X149233223Y-109966777D01*
X149216747Y-109948599D01*
X149202132Y-109928893D01*
X149189520Y-109907850D01*
X149179030Y-109885671D01*
X149170765Y-109862572D01*
X149164804Y-109838773D01*
X149161204Y-109814505D01*
X149160000Y-109790001D01*
X149160000Y-109139999D01*
X149161204Y-109115495D01*
X149164804Y-109091227D01*
X149170765Y-109067428D01*
X149179030Y-109044329D01*
X149189520Y-109022150D01*
X149202132Y-109001107D01*
X149216747Y-108981401D01*
X149233223Y-108963223D01*
X149251401Y-108946747D01*
X149271107Y-108932132D01*
X149292150Y-108919520D01*
X149314329Y-108909030D01*
X149337428Y-108900765D01*
X149361227Y-108894804D01*
X149385495Y-108891204D01*
X149409999Y-108890000D01*
X150310001Y-108890000D01*
X150334505Y-108891204D01*
X150334505Y-108891204D01*
G37*
D13*
G04 #@! TD*
G04 #@! TO.P,R1,1*
G04 #@! TO.N,/skin*
X149860000Y-109465000D03*
D12*
G04 #@! TO.N,+3V3*
G04 #@! TO.C,R2*
G36*
X150334505Y-103811204D02*
X150358773Y-103814804D01*
X150382572Y-103820765D01*
X150405671Y-103829030D01*
X150427850Y-103839520D01*
X150448893Y-103852132D01*
X150468599Y-103866747D01*
X150486777Y-103883223D01*
X150503253Y-103901401D01*
X150517868Y-103921107D01*
X150530480Y-103942150D01*
X150540970Y-103964329D01*
X150549235Y-103987428D01*
X150555196Y-104011227D01*
X150558796Y-104035495D01*
X150560000Y-104059999D01*
X150560000Y-104710001D01*
X150558796Y-104734505D01*
X150555196Y-104758773D01*
X150549235Y-104782572D01*
X150540970Y-104805671D01*
X150530480Y-104827850D01*
X150517868Y-104848893D01*
X150503253Y-104868599D01*
X150486777Y-104886777D01*
X150468599Y-104903253D01*
X150448893Y-104917868D01*
X150427850Y-104930480D01*
X150405671Y-104940970D01*
X150382572Y-104949235D01*
X150358773Y-104955196D01*
X150334505Y-104958796D01*
X150310001Y-104960000D01*
X149409999Y-104960000D01*
X149385495Y-104958796D01*
X149361227Y-104955196D01*
X149337428Y-104949235D01*
X149314329Y-104940970D01*
X149292150Y-104930480D01*
X149271107Y-104917868D01*
X149251401Y-104903253D01*
X149233223Y-104886777D01*
X149216747Y-104868599D01*
X149202132Y-104848893D01*
X149189520Y-104827850D01*
X149179030Y-104805671D01*
X149170765Y-104782572D01*
X149164804Y-104758773D01*
X149161204Y-104734505D01*
X149160000Y-104710001D01*
X149160000Y-104059999D01*
X149161204Y-104035495D01*
X149164804Y-104011227D01*
X149170765Y-103987428D01*
X149179030Y-103964329D01*
X149189520Y-103942150D01*
X149202132Y-103921107D01*
X149216747Y-103901401D01*
X149233223Y-103883223D01*
X149251401Y-103866747D01*
X149271107Y-103852132D01*
X149292150Y-103839520D01*
X149314329Y-103829030D01*
X149337428Y-103820765D01*
X149361227Y-103814804D01*
X149385495Y-103811204D01*
X149409999Y-103810000D01*
X150310001Y-103810000D01*
X150334505Y-103811204D01*
X150334505Y-103811204D01*
G37*
D13*
G04 #@! TD*
G04 #@! TO.P,R2,1*
G04 #@! TO.N,+3V3*
X149860000Y-104385000D03*
D12*
G04 #@! TO.N,Net-(R2-Pad2)*
G04 #@! TO.C,R2*
G36*
X150334505Y-105861204D02*
X150358773Y-105864804D01*
X150382572Y-105870765D01*
X150405671Y-105879030D01*
X150427850Y-105889520D01*
X150448893Y-105902132D01*
X150468599Y-105916747D01*
X150486777Y-105933223D01*
X150503253Y-105951401D01*
X150517868Y-105971107D01*
X150530480Y-105992150D01*
X150540970Y-106014329D01*
X150549235Y-106037428D01*
X150555196Y-106061227D01*
X150558796Y-106085495D01*
X150560000Y-106109999D01*
X150560000Y-106760001D01*
X150558796Y-106784505D01*
X150555196Y-106808773D01*
X150549235Y-106832572D01*
X150540970Y-106855671D01*
X150530480Y-106877850D01*
X150517868Y-106898893D01*
X150503253Y-106918599D01*
X150486777Y-106936777D01*
X150468599Y-106953253D01*
X150448893Y-106967868D01*
X150427850Y-106980480D01*
X150405671Y-106990970D01*
X150382572Y-106999235D01*
X150358773Y-107005196D01*
X150334505Y-107008796D01*
X150310001Y-107010000D01*
X149409999Y-107010000D01*
X149385495Y-107008796D01*
X149361227Y-107005196D01*
X149337428Y-106999235D01*
X149314329Y-106990970D01*
X149292150Y-106980480D01*
X149271107Y-106967868D01*
X149251401Y-106953253D01*
X149233223Y-106936777D01*
X149216747Y-106918599D01*
X149202132Y-106898893D01*
X149189520Y-106877850D01*
X149179030Y-106855671D01*
X149170765Y-106832572D01*
X149164804Y-106808773D01*
X149161204Y-106784505D01*
X149160000Y-106760001D01*
X149160000Y-106109999D01*
X149161204Y-106085495D01*
X149164804Y-106061227D01*
X149170765Y-106037428D01*
X149179030Y-106014329D01*
X149189520Y-105992150D01*
X149202132Y-105971107D01*
X149216747Y-105951401D01*
X149233223Y-105933223D01*
X149251401Y-105916747D01*
X149271107Y-105902132D01*
X149292150Y-105889520D01*
X149314329Y-105879030D01*
X149337428Y-105870765D01*
X149361227Y-105864804D01*
X149385495Y-105861204D01*
X149409999Y-105860000D01*
X150310001Y-105860000D01*
X150334505Y-105861204D01*
X150334505Y-105861204D01*
G37*
D13*
G04 #@! TD*
G04 #@! TO.P,R2,2*
G04 #@! TO.N,Net-(R2-Pad2)*
X149860000Y-106435000D03*
D12*
G04 #@! TO.N,GND*
G04 #@! TO.C,R3*
G36*
X155414505Y-110941204D02*
X155438773Y-110944804D01*
X155462572Y-110950765D01*
X155485671Y-110959030D01*
X155507850Y-110969520D01*
X155528893Y-110982132D01*
X155548599Y-110996747D01*
X155566777Y-111013223D01*
X155583253Y-111031401D01*
X155597868Y-111051107D01*
X155610480Y-111072150D01*
X155620970Y-111094329D01*
X155629235Y-111117428D01*
X155635196Y-111141227D01*
X155638796Y-111165495D01*
X155640000Y-111189999D01*
X155640000Y-111840001D01*
X155638796Y-111864505D01*
X155635196Y-111888773D01*
X155629235Y-111912572D01*
X155620970Y-111935671D01*
X155610480Y-111957850D01*
X155597868Y-111978893D01*
X155583253Y-111998599D01*
X155566777Y-112016777D01*
X155548599Y-112033253D01*
X155528893Y-112047868D01*
X155507850Y-112060480D01*
X155485671Y-112070970D01*
X155462572Y-112079235D01*
X155438773Y-112085196D01*
X155414505Y-112088796D01*
X155390001Y-112090000D01*
X154489999Y-112090000D01*
X154465495Y-112088796D01*
X154441227Y-112085196D01*
X154417428Y-112079235D01*
X154394329Y-112070970D01*
X154372150Y-112060480D01*
X154351107Y-112047868D01*
X154331401Y-112033253D01*
X154313223Y-112016777D01*
X154296747Y-111998599D01*
X154282132Y-111978893D01*
X154269520Y-111957850D01*
X154259030Y-111935671D01*
X154250765Y-111912572D01*
X154244804Y-111888773D01*
X154241204Y-111864505D01*
X154240000Y-111840001D01*
X154240000Y-111189999D01*
X154241204Y-111165495D01*
X154244804Y-111141227D01*
X154250765Y-111117428D01*
X154259030Y-111094329D01*
X154269520Y-111072150D01*
X154282132Y-111051107D01*
X154296747Y-111031401D01*
X154313223Y-111013223D01*
X154331401Y-110996747D01*
X154351107Y-110982132D01*
X154372150Y-110969520D01*
X154394329Y-110959030D01*
X154417428Y-110950765D01*
X154441227Y-110944804D01*
X154465495Y-110941204D01*
X154489999Y-110940000D01*
X155390001Y-110940000D01*
X155414505Y-110941204D01*
X155414505Y-110941204D01*
G37*
D13*
G04 #@! TD*
G04 #@! TO.P,R3,2*
G04 #@! TO.N,GND*
X154940000Y-111515000D03*
D12*
G04 #@! TO.N,Net-(R2-Pad2)*
G04 #@! TO.C,R3*
G36*
X155414505Y-108891204D02*
X155438773Y-108894804D01*
X155462572Y-108900765D01*
X155485671Y-108909030D01*
X155507850Y-108919520D01*
X155528893Y-108932132D01*
X155548599Y-108946747D01*
X155566777Y-108963223D01*
X155583253Y-108981401D01*
X155597868Y-109001107D01*
X155610480Y-109022150D01*
X155620970Y-109044329D01*
X155629235Y-109067428D01*
X155635196Y-109091227D01*
X155638796Y-109115495D01*
X155640000Y-109139999D01*
X155640000Y-109790001D01*
X155638796Y-109814505D01*
X155635196Y-109838773D01*
X155629235Y-109862572D01*
X155620970Y-109885671D01*
X155610480Y-109907850D01*
X155597868Y-109928893D01*
X155583253Y-109948599D01*
X155566777Y-109966777D01*
X155548599Y-109983253D01*
X155528893Y-109997868D01*
X155507850Y-110010480D01*
X155485671Y-110020970D01*
X155462572Y-110029235D01*
X155438773Y-110035196D01*
X155414505Y-110038796D01*
X155390001Y-110040000D01*
X154489999Y-110040000D01*
X154465495Y-110038796D01*
X154441227Y-110035196D01*
X154417428Y-110029235D01*
X154394329Y-110020970D01*
X154372150Y-110010480D01*
X154351107Y-109997868D01*
X154331401Y-109983253D01*
X154313223Y-109966777D01*
X154296747Y-109948599D01*
X154282132Y-109928893D01*
X154269520Y-109907850D01*
X154259030Y-109885671D01*
X154250765Y-109862572D01*
X154244804Y-109838773D01*
X154241204Y-109814505D01*
X154240000Y-109790001D01*
X154240000Y-109139999D01*
X154241204Y-109115495D01*
X154244804Y-109091227D01*
X154250765Y-109067428D01*
X154259030Y-109044329D01*
X154269520Y-109022150D01*
X154282132Y-109001107D01*
X154296747Y-108981401D01*
X154313223Y-108963223D01*
X154331401Y-108946747D01*
X154351107Y-108932132D01*
X154372150Y-108919520D01*
X154394329Y-108909030D01*
X154417428Y-108900765D01*
X154441227Y-108894804D01*
X154465495Y-108891204D01*
X154489999Y-108890000D01*
X155390001Y-108890000D01*
X155414505Y-108891204D01*
X155414505Y-108891204D01*
G37*
D13*
G04 #@! TD*
G04 #@! TO.P,R3,1*
G04 #@! TO.N,Net-(R2-Pad2)*
X154940000Y-109465000D03*
D12*
G04 #@! TO.N,Net-(C1-Pad1)*
G04 #@! TO.C,R4*
G36*
X153774505Y-90741204D02*
X153798773Y-90744804D01*
X153822572Y-90750765D01*
X153845671Y-90759030D01*
X153867850Y-90769520D01*
X153888893Y-90782132D01*
X153908599Y-90796747D01*
X153926777Y-90813223D01*
X153943253Y-90831401D01*
X153957868Y-90851107D01*
X153970480Y-90872150D01*
X153980970Y-90894329D01*
X153989235Y-90917428D01*
X153995196Y-90941227D01*
X153998796Y-90965495D01*
X154000000Y-90989999D01*
X154000000Y-91890001D01*
X153998796Y-91914505D01*
X153995196Y-91938773D01*
X153989235Y-91962572D01*
X153980970Y-91985671D01*
X153970480Y-92007850D01*
X153957868Y-92028893D01*
X153943253Y-92048599D01*
X153926777Y-92066777D01*
X153908599Y-92083253D01*
X153888893Y-92097868D01*
X153867850Y-92110480D01*
X153845671Y-92120970D01*
X153822572Y-92129235D01*
X153798773Y-92135196D01*
X153774505Y-92138796D01*
X153750001Y-92140000D01*
X153099999Y-92140000D01*
X153075495Y-92138796D01*
X153051227Y-92135196D01*
X153027428Y-92129235D01*
X153004329Y-92120970D01*
X152982150Y-92110480D01*
X152961107Y-92097868D01*
X152941401Y-92083253D01*
X152923223Y-92066777D01*
X152906747Y-92048599D01*
X152892132Y-92028893D01*
X152879520Y-92007850D01*
X152869030Y-91985671D01*
X152860765Y-91962572D01*
X152854804Y-91938773D01*
X152851204Y-91914505D01*
X152850000Y-91890001D01*
X152850000Y-90989999D01*
X152851204Y-90965495D01*
X152854804Y-90941227D01*
X152860765Y-90917428D01*
X152869030Y-90894329D01*
X152879520Y-90872150D01*
X152892132Y-90851107D01*
X152906747Y-90831401D01*
X152923223Y-90813223D01*
X152941401Y-90796747D01*
X152961107Y-90782132D01*
X152982150Y-90769520D01*
X153004329Y-90759030D01*
X153027428Y-90750765D01*
X153051227Y-90744804D01*
X153075495Y-90741204D01*
X153099999Y-90740000D01*
X153750001Y-90740000D01*
X153774505Y-90741204D01*
X153774505Y-90741204D01*
G37*
D13*
G04 #@! TD*
G04 #@! TO.P,R4,2*
G04 #@! TO.N,Net-(C1-Pad1)*
X153425000Y-91440000D03*
D12*
G04 #@! TO.N,Net-(D1-Pad2)*
G04 #@! TO.C,R4*
G36*
X151724505Y-90741204D02*
X151748773Y-90744804D01*
X151772572Y-90750765D01*
X151795671Y-90759030D01*
X151817850Y-90769520D01*
X151838893Y-90782132D01*
X151858599Y-90796747D01*
X151876777Y-90813223D01*
X151893253Y-90831401D01*
X151907868Y-90851107D01*
X151920480Y-90872150D01*
X151930970Y-90894329D01*
X151939235Y-90917428D01*
X151945196Y-90941227D01*
X151948796Y-90965495D01*
X151950000Y-90989999D01*
X151950000Y-91890001D01*
X151948796Y-91914505D01*
X151945196Y-91938773D01*
X151939235Y-91962572D01*
X151930970Y-91985671D01*
X151920480Y-92007850D01*
X151907868Y-92028893D01*
X151893253Y-92048599D01*
X151876777Y-92066777D01*
X151858599Y-92083253D01*
X151838893Y-92097868D01*
X151817850Y-92110480D01*
X151795671Y-92120970D01*
X151772572Y-92129235D01*
X151748773Y-92135196D01*
X151724505Y-92138796D01*
X151700001Y-92140000D01*
X151049999Y-92140000D01*
X151025495Y-92138796D01*
X151001227Y-92135196D01*
X150977428Y-92129235D01*
X150954329Y-92120970D01*
X150932150Y-92110480D01*
X150911107Y-92097868D01*
X150891401Y-92083253D01*
X150873223Y-92066777D01*
X150856747Y-92048599D01*
X150842132Y-92028893D01*
X150829520Y-92007850D01*
X150819030Y-91985671D01*
X150810765Y-91962572D01*
X150804804Y-91938773D01*
X150801204Y-91914505D01*
X150800000Y-91890001D01*
X150800000Y-90989999D01*
X150801204Y-90965495D01*
X150804804Y-90941227D01*
X150810765Y-90917428D01*
X150819030Y-90894329D01*
X150829520Y-90872150D01*
X150842132Y-90851107D01*
X150856747Y-90831401D01*
X150873223Y-90813223D01*
X150891401Y-90796747D01*
X150911107Y-90782132D01*
X150932150Y-90769520D01*
X150954329Y-90759030D01*
X150977428Y-90750765D01*
X151001227Y-90744804D01*
X151025495Y-90741204D01*
X151049999Y-90740000D01*
X151700001Y-90740000D01*
X151724505Y-90741204D01*
X151724505Y-90741204D01*
G37*
D13*
G04 #@! TD*
G04 #@! TO.P,R4,1*
G04 #@! TO.N,Net-(D1-Pad2)*
X151375000Y-91440000D03*
D12*
G04 #@! TO.N,Net-(D1-Pad1)*
G04 #@! TO.C,R5*
G36*
X154264505Y-93281204D02*
X154288773Y-93284804D01*
X154312572Y-93290765D01*
X154335671Y-93299030D01*
X154357850Y-93309520D01*
X154378893Y-93322132D01*
X154398599Y-93336747D01*
X154416777Y-93353223D01*
X154433253Y-93371401D01*
X154447868Y-93391107D01*
X154460480Y-93412150D01*
X154470970Y-93434329D01*
X154479235Y-93457428D01*
X154485196Y-93481227D01*
X154488796Y-93505495D01*
X154490000Y-93529999D01*
X154490000Y-94430001D01*
X154488796Y-94454505D01*
X154485196Y-94478773D01*
X154479235Y-94502572D01*
X154470970Y-94525671D01*
X154460480Y-94547850D01*
X154447868Y-94568893D01*
X154433253Y-94588599D01*
X154416777Y-94606777D01*
X154398599Y-94623253D01*
X154378893Y-94637868D01*
X154357850Y-94650480D01*
X154335671Y-94660970D01*
X154312572Y-94669235D01*
X154288773Y-94675196D01*
X154264505Y-94678796D01*
X154240001Y-94680000D01*
X153589999Y-94680000D01*
X153565495Y-94678796D01*
X153541227Y-94675196D01*
X153517428Y-94669235D01*
X153494329Y-94660970D01*
X153472150Y-94650480D01*
X153451107Y-94637868D01*
X153431401Y-94623253D01*
X153413223Y-94606777D01*
X153396747Y-94588599D01*
X153382132Y-94568893D01*
X153369520Y-94547850D01*
X153359030Y-94525671D01*
X153350765Y-94502572D01*
X153344804Y-94478773D01*
X153341204Y-94454505D01*
X153340000Y-94430001D01*
X153340000Y-93529999D01*
X153341204Y-93505495D01*
X153344804Y-93481227D01*
X153350765Y-93457428D01*
X153359030Y-93434329D01*
X153369520Y-93412150D01*
X153382132Y-93391107D01*
X153396747Y-93371401D01*
X153413223Y-93353223D01*
X153431401Y-93336747D01*
X153451107Y-93322132D01*
X153472150Y-93309520D01*
X153494329Y-93299030D01*
X153517428Y-93290765D01*
X153541227Y-93284804D01*
X153565495Y-93281204D01*
X153589999Y-93280000D01*
X154240001Y-93280000D01*
X154264505Y-93281204D01*
X154264505Y-93281204D01*
G37*
D13*
G04 #@! TD*
G04 #@! TO.P,R5,1*
G04 #@! TO.N,Net-(D1-Pad1)*
X153915000Y-93980000D03*
D12*
G04 #@! TO.N,Net-(C1-Pad1)*
G04 #@! TO.C,R5*
G36*
X156314505Y-93281204D02*
X156338773Y-93284804D01*
X156362572Y-93290765D01*
X156385671Y-93299030D01*
X156407850Y-93309520D01*
X156428893Y-93322132D01*
X156448599Y-93336747D01*
X156466777Y-93353223D01*
X156483253Y-93371401D01*
X156497868Y-93391107D01*
X156510480Y-93412150D01*
X156520970Y-93434329D01*
X156529235Y-93457428D01*
X156535196Y-93481227D01*
X156538796Y-93505495D01*
X156540000Y-93529999D01*
X156540000Y-94430001D01*
X156538796Y-94454505D01*
X156535196Y-94478773D01*
X156529235Y-94502572D01*
X156520970Y-94525671D01*
X156510480Y-94547850D01*
X156497868Y-94568893D01*
X156483253Y-94588599D01*
X156466777Y-94606777D01*
X156448599Y-94623253D01*
X156428893Y-94637868D01*
X156407850Y-94650480D01*
X156385671Y-94660970D01*
X156362572Y-94669235D01*
X156338773Y-94675196D01*
X156314505Y-94678796D01*
X156290001Y-94680000D01*
X155639999Y-94680000D01*
X155615495Y-94678796D01*
X155591227Y-94675196D01*
X155567428Y-94669235D01*
X155544329Y-94660970D01*
X155522150Y-94650480D01*
X155501107Y-94637868D01*
X155481401Y-94623253D01*
X155463223Y-94606777D01*
X155446747Y-94588599D01*
X155432132Y-94568893D01*
X155419520Y-94547850D01*
X155409030Y-94525671D01*
X155400765Y-94502572D01*
X155394804Y-94478773D01*
X155391204Y-94454505D01*
X155390000Y-94430001D01*
X155390000Y-93529999D01*
X155391204Y-93505495D01*
X155394804Y-93481227D01*
X155400765Y-93457428D01*
X155409030Y-93434329D01*
X155419520Y-93412150D01*
X155432132Y-93391107D01*
X155446747Y-93371401D01*
X155463223Y-93353223D01*
X155481401Y-93336747D01*
X155501107Y-93322132D01*
X155522150Y-93309520D01*
X155544329Y-93299030D01*
X155567428Y-93290765D01*
X155591227Y-93284804D01*
X155615495Y-93281204D01*
X155639999Y-93280000D01*
X156290001Y-93280000D01*
X156314505Y-93281204D01*
X156314505Y-93281204D01*
G37*
D13*
G04 #@! TD*
G04 #@! TO.P,R5,2*
G04 #@! TO.N,Net-(C1-Pad1)*
X155965000Y-93980000D03*
D12*
G04 #@! TO.N,Net-(D2-Pad1)*
G04 #@! TO.C,R6*
G36*
X152874505Y-108871204D02*
X152898773Y-108874804D01*
X152922572Y-108880765D01*
X152945671Y-108889030D01*
X152967850Y-108899520D01*
X152988893Y-108912132D01*
X153008599Y-108926747D01*
X153026777Y-108943223D01*
X153043253Y-108961401D01*
X153057868Y-108981107D01*
X153070480Y-109002150D01*
X153080970Y-109024329D01*
X153089235Y-109047428D01*
X153095196Y-109071227D01*
X153098796Y-109095495D01*
X153100000Y-109119999D01*
X153100000Y-109770001D01*
X153098796Y-109794505D01*
X153095196Y-109818773D01*
X153089235Y-109842572D01*
X153080970Y-109865671D01*
X153070480Y-109887850D01*
X153057868Y-109908893D01*
X153043253Y-109928599D01*
X153026777Y-109946777D01*
X153008599Y-109963253D01*
X152988893Y-109977868D01*
X152967850Y-109990480D01*
X152945671Y-110000970D01*
X152922572Y-110009235D01*
X152898773Y-110015196D01*
X152874505Y-110018796D01*
X152850001Y-110020000D01*
X151949999Y-110020000D01*
X151925495Y-110018796D01*
X151901227Y-110015196D01*
X151877428Y-110009235D01*
X151854329Y-110000970D01*
X151832150Y-109990480D01*
X151811107Y-109977868D01*
X151791401Y-109963253D01*
X151773223Y-109946777D01*
X151756747Y-109928599D01*
X151742132Y-109908893D01*
X151729520Y-109887850D01*
X151719030Y-109865671D01*
X151710765Y-109842572D01*
X151704804Y-109818773D01*
X151701204Y-109794505D01*
X151700000Y-109770001D01*
X151700000Y-109119999D01*
X151701204Y-109095495D01*
X151704804Y-109071227D01*
X151710765Y-109047428D01*
X151719030Y-109024329D01*
X151729520Y-109002150D01*
X151742132Y-108981107D01*
X151756747Y-108961401D01*
X151773223Y-108943223D01*
X151791401Y-108926747D01*
X151811107Y-108912132D01*
X151832150Y-108899520D01*
X151854329Y-108889030D01*
X151877428Y-108880765D01*
X151901227Y-108874804D01*
X151925495Y-108871204D01*
X151949999Y-108870000D01*
X152850001Y-108870000D01*
X152874505Y-108871204D01*
X152874505Y-108871204D01*
G37*
D13*
G04 #@! TD*
G04 #@! TO.P,R6,1*
G04 #@! TO.N,Net-(D2-Pad1)*
X152400000Y-109445000D03*
D12*
G04 #@! TO.N,GND*
G04 #@! TO.C,R6*
G36*
X152874505Y-110921204D02*
X152898773Y-110924804D01*
X152922572Y-110930765D01*
X152945671Y-110939030D01*
X152967850Y-110949520D01*
X152988893Y-110962132D01*
X153008599Y-110976747D01*
X153026777Y-110993223D01*
X153043253Y-111011401D01*
X153057868Y-111031107D01*
X153070480Y-111052150D01*
X153080970Y-111074329D01*
X153089235Y-111097428D01*
X153095196Y-111121227D01*
X153098796Y-111145495D01*
X153100000Y-111169999D01*
X153100000Y-111820001D01*
X153098796Y-111844505D01*
X153095196Y-111868773D01*
X153089235Y-111892572D01*
X153080970Y-111915671D01*
X153070480Y-111937850D01*
X153057868Y-111958893D01*
X153043253Y-111978599D01*
X153026777Y-111996777D01*
X153008599Y-112013253D01*
X152988893Y-112027868D01*
X152967850Y-112040480D01*
X152945671Y-112050970D01*
X152922572Y-112059235D01*
X152898773Y-112065196D01*
X152874505Y-112068796D01*
X152850001Y-112070000D01*
X151949999Y-112070000D01*
X151925495Y-112068796D01*
X151901227Y-112065196D01*
X151877428Y-112059235D01*
X151854329Y-112050970D01*
X151832150Y-112040480D01*
X151811107Y-112027868D01*
X151791401Y-112013253D01*
X151773223Y-111996777D01*
X151756747Y-111978599D01*
X151742132Y-111958893D01*
X151729520Y-111937850D01*
X151719030Y-111915671D01*
X151710765Y-111892572D01*
X151704804Y-111868773D01*
X151701204Y-111844505D01*
X151700000Y-111820001D01*
X151700000Y-111169999D01*
X151701204Y-111145495D01*
X151704804Y-111121227D01*
X151710765Y-111097428D01*
X151719030Y-111074329D01*
X151729520Y-111052150D01*
X151742132Y-111031107D01*
X151756747Y-111011401D01*
X151773223Y-110993223D01*
X151791401Y-110976747D01*
X151811107Y-110962132D01*
X151832150Y-110949520D01*
X151854329Y-110939030D01*
X151877428Y-110930765D01*
X151901227Y-110924804D01*
X151925495Y-110921204D01*
X151949999Y-110920000D01*
X152850001Y-110920000D01*
X152874505Y-110921204D01*
X152874505Y-110921204D01*
G37*
D13*
G04 #@! TD*
G04 #@! TO.P,R6,2*
G04 #@! TO.N,GND*
X152400000Y-111495000D03*
D14*
G04 #@! TO.P,U1,1*
G04 #@! TO.N,Net-(D1-Pad2)*
X148700000Y-97155000D03*
G04 #@! TO.P,U1,2*
G04 #@! TO.N,Net-(R2-Pad2)*
X148700000Y-98425000D03*
G04 #@! TO.P,U1,3*
G04 #@! TO.N,/skin*
X148700000Y-99695000D03*
G04 #@! TO.P,U1,4*
G04 #@! TO.N,GND*
X148700000Y-100965000D03*
G04 #@! TO.P,U1,5*
G04 #@! TO.N,Net-(C1-Pad1)*
X156100000Y-100965000D03*
G04 #@! TO.P,U1,6*
G04 #@! TO.N,Net-(D2-Pad2)*
X156100000Y-99695000D03*
G04 #@! TO.P,U1,7*
X156100000Y-98425000D03*
G04 #@! TO.P,U1,8*
G04 #@! TO.N,+3V3*
X156100000Y-97155000D03*
G04 #@! TD*
D15*
G04 #@! TO.N,+3V3*
X156083000Y-96012000D03*
X156464000Y-108204000D03*
G04 #@! TO.N,GND*
X156972000Y-106172000D03*
X147828000Y-106172000D03*
G04 #@! TO.N,/skin*
X146558000Y-99695000D03*
G04 #@! TD*
D16*
G04 #@! TO.N,+3V3*
X156100000Y-96029000D02*
X156083000Y-96012000D01*
X156100000Y-97155000D02*
X156100000Y-96029000D01*
X154559000Y-97155000D02*
X156100000Y-97155000D01*
X151384000Y-100330000D02*
X154559000Y-97155000D01*
X151384000Y-102861000D02*
X151384000Y-100330000D01*
X149860000Y-104385000D02*
X151384000Y-102861000D01*
X155120810Y-108204000D02*
X156464000Y-108204000D01*
X153914990Y-106998180D02*
X155120810Y-108204000D01*
X149860000Y-104385000D02*
X150885000Y-105410000D01*
X150885000Y-105410000D02*
X153278590Y-105410000D01*
X153278590Y-105410000D02*
X153914990Y-106046400D01*
X153914990Y-106046400D02*
X153914990Y-106998180D01*
G04 #@! TO.N,Net-(C1-Pad1)*
X153425000Y-91440000D02*
X155965000Y-93980000D01*
X156588372Y-94603372D02*
X155965000Y-93980000D01*
X157300001Y-95315001D02*
X156588372Y-94603372D01*
X157300001Y-100364999D02*
X157300001Y-95315001D01*
X156700000Y-100965000D02*
X157300001Y-100364999D01*
X156100000Y-100965000D02*
X156700000Y-100965000D01*
X154559000Y-100965000D02*
X156100000Y-100965000D01*
X153670000Y-105165000D02*
X153670000Y-101854000D01*
X153670000Y-101854000D02*
X154559000Y-100965000D01*
X154940000Y-106435000D02*
X153670000Y-105165000D01*
G04 #@! TO.N,Net-(D1-Pad1)*
X150885000Y-93980000D02*
X153915000Y-93980000D01*
G04 #@! TO.N,Net-(D1-Pad2)*
X150751628Y-92063372D02*
X148835000Y-93980000D01*
X151375000Y-91440000D02*
X150751628Y-92063372D01*
X148835000Y-97020000D02*
X148700000Y-97155000D01*
X148835000Y-93980000D02*
X148835000Y-97020000D01*
G04 #@! TO.N,Net-(D2-Pad1)*
X152400000Y-106435000D02*
X152400000Y-109445000D01*
G04 #@! TO.N,Net-(D2-Pad2)*
X156100000Y-98425000D02*
X156100000Y-99695000D01*
X154305000Y-99695000D02*
X156100000Y-99695000D01*
X152400000Y-101600000D02*
X154305000Y-99695000D01*
X152400000Y-104385000D02*
X152400000Y-101600000D01*
G04 #@! TO.N,Net-(R2-Pad2)*
X154316628Y-110088372D02*
X154940000Y-109465000D01*
X154059990Y-110345010D02*
X154316628Y-110088372D01*
X151711820Y-110345010D02*
X154059990Y-110345010D01*
X150885010Y-109518200D02*
X151711820Y-110345010D01*
X150885010Y-107460010D02*
X150885010Y-109518200D01*
X149860000Y-106435000D02*
X150885010Y-107460010D01*
X149900001Y-99025001D02*
X149300000Y-98425000D01*
X149300000Y-98425000D02*
X148700000Y-98425000D01*
X149860000Y-106435000D02*
X148834990Y-105409990D01*
X149900001Y-102575999D02*
X149900001Y-99025001D01*
X148834990Y-105409990D02*
X148834990Y-103641010D01*
X148834990Y-103641010D02*
X149900001Y-102575999D01*
G04 #@! TO.N,/skin*
X148700000Y-99695000D02*
X146558000Y-99695000D01*
X149851000Y-109474000D02*
X149860000Y-109465000D01*
X148844000Y-109474000D02*
X149851000Y-109474000D01*
X146558000Y-107188000D02*
X148844000Y-109474000D01*
X146558000Y-99695000D02*
X146558000Y-107188000D01*
G04 #@! TD*
D17*
G04 #@! TO.N,GND*
G36*
X159310000Y-106512391D02*
X156896484Y-111339425D01*
X156275000Y-111960909D01*
X156275000Y-111800750D01*
X156116250Y-111642000D01*
X155067000Y-111642000D01*
X155067000Y-112566250D01*
X155225750Y-112725000D01*
X155510910Y-112725000D01*
X154645910Y-113590000D01*
X150154091Y-113590000D01*
X149289091Y-112725000D01*
X149574250Y-112725000D01*
X149733000Y-112566250D01*
X149733000Y-111642000D01*
X149987000Y-111642000D01*
X149987000Y-112566250D01*
X150145750Y-112725000D01*
X150686310Y-112725000D01*
X150919699Y-112628327D01*
X151098327Y-112449698D01*
X151134142Y-112363233D01*
X151161673Y-112429698D01*
X151340301Y-112608327D01*
X151573690Y-112705000D01*
X152114250Y-112705000D01*
X152273000Y-112546250D01*
X152273000Y-111622000D01*
X152527000Y-111622000D01*
X152527000Y-112546250D01*
X152685750Y-112705000D01*
X153226310Y-112705000D01*
X153459699Y-112608327D01*
X153638327Y-112429698D01*
X153665858Y-112363233D01*
X153701673Y-112449698D01*
X153880301Y-112628327D01*
X154113690Y-112725000D01*
X154654250Y-112725000D01*
X154813000Y-112566250D01*
X154813000Y-111642000D01*
X153763750Y-111642000D01*
X153680000Y-111725750D01*
X153576250Y-111622000D01*
X152527000Y-111622000D01*
X152273000Y-111622000D01*
X151223750Y-111622000D01*
X151120000Y-111725750D01*
X151036250Y-111642000D01*
X149987000Y-111642000D01*
X149733000Y-111642000D01*
X148683750Y-111642000D01*
X148525000Y-111800750D01*
X148525000Y-111960910D01*
X147903518Y-111339428D01*
X146172408Y-107877209D01*
X148253671Y-109958473D01*
X148296071Y-110021929D01*
X148547463Y-110189904D01*
X148629509Y-110206224D01*
X148775414Y-110424586D01*
X148776597Y-110425377D01*
X148621673Y-110580302D01*
X148525000Y-110813691D01*
X148525000Y-111229250D01*
X148683750Y-111388000D01*
X149733000Y-111388000D01*
X149733000Y-111368000D01*
X149987000Y-111368000D01*
X149987000Y-111388000D01*
X151036250Y-111388000D01*
X151140000Y-111284250D01*
X151223750Y-111368000D01*
X152273000Y-111368000D01*
X152273000Y-111348000D01*
X152527000Y-111348000D01*
X152527000Y-111368000D01*
X153576250Y-111368000D01*
X153660000Y-111284250D01*
X153763750Y-111388000D01*
X154813000Y-111388000D01*
X154813000Y-111368000D01*
X155067000Y-111368000D01*
X155067000Y-111388000D01*
X156116250Y-111388000D01*
X156275000Y-111229250D01*
X156275000Y-110813691D01*
X156178327Y-110580302D01*
X156023403Y-110425377D01*
X156024586Y-110424586D01*
X156219127Y-110133436D01*
X156287440Y-109790001D01*
X156287440Y-109239000D01*
X156669874Y-109239000D01*
X157050280Y-109081431D01*
X157341431Y-108790280D01*
X157499000Y-108409874D01*
X157499000Y-107998126D01*
X157341431Y-107617720D01*
X157050280Y-107326569D01*
X156669874Y-107169000D01*
X156258126Y-107169000D01*
X156143629Y-107216426D01*
X156219127Y-107103436D01*
X156287440Y-106760001D01*
X156287440Y-106109999D01*
X156219127Y-105766564D01*
X156024586Y-105475414D01*
X156023403Y-105474623D01*
X156178327Y-105319698D01*
X156275000Y-105086309D01*
X156275000Y-104670750D01*
X156116250Y-104512000D01*
X155067000Y-104512000D01*
X155067000Y-104532000D01*
X154813000Y-104532000D01*
X154813000Y-104512000D01*
X154793000Y-104512000D01*
X154793000Y-104258000D01*
X154813000Y-104258000D01*
X154813000Y-103333750D01*
X155067000Y-103333750D01*
X155067000Y-104258000D01*
X156116250Y-104258000D01*
X156275000Y-104099250D01*
X156275000Y-103683691D01*
X156178327Y-103450302D01*
X155999699Y-103271673D01*
X155766310Y-103175000D01*
X155225750Y-103175000D01*
X155067000Y-103333750D01*
X154813000Y-103333750D01*
X154654250Y-103175000D01*
X154430000Y-103175000D01*
X154430000Y-102168801D01*
X154847399Y-101751403D01*
X154977235Y-101838157D01*
X155225000Y-101887440D01*
X156975000Y-101887440D01*
X157222765Y-101838157D01*
X157432809Y-101697809D01*
X157573157Y-101487765D01*
X157622440Y-101240000D01*
X157622440Y-101117362D01*
X157784474Y-100955328D01*
X157847930Y-100912928D01*
X158015905Y-100661536D01*
X158060001Y-100439851D01*
X158060001Y-100439847D01*
X158074889Y-100364999D01*
X158060001Y-100290151D01*
X158060001Y-95389847D01*
X158074889Y-95315000D01*
X158060001Y-95240153D01*
X158060001Y-95240149D01*
X158034619Y-95112547D01*
X158095744Y-95124705D01*
X158388256Y-95124705D01*
X158821418Y-95038544D01*
X159310001Y-94712083D01*
X159310000Y-106512391D01*
X159310000Y-106512391D01*
G37*
X159310000Y-106512391D02*
X156896484Y-111339425D01*
X156275000Y-111960909D01*
X156275000Y-111800750D01*
X156116250Y-111642000D01*
X155067000Y-111642000D01*
X155067000Y-112566250D01*
X155225750Y-112725000D01*
X155510910Y-112725000D01*
X154645910Y-113590000D01*
X150154091Y-113590000D01*
X149289091Y-112725000D01*
X149574250Y-112725000D01*
X149733000Y-112566250D01*
X149733000Y-111642000D01*
X149987000Y-111642000D01*
X149987000Y-112566250D01*
X150145750Y-112725000D01*
X150686310Y-112725000D01*
X150919699Y-112628327D01*
X151098327Y-112449698D01*
X151134142Y-112363233D01*
X151161673Y-112429698D01*
X151340301Y-112608327D01*
X151573690Y-112705000D01*
X152114250Y-112705000D01*
X152273000Y-112546250D01*
X152273000Y-111622000D01*
X152527000Y-111622000D01*
X152527000Y-112546250D01*
X152685750Y-112705000D01*
X153226310Y-112705000D01*
X153459699Y-112608327D01*
X153638327Y-112429698D01*
X153665858Y-112363233D01*
X153701673Y-112449698D01*
X153880301Y-112628327D01*
X154113690Y-112725000D01*
X154654250Y-112725000D01*
X154813000Y-112566250D01*
X154813000Y-111642000D01*
X153763750Y-111642000D01*
X153680000Y-111725750D01*
X153576250Y-111622000D01*
X152527000Y-111622000D01*
X152273000Y-111622000D01*
X151223750Y-111622000D01*
X151120000Y-111725750D01*
X151036250Y-111642000D01*
X149987000Y-111642000D01*
X149733000Y-111642000D01*
X148683750Y-111642000D01*
X148525000Y-111800750D01*
X148525000Y-111960910D01*
X147903518Y-111339428D01*
X146172408Y-107877209D01*
X148253671Y-109958473D01*
X148296071Y-110021929D01*
X148547463Y-110189904D01*
X148629509Y-110206224D01*
X148775414Y-110424586D01*
X148776597Y-110425377D01*
X148621673Y-110580302D01*
X148525000Y-110813691D01*
X148525000Y-111229250D01*
X148683750Y-111388000D01*
X149733000Y-111388000D01*
X149733000Y-111368000D01*
X149987000Y-111368000D01*
X149987000Y-111388000D01*
X151036250Y-111388000D01*
X151140000Y-111284250D01*
X151223750Y-111368000D01*
X152273000Y-111368000D01*
X152273000Y-111348000D01*
X152527000Y-111348000D01*
X152527000Y-111368000D01*
X153576250Y-111368000D01*
X153660000Y-111284250D01*
X153763750Y-111388000D01*
X154813000Y-111388000D01*
X154813000Y-111368000D01*
X155067000Y-111368000D01*
X155067000Y-111388000D01*
X156116250Y-111388000D01*
X156275000Y-111229250D01*
X156275000Y-110813691D01*
X156178327Y-110580302D01*
X156023403Y-110425377D01*
X156024586Y-110424586D01*
X156219127Y-110133436D01*
X156287440Y-109790001D01*
X156287440Y-109239000D01*
X156669874Y-109239000D01*
X157050280Y-109081431D01*
X157341431Y-108790280D01*
X157499000Y-108409874D01*
X157499000Y-107998126D01*
X157341431Y-107617720D01*
X157050280Y-107326569D01*
X156669874Y-107169000D01*
X156258126Y-107169000D01*
X156143629Y-107216426D01*
X156219127Y-107103436D01*
X156287440Y-106760001D01*
X156287440Y-106109999D01*
X156219127Y-105766564D01*
X156024586Y-105475414D01*
X156023403Y-105474623D01*
X156178327Y-105319698D01*
X156275000Y-105086309D01*
X156275000Y-104670750D01*
X156116250Y-104512000D01*
X155067000Y-104512000D01*
X155067000Y-104532000D01*
X154813000Y-104532000D01*
X154813000Y-104512000D01*
X154793000Y-104512000D01*
X154793000Y-104258000D01*
X154813000Y-104258000D01*
X154813000Y-103333750D01*
X155067000Y-103333750D01*
X155067000Y-104258000D01*
X156116250Y-104258000D01*
X156275000Y-104099250D01*
X156275000Y-103683691D01*
X156178327Y-103450302D01*
X155999699Y-103271673D01*
X155766310Y-103175000D01*
X155225750Y-103175000D01*
X155067000Y-103333750D01*
X154813000Y-103333750D01*
X154654250Y-103175000D01*
X154430000Y-103175000D01*
X154430000Y-102168801D01*
X154847399Y-101751403D01*
X154977235Y-101838157D01*
X155225000Y-101887440D01*
X156975000Y-101887440D01*
X157222765Y-101838157D01*
X157432809Y-101697809D01*
X157573157Y-101487765D01*
X157622440Y-101240000D01*
X157622440Y-101117362D01*
X157784474Y-100955328D01*
X157847930Y-100912928D01*
X158015905Y-100661536D01*
X158060001Y-100439851D01*
X158060001Y-100439847D01*
X158074889Y-100364999D01*
X158060001Y-100290151D01*
X158060001Y-95389847D01*
X158074889Y-95315000D01*
X158060001Y-95240153D01*
X158060001Y-95240149D01*
X158034619Y-95112547D01*
X158095744Y-95124705D01*
X158388256Y-95124705D01*
X158821418Y-95038544D01*
X159310001Y-94712083D01*
X159310000Y-106512391D01*
G36*
X148827000Y-100838000D02*
X148847000Y-100838000D01*
X148847000Y-101092000D01*
X148827000Y-101092000D01*
X148827000Y-101716250D01*
X148985750Y-101875000D01*
X149140001Y-101875000D01*
X149140001Y-102261197D01*
X148350518Y-103050681D01*
X148287062Y-103093081D01*
X148244662Y-103156537D01*
X148244661Y-103156538D01*
X148119087Y-103344473D01*
X148060102Y-103641010D01*
X148074991Y-103715862D01*
X148074990Y-105335143D01*
X148060102Y-105409990D01*
X148074990Y-105484837D01*
X148074990Y-105484841D01*
X148119086Y-105706526D01*
X148287061Y-105957919D01*
X148350520Y-106000321D01*
X148512560Y-106162361D01*
X148512560Y-106760001D01*
X148580873Y-107103436D01*
X148775414Y-107394586D01*
X149066564Y-107589127D01*
X149409999Y-107657440D01*
X150007638Y-107657440D01*
X150125010Y-107774812D01*
X150125010Y-108242560D01*
X149409999Y-108242560D01*
X149066564Y-108310873D01*
X148880200Y-108435398D01*
X147318000Y-106873199D01*
X147318000Y-101631026D01*
X147465302Y-101778327D01*
X147698691Y-101875000D01*
X148414250Y-101875000D01*
X148573000Y-101716250D01*
X148573000Y-101092000D01*
X148553000Y-101092000D01*
X148553000Y-100838000D01*
X148573000Y-100838000D01*
X148573000Y-100818000D01*
X148827000Y-100818000D01*
X148827000Y-100838000D01*
X148827000Y-100838000D01*
G37*
X148827000Y-100838000D02*
X148847000Y-100838000D01*
X148847000Y-101092000D01*
X148827000Y-101092000D01*
X148827000Y-101716250D01*
X148985750Y-101875000D01*
X149140001Y-101875000D01*
X149140001Y-102261197D01*
X148350518Y-103050681D01*
X148287062Y-103093081D01*
X148244662Y-103156537D01*
X148244661Y-103156538D01*
X148119087Y-103344473D01*
X148060102Y-103641010D01*
X148074991Y-103715862D01*
X148074990Y-105335143D01*
X148060102Y-105409990D01*
X148074990Y-105484837D01*
X148074990Y-105484841D01*
X148119086Y-105706526D01*
X148287061Y-105957919D01*
X148350520Y-106000321D01*
X148512560Y-106162361D01*
X148512560Y-106760001D01*
X148580873Y-107103436D01*
X148775414Y-107394586D01*
X149066564Y-107589127D01*
X149409999Y-107657440D01*
X150007638Y-107657440D01*
X150125010Y-107774812D01*
X150125010Y-108242560D01*
X149409999Y-108242560D01*
X149066564Y-108310873D01*
X148880200Y-108435398D01*
X147318000Y-106873199D01*
X147318000Y-101631026D01*
X147465302Y-101778327D01*
X147698691Y-101875000D01*
X148414250Y-101875000D01*
X148573000Y-101716250D01*
X148573000Y-101092000D01*
X148553000Y-101092000D01*
X148553000Y-100838000D01*
X148573000Y-100838000D01*
X148573000Y-100818000D01*
X148827000Y-100818000D01*
X148827000Y-100838000D01*
G04 #@! TD*
M02*
