G04 #@! TF.GenerationSoftware,KiCad,Pcbnew,5.1.5+dfsg1-2build2*
G04 #@! TF.CreationDate,2020-06-19T12:28:30-07:00*
G04 #@! TF.ProjectId,touch-circuit-v2,746f7563-682d-4636-9972-637569742d76,rev?*
G04 #@! TF.SameCoordinates,Original*
G04 #@! TF.FileFunction,Legend,Bot*
G04 #@! TF.FilePolarity,Positive*
%FSLAX46Y46*%
G04 Gerber Fmt 4.6, Leading zero omitted, Abs format (unit mm)*
G04 Created by KiCad (PCBNEW 5.1.5+dfsg1-2build2) date 2020-06-19 12:28:30*
%MOMM*%
%LPD*%
G04 APERTURE LIST*
%ADD10C,0.080000*%
%ADD11C,0.180000*%
%ADD12C,0.100000*%
G04 APERTURE END LIST*
D10*
G36*
X149919000Y-90590000D02*
G01*
X150444000Y-90265000D01*
X150194000Y-90265000D01*
X150019000Y-90515000D01*
X149919000Y-90590000D01*
G37*
X149919000Y-90590000D02*
X150444000Y-90265000D01*
X150194000Y-90265000D01*
X150019000Y-90515000D01*
X149919000Y-90590000D01*
G36*
X148419000Y-90390000D02*
G01*
X148344000Y-90265000D01*
X148569000Y-90265000D01*
X148569000Y-90315000D01*
X148419000Y-90390000D01*
G37*
X148419000Y-90390000D02*
X148344000Y-90265000D01*
X148569000Y-90265000D01*
X148569000Y-90315000D01*
X148419000Y-90390000D01*
G36*
X149469000Y-92540000D02*
G01*
X149269000Y-92240000D01*
X149294000Y-92440000D01*
X149344000Y-92440000D01*
X149469000Y-92540000D01*
G37*
X149469000Y-92540000D02*
X149269000Y-92240000D01*
X149294000Y-92440000D01*
X149344000Y-92440000D01*
X149469000Y-92540000D01*
G36*
X148494000Y-91290000D02*
G01*
X148294000Y-90990000D01*
X148294000Y-91190000D01*
X148344000Y-91190000D01*
X148494000Y-91290000D01*
G37*
X148494000Y-91290000D02*
X148294000Y-90990000D01*
X148294000Y-91190000D01*
X148344000Y-91190000D01*
X148494000Y-91290000D01*
D11*
X150244000Y-90315000D02*
X148494000Y-90315000D01*
X149344000Y-89740000D02*
X149344000Y-91290000D01*
X148344000Y-91190000D02*
X148344000Y-92440000D01*
X148344000Y-92440000D02*
G75*
G03X149344000Y-92440000I500000J0D01*
G01*
X148344000Y-91290000D02*
G75*
G03X149344000Y-91290000I500000J0D01*
G01*
D10*
G36*
X149494000Y-89840000D02*
G01*
X149294000Y-89540000D01*
X149294000Y-89740000D01*
X149344000Y-89740000D01*
X149494000Y-89840000D01*
G37*
X149494000Y-89840000D02*
X149294000Y-89540000D01*
X149294000Y-89740000D01*
X149344000Y-89740000D01*
X149494000Y-89840000D01*
D12*
X139390000Y-85061001D02*
X138040000Y-86211001D01*
X139390000Y-98161001D02*
X138040000Y-97011001D01*
X146640000Y-96511001D02*
X146640000Y-94611001D01*
X146640000Y-86711001D02*
X146640000Y-88611001D01*
X146640000Y-86711001D02*
X144990000Y-85061001D01*
X144990000Y-98161001D02*
X146640000Y-96511001D01*
X137543542Y-89109307D02*
G75*
G02X138040000Y-86211001I2296458J1098306D01*
G01*
X137542393Y-94115099D02*
G75*
G03X138040000Y-97011001I2297607J-1095902D01*
G01*
M02*
