G04 #@! TF.GenerationSoftware,KiCad,Pcbnew,5.1.5+dfsg1-2build2*
G04 #@! TF.CreationDate,2020-06-19T12:28:30-07:00*
G04 #@! TF.ProjectId,touch-circuit-v2,746f7563-682d-4636-9972-637569742d76,rev?*
G04 #@! TF.SameCoordinates,Original*
G04 #@! TF.FileFunction,Soldermask,Bot*
G04 #@! TF.FilePolarity,Negative*
%FSLAX46Y46*%
G04 Gerber Fmt 4.6, Leading zero omitted, Abs format (unit mm)*
G04 Created by KiCad (PCBNEW 5.1.5+dfsg1-2build2) date 2020-06-19 12:28:30*
%MOMM*%
%LPD*%
G04 APERTURE LIST*
%ADD10C,0.100000*%
G04 APERTURE END LIST*
D10*
G36*
X144841000Y-100512001D02*
G01*
X139639000Y-100512001D01*
X139639000Y-97910001D01*
X144841000Y-97910001D01*
X144841000Y-100512001D01*
G37*
G36*
X143742490Y-86657951D02*
G01*
X144270865Y-86876811D01*
X144679913Y-87046244D01*
X145523571Y-87609958D01*
X146241043Y-88327430D01*
X146804757Y-89171088D01*
X146804757Y-89171089D01*
X147193050Y-90108511D01*
X147391000Y-91103670D01*
X147391000Y-92118332D01*
X147193050Y-93113491D01*
X146965593Y-93662621D01*
X146804757Y-94050914D01*
X146241043Y-94894572D01*
X145523571Y-95612044D01*
X144679913Y-96175758D01*
X144291620Y-96336594D01*
X143742490Y-96564051D01*
X142747331Y-96762001D01*
X141732669Y-96762001D01*
X140737510Y-96564051D01*
X140188380Y-96336594D01*
X139800087Y-96175758D01*
X138956429Y-95612044D01*
X138238957Y-94894572D01*
X137675243Y-94050914D01*
X137514407Y-93662621D01*
X137286950Y-93113491D01*
X137089000Y-92118332D01*
X137089000Y-91103670D01*
X137286950Y-90108511D01*
X137675243Y-89171089D01*
X137675243Y-89171088D01*
X138238957Y-88327430D01*
X138956429Y-87609958D01*
X139800087Y-87046244D01*
X140209135Y-86876811D01*
X140737510Y-86657951D01*
X141732669Y-86460001D01*
X142747331Y-86460001D01*
X143742490Y-86657951D01*
G37*
G36*
X135223461Y-85735978D02*
G01*
X135372761Y-85765675D01*
X135536733Y-85833595D01*
X135684303Y-85932198D01*
X135809802Y-86057697D01*
X135908405Y-86205267D01*
X135976325Y-86369239D01*
X136010949Y-86543310D01*
X136010949Y-86720792D01*
X135976325Y-86894863D01*
X135908405Y-87058835D01*
X135809802Y-87206405D01*
X135684303Y-87331904D01*
X135536733Y-87430507D01*
X135372761Y-87498427D01*
X135223461Y-87528124D01*
X135198691Y-87533051D01*
X135021207Y-87533051D01*
X134996437Y-87528124D01*
X134847137Y-87498427D01*
X134683165Y-87430507D01*
X134535595Y-87331904D01*
X134410096Y-87206405D01*
X134311493Y-87058835D01*
X134243573Y-86894863D01*
X134208949Y-86720792D01*
X134208949Y-86543310D01*
X134243573Y-86369239D01*
X134311493Y-86205267D01*
X134410096Y-86057697D01*
X134535595Y-85932198D01*
X134683165Y-85833595D01*
X134847137Y-85765675D01*
X134996437Y-85735978D01*
X135021207Y-85731051D01*
X135198691Y-85731051D01*
X135223461Y-85735978D01*
G37*
G36*
X149465512Y-85717927D02*
G01*
X149614812Y-85747624D01*
X149778784Y-85815544D01*
X149926354Y-85914147D01*
X150051853Y-86039646D01*
X150150456Y-86187216D01*
X150218376Y-86351188D01*
X150253000Y-86525259D01*
X150253000Y-86702741D01*
X150218376Y-86876812D01*
X150150456Y-87040784D01*
X150051853Y-87188354D01*
X149926354Y-87313853D01*
X149778784Y-87412456D01*
X149614812Y-87480376D01*
X149465512Y-87510073D01*
X149440742Y-87515000D01*
X149263258Y-87515000D01*
X149238488Y-87510073D01*
X149089188Y-87480376D01*
X148925216Y-87412456D01*
X148777646Y-87313853D01*
X148652147Y-87188354D01*
X148553544Y-87040784D01*
X148485624Y-86876812D01*
X148451000Y-86702741D01*
X148451000Y-86525259D01*
X148485624Y-86351188D01*
X148553544Y-86187216D01*
X148652147Y-86039646D01*
X148777646Y-85914147D01*
X148925216Y-85815544D01*
X149089188Y-85747624D01*
X149238488Y-85717927D01*
X149263258Y-85713000D01*
X149440742Y-85713000D01*
X149465512Y-85717927D01*
G37*
G36*
X137019512Y-83939927D02*
G01*
X137168812Y-83969624D01*
X137332784Y-84037544D01*
X137480354Y-84136147D01*
X137605853Y-84261646D01*
X137704456Y-84409216D01*
X137772376Y-84573188D01*
X137807000Y-84747259D01*
X137807000Y-84924741D01*
X137772376Y-85098812D01*
X137704456Y-85262784D01*
X137605853Y-85410354D01*
X137480354Y-85535853D01*
X137332784Y-85634456D01*
X137168812Y-85702376D01*
X137024649Y-85731051D01*
X136994742Y-85737000D01*
X136817258Y-85737000D01*
X136787351Y-85731051D01*
X136643188Y-85702376D01*
X136479216Y-85634456D01*
X136331646Y-85535853D01*
X136206147Y-85410354D01*
X136107544Y-85262784D01*
X136039624Y-85098812D01*
X136005000Y-84924741D01*
X136005000Y-84747259D01*
X136039624Y-84573188D01*
X136107544Y-84409216D01*
X136206147Y-84261646D01*
X136331646Y-84136147D01*
X136479216Y-84037544D01*
X136643188Y-83969624D01*
X136792488Y-83939927D01*
X136817258Y-83935000D01*
X136994742Y-83935000D01*
X137019512Y-83939927D01*
G37*
G36*
X147669461Y-83921876D02*
G01*
X147818761Y-83951573D01*
X147982733Y-84019493D01*
X148130303Y-84118096D01*
X148255802Y-84243595D01*
X148354405Y-84391165D01*
X148422325Y-84555137D01*
X148456949Y-84729208D01*
X148456949Y-84906690D01*
X148422325Y-85080761D01*
X148354405Y-85244733D01*
X148255802Y-85392303D01*
X148130303Y-85517802D01*
X147982733Y-85616405D01*
X147818761Y-85684325D01*
X147674598Y-85713000D01*
X147644691Y-85718949D01*
X147467207Y-85718949D01*
X147437300Y-85713000D01*
X147293137Y-85684325D01*
X147129165Y-85616405D01*
X146981595Y-85517802D01*
X146856096Y-85392303D01*
X146757493Y-85244733D01*
X146689573Y-85080761D01*
X146654949Y-84906690D01*
X146654949Y-84729208D01*
X146689573Y-84555137D01*
X146757493Y-84391165D01*
X146856096Y-84243595D01*
X146981595Y-84118096D01*
X147129165Y-84019493D01*
X147293137Y-83951573D01*
X147442437Y-83921876D01*
X147467207Y-83916949D01*
X147644691Y-83916949D01*
X147669461Y-83921876D01*
G37*
G36*
X144841000Y-85312001D02*
G01*
X139639000Y-85312001D01*
X139639000Y-82710001D01*
X144841000Y-82710001D01*
X144841000Y-85312001D01*
G37*
M02*
