G04 #@! TF.GenerationSoftware,KiCad,Pcbnew,5.1.5+dfsg1-2build2*
G04 #@! TF.CreationDate,2020-06-19T12:28:30-07:00*
G04 #@! TF.ProjectId,touch-circuit-v2,746f7563-682d-4636-9972-637569742d76,rev?*
G04 #@! TF.SameCoordinates,Original*
G04 #@! TF.FileFunction,Copper,L2,Bot*
G04 #@! TF.FilePolarity,Positive*
%FSLAX46Y46*%
G04 Gerber Fmt 4.6, Leading zero omitted, Abs format (unit mm)*
G04 Created by KiCad (PCBNEW 5.1.5+dfsg1-2build2) date 2020-06-19 12:28:30*
%MOMM*%
%LPD*%
G04 APERTURE LIST*
%ADD10C,1.700000*%
%ADD11C,1.700000*%
%ADD12R,5.100000X2.500000*%
%ADD13C,10.200000*%
%ADD14C,0.800000*%
%ADD15C,0.250000*%
%ADD16C,0.254000*%
G04 APERTURE END LIST*
D10*
X136906000Y-84836000D03*
D11*
X135109949Y-86632051D02*
X135109949Y-86632051D01*
X149352000Y-86614000D02*
X149352000Y-86614000D01*
D10*
X147555949Y-84817949D03*
D12*
X142240000Y-99211001D03*
X142240000Y-84011001D03*
D13*
X142240000Y-91611001D03*
D14*
X145542000Y-96520000D03*
X138938000Y-96520000D03*
X134620000Y-88900000D03*
X149860000Y-88900000D03*
D15*
X143612999Y-99211001D02*
X142240000Y-99211001D01*
X145542000Y-97282000D02*
X143612999Y-99211001D01*
X145542000Y-96520000D02*
X145542000Y-97282000D01*
X140940000Y-84011001D02*
X142240000Y-84011001D01*
X136814999Y-95793999D02*
X136814999Y-88136002D01*
X138266001Y-97245001D02*
X136814999Y-95793999D01*
X136814999Y-88136002D02*
X140940000Y-84011001D01*
X139028001Y-97245001D02*
X138266001Y-97245001D01*
X140994001Y-99211001D02*
X139028001Y-97245001D01*
X142240000Y-99211001D02*
X140994001Y-99211001D01*
X149860000Y-94297500D02*
X149860000Y-90932000D01*
X149860000Y-90932000D02*
X149860000Y-88900000D01*
X146050000Y-98107500D02*
X149860000Y-94297500D01*
X146050000Y-100076000D02*
X146050000Y-98107500D01*
X145288000Y-100838000D02*
X146050000Y-100076000D01*
X138430000Y-100076000D02*
X139192000Y-100838000D01*
X138430000Y-98078650D02*
X138430000Y-100076000D01*
X134620000Y-94268650D02*
X138430000Y-98078650D01*
X139192000Y-100838000D02*
X145288000Y-100838000D01*
X134620000Y-88900000D02*
X134620000Y-94268650D01*
X135109949Y-86632051D02*
X136906000Y-84836000D01*
X147555949Y-84817949D02*
X149352000Y-86614000D01*
D16*
G36*
X139051928Y-98343729D02*
G01*
X139051928Y-100461001D01*
X139064188Y-100585483D01*
X139100498Y-100705181D01*
X139159463Y-100815495D01*
X139238815Y-100912186D01*
X139287694Y-100952300D01*
X138315700Y-100952300D01*
X138315700Y-98075801D01*
X138318832Y-98044000D01*
X138315700Y-98012199D01*
X138315700Y-98012191D01*
X138314992Y-98005001D01*
X138713200Y-98005001D01*
X139051928Y-98343729D01*
G37*
X139051928Y-98343729D02*
X139051928Y-100461001D01*
X139064188Y-100585483D01*
X139100498Y-100705181D01*
X139159463Y-100815495D01*
X139238815Y-100912186D01*
X139287694Y-100952300D01*
X138315700Y-100952300D01*
X138315700Y-98075801D01*
X138318832Y-98044000D01*
X138315700Y-98012199D01*
X138315700Y-98012191D01*
X138314992Y-98005001D01*
X138713200Y-98005001D01*
X139051928Y-98343729D01*
G36*
X145582453Y-82402114D02*
G01*
X146600922Y-82907019D01*
X147275315Y-83359678D01*
X147122791Y-83390017D01*
X146852538Y-83501959D01*
X146609317Y-83664474D01*
X146402474Y-83871317D01*
X146239959Y-84114538D01*
X146128017Y-84384791D01*
X146070949Y-84671689D01*
X146070949Y-84964209D01*
X146128017Y-85251107D01*
X146239959Y-85521360D01*
X146402474Y-85764581D01*
X146609317Y-85971424D01*
X146852538Y-86133939D01*
X147122791Y-86245881D01*
X147409689Y-86302949D01*
X147702209Y-86302949D01*
X147907918Y-86262031D01*
X147867000Y-86467740D01*
X147867000Y-86760260D01*
X147924068Y-87047158D01*
X148036010Y-87317411D01*
X148198525Y-87560632D01*
X148405368Y-87767475D01*
X148648589Y-87929990D01*
X148918842Y-88041932D01*
X149205740Y-88099000D01*
X149498260Y-88099000D01*
X149785158Y-88041932D01*
X150055411Y-87929990D01*
X150298632Y-87767475D01*
X150446027Y-87620080D01*
X150638945Y-88192327D01*
X150858384Y-89307713D01*
X150930358Y-90442179D01*
X150853637Y-91576342D01*
X150629401Y-92691458D01*
X150311217Y-93628797D01*
X146376498Y-97563517D01*
X146351793Y-97583792D01*
X146331518Y-97608497D01*
X146331515Y-97608500D01*
X146270853Y-97682417D01*
X146210709Y-97794938D01*
X146173673Y-97917029D01*
X146161168Y-98044000D01*
X146164301Y-98075811D01*
X146164300Y-100952300D01*
X145192306Y-100952300D01*
X145241185Y-100912186D01*
X145320537Y-100815495D01*
X145379502Y-100705181D01*
X145415812Y-100585483D01*
X145428072Y-100461001D01*
X145428072Y-98470730D01*
X146053008Y-97845795D01*
X146082001Y-97822001D01*
X146105795Y-97793008D01*
X146105799Y-97793004D01*
X146176973Y-97706277D01*
X146189727Y-97682417D01*
X146247546Y-97574247D01*
X146291003Y-97430986D01*
X146302000Y-97319333D01*
X146302000Y-97319324D01*
X146305676Y-97282001D01*
X146302000Y-97244678D01*
X146302000Y-97223711D01*
X146345937Y-97179774D01*
X146459205Y-97010256D01*
X146537226Y-96821898D01*
X146577000Y-96621939D01*
X146577000Y-96418061D01*
X146537226Y-96218102D01*
X146459205Y-96029744D01*
X146345937Y-95860226D01*
X146201774Y-95716063D01*
X146092327Y-95642933D01*
X142240000Y-91790606D01*
X138368194Y-95662412D01*
X138956309Y-96346679D01*
X139281234Y-96527620D01*
X139176987Y-96495998D01*
X139065334Y-96485001D01*
X139065323Y-96485001D01*
X139028001Y-96481325D01*
X138990679Y-96485001D01*
X138580803Y-96485001D01*
X137574999Y-95479198D01*
X137574999Y-94955438D01*
X138188589Y-95482807D01*
X142060395Y-91611001D01*
X142419605Y-91611001D01*
X146291411Y-95482807D01*
X146975678Y-94894692D01*
X147525299Y-93907712D01*
X147871809Y-92832471D01*
X148001892Y-91710289D01*
X147910549Y-90584291D01*
X147601289Y-89497750D01*
X147085999Y-88492420D01*
X146975678Y-88327310D01*
X146291411Y-87739195D01*
X142419605Y-91611001D01*
X142060395Y-91611001D01*
X142046253Y-91596859D01*
X142225858Y-91417254D01*
X142240000Y-91431396D01*
X146111806Y-87559590D01*
X145523691Y-86875323D01*
X144536711Y-86325702D01*
X143461470Y-85979192D01*
X142770311Y-85899073D01*
X144790000Y-85899073D01*
X144914482Y-85886813D01*
X145034180Y-85850503D01*
X145144494Y-85791538D01*
X145241185Y-85712186D01*
X145320537Y-85615495D01*
X145379502Y-85505181D01*
X145415812Y-85385483D01*
X145428072Y-85261001D01*
X145428072Y-82761001D01*
X145415812Y-82636519D01*
X145379502Y-82516821D01*
X145320537Y-82406507D01*
X145241185Y-82309816D01*
X145190352Y-82268099D01*
X145582453Y-82402114D01*
G37*
X145582453Y-82402114D02*
X146600922Y-82907019D01*
X147275315Y-83359678D01*
X147122791Y-83390017D01*
X146852538Y-83501959D01*
X146609317Y-83664474D01*
X146402474Y-83871317D01*
X146239959Y-84114538D01*
X146128017Y-84384791D01*
X146070949Y-84671689D01*
X146070949Y-84964209D01*
X146128017Y-85251107D01*
X146239959Y-85521360D01*
X146402474Y-85764581D01*
X146609317Y-85971424D01*
X146852538Y-86133939D01*
X147122791Y-86245881D01*
X147409689Y-86302949D01*
X147702209Y-86302949D01*
X147907918Y-86262031D01*
X147867000Y-86467740D01*
X147867000Y-86760260D01*
X147924068Y-87047158D01*
X148036010Y-87317411D01*
X148198525Y-87560632D01*
X148405368Y-87767475D01*
X148648589Y-87929990D01*
X148918842Y-88041932D01*
X149205740Y-88099000D01*
X149498260Y-88099000D01*
X149785158Y-88041932D01*
X150055411Y-87929990D01*
X150298632Y-87767475D01*
X150446027Y-87620080D01*
X150638945Y-88192327D01*
X150858384Y-89307713D01*
X150930358Y-90442179D01*
X150853637Y-91576342D01*
X150629401Y-92691458D01*
X150311217Y-93628797D01*
X146376498Y-97563517D01*
X146351793Y-97583792D01*
X146331518Y-97608497D01*
X146331515Y-97608500D01*
X146270853Y-97682417D01*
X146210709Y-97794938D01*
X146173673Y-97917029D01*
X146161168Y-98044000D01*
X146164301Y-98075811D01*
X146164300Y-100952300D01*
X145192306Y-100952300D01*
X145241185Y-100912186D01*
X145320537Y-100815495D01*
X145379502Y-100705181D01*
X145415812Y-100585483D01*
X145428072Y-100461001D01*
X145428072Y-98470730D01*
X146053008Y-97845795D01*
X146082001Y-97822001D01*
X146105795Y-97793008D01*
X146105799Y-97793004D01*
X146176973Y-97706277D01*
X146189727Y-97682417D01*
X146247546Y-97574247D01*
X146291003Y-97430986D01*
X146302000Y-97319333D01*
X146302000Y-97319324D01*
X146305676Y-97282001D01*
X146302000Y-97244678D01*
X146302000Y-97223711D01*
X146345937Y-97179774D01*
X146459205Y-97010256D01*
X146537226Y-96821898D01*
X146577000Y-96621939D01*
X146577000Y-96418061D01*
X146537226Y-96218102D01*
X146459205Y-96029744D01*
X146345937Y-95860226D01*
X146201774Y-95716063D01*
X146092327Y-95642933D01*
X142240000Y-91790606D01*
X138368194Y-95662412D01*
X138956309Y-96346679D01*
X139281234Y-96527620D01*
X139176987Y-96495998D01*
X139065334Y-96485001D01*
X139065323Y-96485001D01*
X139028001Y-96481325D01*
X138990679Y-96485001D01*
X138580803Y-96485001D01*
X137574999Y-95479198D01*
X137574999Y-94955438D01*
X138188589Y-95482807D01*
X142060395Y-91611001D01*
X142419605Y-91611001D01*
X146291411Y-95482807D01*
X146975678Y-94894692D01*
X147525299Y-93907712D01*
X147871809Y-92832471D01*
X148001892Y-91710289D01*
X147910549Y-90584291D01*
X147601289Y-89497750D01*
X147085999Y-88492420D01*
X146975678Y-88327310D01*
X146291411Y-87739195D01*
X142419605Y-91611001D01*
X142060395Y-91611001D01*
X142046253Y-91596859D01*
X142225858Y-91417254D01*
X142240000Y-91431396D01*
X146111806Y-87559590D01*
X145523691Y-86875323D01*
X144536711Y-86325702D01*
X143461470Y-85979192D01*
X142770311Y-85899073D01*
X144790000Y-85899073D01*
X144914482Y-85886813D01*
X145034180Y-85850503D01*
X145144494Y-85791538D01*
X145241185Y-85712186D01*
X145320537Y-85615495D01*
X145379502Y-85505181D01*
X145415812Y-85385483D01*
X145428072Y-85261001D01*
X145428072Y-82761001D01*
X145415812Y-82636519D01*
X145379502Y-82516821D01*
X145320537Y-82406507D01*
X145241185Y-82309816D01*
X145190352Y-82268099D01*
X145582453Y-82402114D01*
G36*
X139238815Y-82309816D02*
G01*
X139159463Y-82406507D01*
X139100498Y-82516821D01*
X139064188Y-82636519D01*
X139051928Y-82761001D01*
X139051928Y-84824271D01*
X136303997Y-87572203D01*
X136274999Y-87596001D01*
X136251201Y-87624999D01*
X136251200Y-87625000D01*
X136180025Y-87711726D01*
X136109453Y-87843756D01*
X136093012Y-87897957D01*
X136065997Y-87987016D01*
X136060588Y-88041932D01*
X136051323Y-88136002D01*
X136055000Y-88173334D01*
X136054999Y-95515014D01*
X134169288Y-93629303D01*
X133841054Y-92655671D01*
X133621616Y-91540288D01*
X133549642Y-90405821D01*
X133626363Y-89271658D01*
X133850465Y-88157210D01*
X134024834Y-87647043D01*
X134163317Y-87785526D01*
X134406538Y-87948041D01*
X134676791Y-88059983D01*
X134963689Y-88117051D01*
X135256209Y-88117051D01*
X135543107Y-88059983D01*
X135813360Y-87948041D01*
X136056581Y-87785526D01*
X136263424Y-87578683D01*
X136425939Y-87335462D01*
X136537881Y-87065209D01*
X136594949Y-86778311D01*
X136594949Y-86485791D01*
X136554031Y-86280082D01*
X136759740Y-86321000D01*
X137052260Y-86321000D01*
X137339158Y-86263932D01*
X137609411Y-86151990D01*
X137852632Y-85989475D01*
X138059475Y-85782632D01*
X138221990Y-85539411D01*
X138333932Y-85269158D01*
X138391000Y-84982260D01*
X138391000Y-84689740D01*
X138333932Y-84402842D01*
X138221990Y-84132589D01*
X138059475Y-83889368D01*
X137852632Y-83682525D01*
X137609411Y-83520010D01*
X137339158Y-83408068D01*
X137178115Y-83376034D01*
X137910566Y-82888839D01*
X138931141Y-82388199D01*
X139291221Y-82266808D01*
X139238815Y-82309816D01*
G37*
X139238815Y-82309816D02*
X139159463Y-82406507D01*
X139100498Y-82516821D01*
X139064188Y-82636519D01*
X139051928Y-82761001D01*
X139051928Y-84824271D01*
X136303997Y-87572203D01*
X136274999Y-87596001D01*
X136251201Y-87624999D01*
X136251200Y-87625000D01*
X136180025Y-87711726D01*
X136109453Y-87843756D01*
X136093012Y-87897957D01*
X136065997Y-87987016D01*
X136060588Y-88041932D01*
X136051323Y-88136002D01*
X136055000Y-88173334D01*
X136054999Y-95515014D01*
X134169288Y-93629303D01*
X133841054Y-92655671D01*
X133621616Y-91540288D01*
X133549642Y-90405821D01*
X133626363Y-89271658D01*
X133850465Y-88157210D01*
X134024834Y-87647043D01*
X134163317Y-87785526D01*
X134406538Y-87948041D01*
X134676791Y-88059983D01*
X134963689Y-88117051D01*
X135256209Y-88117051D01*
X135543107Y-88059983D01*
X135813360Y-87948041D01*
X136056581Y-87785526D01*
X136263424Y-87578683D01*
X136425939Y-87335462D01*
X136537881Y-87065209D01*
X136594949Y-86778311D01*
X136594949Y-86485791D01*
X136554031Y-86280082D01*
X136759740Y-86321000D01*
X137052260Y-86321000D01*
X137339158Y-86263932D01*
X137609411Y-86151990D01*
X137852632Y-85989475D01*
X138059475Y-85782632D01*
X138221990Y-85539411D01*
X138333932Y-85269158D01*
X138391000Y-84982260D01*
X138391000Y-84689740D01*
X138333932Y-84402842D01*
X138221990Y-84132589D01*
X138059475Y-83889368D01*
X137852632Y-83682525D01*
X137609411Y-83520010D01*
X137339158Y-83408068D01*
X137178115Y-83376034D01*
X137910566Y-82888839D01*
X138931141Y-82388199D01*
X139291221Y-82266808D01*
X139238815Y-82309816D01*
M02*
